SplineFontDB: 3.2
FontName: DejaPro-Italic
FullName: DejaPro Italic
FamilyName: DejaPro
Weight: Regular
Copyright: Property of Defensecorps.
UComments: "2023-7-26: Created with FontForge (http://fontforge.org)"
Version: 1.00
ItalicAngle: -12
UnderlinePosition: -237
UnderlineWidth: 119
Ascent: 1638
Descent: 410
InvalidEm: 0
LayerCount: 2
Layer: 0 1 "Back" 1
Layer: 1 1 "Fore" 0
XUID: [1021 164 111113757 18505]
StyleMap: 0x0001
FSType: 0
OS2Version: 0
OS2_WeightWidthSlopeOnly: 0
OS2_UseTypoMetrics: 1
CreationTime: 1690353932
ModificationTime: 1690368078
PfmFamily: 17
TTFWeight: 400
TTFWidth: 5
LineGap: 0
VLineGap: 0
OS2TypoAscent: 1491
OS2TypoAOffset: 0
OS2TypoDescent: -431
OS2TypoDOffset: 0
OS2TypoLinegap: 269
OS2WinAscent: 2210
OS2WinAOffset: 0
OS2WinDescent: 514
OS2WinDOffset: 0
HheadAscent: 2210
HheadAOffset: 0
HheadDescent: -514
HheadDOffset: 0
OS2SubXSize: 1434
OS2SubYSize: 1331
OS2SubXOff: 0
OS2SubYOff: 283
OS2SupXSize: 1434
OS2SupYSize: 1331
OS2SupXOff: 0
OS2SupYOff: 977
OS2StrikeYSize: 102
OS2StrikeYPos: 530
OS2CapHeight: 1434
OS2XHeight: 1024
OS2Vendor: 'PfEd'
Lookup: 6 256 0 "SegoeUI-Italic-'ccmp' Glyph Composition/Decomposition lookup 0" { "SegoeUI-Italic-'ccmp' Glyph Composition/Decomposition lookup 0 subtable"  } ['ccmp' ('cyrl' <'MKD ' 'SRB ' 'dflt' > 'grek' <'dflt' > 'latn' <'TRK ' 'dflt' > ) ]
Lookup: 4 0 0 "SegoeUI-Italic-'ccmp' Glyph Composition/Decomposition lookup 1" { "SegoeUI-Italic-'ccmp' Glyph Composition/Decomposition lookup 1 subtable"  } ['ccmp' ('cyrl' <'MKD ' 'SRB ' 'dflt' > 'grek' <'dflt' > 'latn' <'TRK ' 'dflt' > ) ]
Lookup: 1 0 0 "SegoeUI-Italic-'subs' Subscript lookup 2" { "SegoeUI-Italic-'subs' Subscript lookup 2 subtable"  } ['subs' ('cyrl' <'MKD ' 'SRB ' 'dflt' > 'grek' <'dflt' > 'latn' <'TRK ' 'dflt' > ) ]
Lookup: 1 0 0 "SegoeUI-Italic-'sups' Superscript lookup 3" { "SegoeUI-Italic-'sups' Superscript lookup 3 subtable"  } ['sups' ('cyrl' <'MKD ' 'SRB ' 'dflt' > 'grek' <'dflt' > 'latn' <'TRK ' 'dflt' > ) ]

StartChar: .notdef
Encoding: 1114112 -1 0
Width: 1322
GlyphClass: 2
Flags: W
LayerCount: 2
Fore
SplineSet
166 0 m 1,0,-1
 166 1398 l 1,1,-1
 1156 1398 l 1,2,-1
 1156 0 l 1,3,-1
 166 0 l 1,0,-1
314 148 m 1,4,-1
 1008 148 l 1,5,-1
 1008 1250 l 1,6,-1
 314 1250 l 1,7,-1
 314 148 l 1,4,-1
EndSplineSet
EndChar

StartChar: exclam
Encoding: 33 33 4
Width: 653
GlyphClass: 2
Flags: W
LayerCount: 2
Fore
SplineSet
367 403 m 1,0,-1
 231 403 l 1,1,-1
 432 1434 l 1,2,-1
 604 1434 l 1,3,-1
 367 403 l 1,0,-1
354 92 m 256,4,5
 354 69 354 69 345 49 c 128,-1,6
 336 29 336 29 321 14 c 128,-1,7
 306 -1 306 -1 286 -9.5 c 128,-1,8
 266 -18 266 -18 244 -18 c 0,9,10
 221 -18 221 -18 200.5 -9.5 c 128,-1,11
 180 -1 180 -1 165 14 c 128,-1,12
 150 29 150 29 141.5 49 c 128,-1,13
 133 69 133 69 133 92 c 256,14,15
 133 115 133 115 141.5 135.5 c 128,-1,16
 150 156 150 156 165 171 c 128,-1,17
 180 186 180 186 200.5 194.5 c 128,-1,18
 221 203 221 203 244 203 c 0,19,20
 266 203 266 203 286 194.5 c 128,-1,21
 306 186 306 186 321 171 c 128,-1,22
 336 156 336 156 345 135.5 c 128,-1,23
 354 115 354 115 354 92 c 256,4,5
EndSplineSet
Substitution2: "SegoeUI-Italic-'ss19' Style Set 19 lookup 8 subtable" exclam.ss19
EndChar

StartChar: quotedbl
Encoding: 34 34 5
Width: 766
GlyphClass: 2
Flags: W
LayerCount: 2
Fore
SplineSet
684 987 m 1,0,-1
 565 987 l 1,1,-1
 557 1434 l 1,2,-1
 694 1434 l 1,3,-1
 684 987 l 1,0,-1
401 987 m 1,4,-1
 285 987 l 1,5,-1
 274 1434 l 1,6,-1
 412 1434 l 1,7,-1
 401 987 l 1,4,-1
EndSplineSet
EndChar

StartChar: numbersign
Encoding: 35 35 6
Width: 1210
GlyphClass: 2
Flags: W
LayerCount: 2
Fore
SplineSet
1202 926 m 1,0,-1
 942 926 l 1,1,-1
 879 627 l 1,2,-1
 1159 627 l 1,3,-1
 1133 520 l 1,4,-1
 858 520 l 1,5,-1
 770 123 l 1,6,-1
 643 123 l 1,7,-1
 729 520 l 1,8,-1
 479 520 l 1,9,-1
 395 123 l 1,10,-1
 270 123 l 1,11,-1
 354 520 l 1,12,-1
 92 520 l 1,13,-1
 113 627 l 1,14,-1
 377 627 l 1,15,-1
 438 924 l 1,16,-1
 162 924 l 1,17,-1
 182 1032 l 1,18,-1
 459 1032 l 1,19,-1
 543 1434 l 1,20,-1
 670 1434 l 1,21,-1
 588 1032 l 1,22,-1
 838 1032 l 1,23,-1
 924 1434 l 1,24,-1
 1047 1434 l 1,25,-1
 965 1032 l 1,26,-1
 1225 1032 l 1,27,-1
 1202 926 l 1,0,-1
565 926 m 1,28,-1
 500 627 l 1,29,-1
 754 627 l 1,30,-1
 817 926 l 1,31,-1
 565 926 l 1,28,-1
EndSplineSet
EndChar

StartChar: dollar
Encoding: 36 36 7
Width: 1104
GlyphClass: 2
Flags: W
LayerCount: 2
Fore
SplineSet
1018 1233 m 1,0,1
 997 1245 997 1245 969 1257.5 c 128,-1,2
 941 1270 941 1270 908.5 1281 c 128,-1,3
 876 1292 876 1292 841.5 1300 c 128,-1,4
 807 1308 807 1308 774 1311 c 1,5,-1
 655 758 l 1,6,7
 708 719 708 719 758 678 c 128,-1,8
 808 637 808 637 846.5 591.5 c 128,-1,9
 885 546 885 546 908.5 494 c 128,-1,10
 932 442 932 442 932 381 c 0,11,12
 932 314 932 314 910 245.5 c 128,-1,13
 888 177 888 177 836.5 120.5 c 128,-1,14
 785 64 785 64 700.5 26 c 128,-1,15
 616 -12 616 -12 492 -16 c 1,16,-1
 449 -209 l 1,17,-1
 346 -209 l 1,18,-1
 387 -14 l 1,19,20
 345 -12 345 -12 299 -4 c 128,-1,21
 253 4 253 4 211 15 c 128,-1,22
 169 26 169 26 133 38.5 c 128,-1,23
 97 51 97 51 74 63 c 1,24,-1
 102 225 l 1,25,26
 130 207 130 207 167.5 190 c 128,-1,27
 205 173 205 173 247 159 c 128,-1,28
 289 145 289 145 332 135 c 128,-1,29
 375 125 375 125 414 121 c 1,30,-1
 528 651 l 1,31,32
 467 695 467 695 415 737.5 c 128,-1,33
 363 780 363 780 325.5 827.5 c 128,-1,34
 288 875 288 875 267 932 c 128,-1,35
 246 989 246 989 246 1061 c 0,36,37
 246 1143 246 1143 278.5 1213.5 c 128,-1,38
 311 1284 311 1284 370 1336 c 128,-1,39
 429 1388 429 1388 512.5 1418.5 c 128,-1,40
 596 1449 596 1449 698 1450 c 1,41,-1
 733 1616 l 1,42,-1
 838 1616 l 1,43,-1
 801 1446 l 1,44,45
 870 1441 870 1441 936 1423 c 128,-1,46
 1002 1405 1002 1405 1047 1386 c 1,47,-1
 1018 1233 l 1,0,1
668 1313 m 1,48,49
 605 1309 605 1309 557.5 1287 c 128,-1,50
 510 1265 510 1265 478 1230.5 c 128,-1,51
 446 1196 446 1196 430 1153 c 128,-1,52
 414 1110 414 1110 414 1065 c 0,53,54
 414 1027 414 1027 425 994 c 128,-1,55
 436 961 436 961 456 932 c 128,-1,56
 476 903 476 903 503.5 877 c 128,-1,57
 531 851 531 851 565 825 c 1,58,-1
 668 1313 l 1,48,49
764 365 m 0,59,60
 764 394 764 394 756 420.5 c 128,-1,61
 748 447 748 447 731 473.5 c 128,-1,62
 714 500 714 500 686 527.5 c 128,-1,63
 658 555 658 555 618 586 c 1,64,-1
 522 121 l 1,65,66
 587 126 587 126 632.5 148.5 c 128,-1,67
 678 171 678 171 707.5 204.5 c 128,-1,68
 737 238 737 238 750.5 279.5 c 128,-1,69
 764 321 764 321 764 365 c 0,59,60
EndSplineSet
EndChar

StartChar: percent
Encoding: 37 37 8
Width: 1686
GlyphClass: 2
Flags: W
LayerCount: 2
Fore
SplineSet
1591 428 m 0,0,1
 1591 344 1591 344 1563 263.5 c 128,-1,2
 1535 183 1535 183 1484.5 120 c 128,-1,3
 1434 57 1434 57 1362.5 18.5 c 128,-1,4
 1291 -20 1291 -20 1204 -20 c 256,5,6
 1117 -20 1117 -20 1060.5 9.5 c 128,-1,7
 1004 39 1004 39 971 83 c 128,-1,8
 938 127 938 127 925.5 179 c 128,-1,9
 913 231 913 231 913 276 c 0,10,11
 913 357 913 357 941 436.5 c 128,-1,12
 969 516 969 516 1020.5 579.5 c 128,-1,13
 1072 643 1072 643 1145 682 c 128,-1,14
 1218 721 1218 721 1309 721 c 0,15,16
 1373 721 1373 721 1425 701.5 c 128,-1,17
 1477 682 1477 682 1514 644.5 c 128,-1,18
 1551 607 1551 607 1571 552.5 c 128,-1,19
 1591 498 1591 498 1591 428 c 0,0,1
338 0 m 1,20,-1
 190 0 l 1,21,-1
 1419 1434 l 1,22,-1
 1567 1434 l 1,23,-1
 338 0 l 1,20,-1
848 1161 m 0,24,25
 848 1077 848 1077 820 996.5 c 128,-1,26
 792 916 792 916 741 853 c 128,-1,27
 690 790 690 790 619 751.5 c 128,-1,28
 548 713 548 713 461 713 c 0,29,30
 403 713 403 713 358.5 726.5 c 128,-1,31
 314 740 314 740 281.5 763.5 c 128,-1,32
 249 787 249 787 227.5 817 c 128,-1,33
 206 847 206 847 193.5 880 c 128,-1,34
 181 913 181 913 175.5 946.5 c 128,-1,35
 170 980 170 980 170 1010 c 0,36,37
 170 1064 170 1064 182.5 1117.5 c 128,-1,38
 195 1171 195 1171 219 1220.5 c 128,-1,39
 243 1270 243 1270 277.5 1312.5 c 128,-1,40
 312 1355 312 1355 355.5 1386.5 c 128,-1,41
 399 1418 399 1418 452 1436 c 128,-1,42
 505 1454 505 1454 565 1454 c 0,43,44
 629 1454 629 1454 681 1434.5 c 128,-1,45
 733 1415 733 1415 770 1377.5 c 128,-1,46
 807 1340 807 1340 827.5 1285.5 c 128,-1,47
 848 1231 848 1231 848 1161 c 0,24,25
1456 424 m 0,48,49
 1456 460 1456 460 1448 493.5 c 128,-1,50
 1440 527 1440 527 1422 553 c 128,-1,51
 1404 579 1404 579 1375 594.5 c 128,-1,52
 1346 610 1346 610 1305 610 c 0,53,54
 1244 610 1244 610 1196.5 578 c 128,-1,55
 1149 546 1149 546 1116 496.5 c 128,-1,56
 1083 447 1083 447 1066 388 c 128,-1,57
 1049 329 1049 329 1049 274 c 0,58,59
 1049 239 1049 239 1058 205.5 c 128,-1,60
 1067 172 1067 172 1086 146.5 c 128,-1,61
 1105 121 1105 121 1135 105.5 c 128,-1,62
 1165 90 1165 90 1208 90 c 0,63,64
 1264 90 1264 90 1309.5 118.5 c 128,-1,65
 1355 147 1355 147 1387.5 193.5 c 128,-1,66
 1420 240 1420 240 1438 300 c 128,-1,67
 1456 360 1456 360 1456 424 c 0,48,49
713 1157 m 0,68,69
 713 1193 713 1193 705 1226.5 c 128,-1,70
 697 1260 697 1260 679 1286 c 128,-1,71
 661 1312 661 1312 632 1327.5 c 128,-1,72
 603 1343 603 1343 561 1343 c 0,73,74
 500 1343 500 1343 452.5 1311 c 128,-1,75
 405 1279 405 1279 372 1230 c 128,-1,76
 339 1181 339 1181 322 1121.5 c 128,-1,77
 305 1062 305 1062 305 1008 c 0,78,79
 305 973 305 973 314 940 c 128,-1,80
 323 907 323 907 342 881 c 128,-1,81
 361 855 361 855 391.5 839 c 128,-1,82
 422 823 422 823 465 823 c 0,83,84
 520 823 520 823 565.5 851.5 c 128,-1,85
 611 880 611 880 644 926.5 c 128,-1,86
 677 973 677 973 695 1033 c 128,-1,87
 713 1093 713 1093 713 1157 c 0,68,69
EndSplineSet
EndChar

StartChar: ampersand
Encoding: 38 38 9
Width: 1576
GlyphClass: 2
Flags: W
LayerCount: 2
Fore
SplineSet
1336 -23 m 0,0,1
 1279 -23 1279 -23 1235 -6 c 128,-1,2
 1191 11 1191 11 1155 42 c 128,-1,3
 1119 73 1119 73 1089.5 116 c 128,-1,4
 1060 159 1060 159 1033 211 c 1,5,6
 983 166 983 166 924 123.5 c 128,-1,7
 865 81 865 81 796 48.5 c 128,-1,8
 727 16 727 16 647.5 -3.5 c 128,-1,9
 568 -23 568 -23 476 -23 c 0,10,11
 373 -23 373 -23 293.5 5.5 c 128,-1,12
 214 34 214 34 160 84 c 128,-1,13
 106 134 106 134 78.5 202 c 128,-1,14
 51 270 51 270 51 350 c 0,15,16
 51 442 51 442 83 516.5 c 128,-1,17
 115 591 115 591 173 650.5 c 128,-1,18
 231 710 231 710 311.5 757 c 128,-1,19
 392 804 392 804 489 841 c 1,20,21
 468 859 468 859 446.5 885.5 c 128,-1,22
 425 912 425 912 408 945 c 128,-1,23
 391 978 391 978 380 1016.5 c 128,-1,24
 369 1055 369 1055 369 1098 c 0,25,26
 369 1182 369 1182 402.5 1248.5 c 128,-1,27
 436 1315 436 1315 493 1361.5 c 128,-1,28
 550 1408 550 1408 625.5 1433 c 128,-1,29
 701 1458 701 1458 785 1458 c 0,30,31
 860 1458 860 1458 922 1437.5 c 128,-1,32
 984 1417 984 1417 1028.5 1381 c 128,-1,33
 1073 1345 1073 1345 1097.5 1296 c 128,-1,34
 1122 1247 1122 1247 1122 1189 c 0,35,36
 1122 1114 1122 1114 1098 1058.5 c 128,-1,37
 1074 1003 1074 1003 1028.5 960 c 128,-1,38
 983 917 983 917 918.5 883 c 128,-1,39
 854 849 854 849 773 817 c 1,40,41
 832 786 832 786 879.5 744.5 c 128,-1,42
 927 703 927 703 965.5 655 c 128,-1,43
 1004 607 1004 607 1035 554.5 c 128,-1,44
 1066 502 1066 502 1091 448 c 1,45,46
 1228 594 1228 594 1299 760.5 c 128,-1,47
 1370 927 1370 927 1378 1121 c 1,48,-1
 1537 1121 l 1,49,50
 1533 1002 1533 1002 1501 891 c 128,-1,51
 1469 780 1469 780 1416.5 678.5 c 128,-1,52
 1364 577 1364 577 1295 485.5 c 128,-1,53
 1226 394 1226 394 1149 314 c 1,54,55
 1173 266 1173 266 1195 231 c 128,-1,56
 1217 196 1217 196 1241 173.5 c 128,-1,57
 1265 151 1265 151 1294 140 c 128,-1,58
 1323 129 1323 129 1360 129 c 0,59,60
 1390 129 1390 129 1422 136 c 128,-1,61
 1454 143 1454 143 1491 157 c 1,62,-1
 1458 2 l 1,63,64
 1435 -9 1435 -9 1404.5 -16 c 128,-1,65
 1374 -23 1374 -23 1336 -23 c 0,0,1
484 119 m 0,66,67
 563 119 563 119 631.5 137 c 128,-1,68
 700 155 700 155 761 185.5 c 128,-1,69
 822 216 822 216 875.5 256.5 c 128,-1,70
 929 297 929 297 978 341 c 1,71,72
 942 426 942 426 905 489.5 c 128,-1,73
 868 553 868 553 825 602 c 128,-1,74
 782 651 782 651 730 688.5 c 128,-1,75
 678 726 678 726 612 757 c 1,76,77
 540 733 540 733 470 699.5 c 128,-1,78
 400 666 400 666 345 618.5 c 128,-1,79
 290 571 290 571 256.5 507.5 c 128,-1,80
 223 444 223 444 223 360 c 0,81,82
 223 304 223 304 241.5 259.5 c 128,-1,83
 260 215 260 215 294.5 183.5 c 128,-1,84
 329 152 329 152 377 135.5 c 128,-1,85
 425 119 425 119 484 119 c 0,66,67
963 1169 m 0,86,87
 963 1207 963 1207 948 1236 c 128,-1,88
 933 1265 933 1265 907.5 1285.5 c 128,-1,89
 882 1306 882 1306 848 1316.5 c 128,-1,90
 814 1327 814 1327 776 1327 c 0,91,92
 719 1327 719 1327 673 1310 c 128,-1,93
 627 1293 627 1293 595 1262.5 c 128,-1,94
 563 1232 563 1232 545.5 1190.5 c 128,-1,95
 528 1149 528 1149 528 1101 c 0,96,97
 528 1030 528 1030 562.5 976.5 c 128,-1,98
 597 923 597 923 648 894 c 1,99,100
 709 915 709 915 765.5 939.5 c 128,-1,101
 822 964 822 964 866 996.5 c 128,-1,102
 910 1029 910 1029 936.5 1071 c 128,-1,103
 963 1113 963 1113 963 1169 c 0,86,87
EndSplineSet
Substitution2: "SegoeUI-Italic-'smcp' Lowercase to Small Capitals lookup 27 subtable" ampersand.c2sc
Substitution2: "SegoeUI-Italic-'c2sc' Capitals to Small Capitals lookup 26 subtable" ampersand.c2sc
Substitution2: "SegoeUI-Italic-'ss20' Style Set 20 lookup 7 subtable" ampersand.ss20
EndChar

StartChar: quotesingle
Encoding: 39 39 10
Width: 463
GlyphClass: 2
Flags: W
LayerCount: 2
Fore
SplineSet
393 987 m 1,0,-1
 279 987 l 1,1,-1
 268 1434 l 1,2,-1
 403 1434 l 1,3,-1
 393 987 l 1,0,-1
EndSplineSet
EndChar

StartChar: parenleft
Encoding: 40 40 11
Width: 623
GlyphClass: 2
Flags: W
LayerCount: 2
Fore
SplineSet
813 1434 m 1,0,1
 689 1312 689 1312 589.5 1182 c 128,-1,2
 490 1052 490 1052 420 913 c 128,-1,3
 350 774 350 774 312 624.5 c 128,-1,4
 274 475 274 475 274 313 c 0,5,6
 274 233 274 233 284.5 151.5 c 128,-1,7
 295 70 295 70 316 -8.5 c 128,-1,8
 337 -87 337 -87 367 -161 c 128,-1,9
 397 -235 397 -235 436 -299 c 1,10,-1
 295 -299 l 1,11,12
 253 -233 253 -233 221.5 -158.5 c 128,-1,13
 190 -84 190 -84 169 -6 c 128,-1,14
 148 72 148 72 137.5 151 c 128,-1,15
 127 230 127 230 127 305 c 0,16,17
 127 478 127 478 164 631.5 c 128,-1,18
 201 785 201 785 269 924 c 128,-1,19
 337 1063 337 1063 434.5 1189.5 c 128,-1,20
 532 1316 532 1316 653 1434 c 1,21,-1
 813 1434 l 1,0,1
EndSplineSet
Position2: "SegoeUI-Italic-'case' Case-Sensitive Forms lookup 15 subtable" dx=30 dy=140 dh=0 dv=0
EndChar

StartChar: parenright
Encoding: 41 41 12
Width: 623
GlyphClass: 2
Flags: W
LayerCount: 2
Fore
SplineSet
504 829 m 0,0,1
 504 657 504 657 467 503 c 128,-1,2
 430 349 430 349 361.5 210.5 c 128,-1,3
 293 72 293 72 195.5 -54.5 c 128,-1,4
 98 -181 98 -181 -23 -299 c 1,5,-1
 -184 -299 l 1,6,7
 -60 -177 -60 -177 40 -47.5 c 128,-1,8
 140 82 140 82 210 221 c 128,-1,9
 280 360 280 360 318 509.5 c 128,-1,10
 356 659 356 659 356 821 c 0,11,12
 356 901 356 901 345.5 982 c 128,-1,13
 335 1063 335 1063 314.5 1142 c 128,-1,14
 294 1221 294 1221 264 1295 c 128,-1,15
 234 1369 234 1369 195 1434 c 1,16,-1
 334 1434 l 1,17,18
 376 1367 376 1367 408 1292 c 128,-1,19
 440 1217 440 1217 461 1139 c 128,-1,20
 482 1061 482 1061 493 982.5 c 128,-1,21
 504 904 504 904 504 829 c 0,0,1
EndSplineSet
Position2: "SegoeUI-Italic-'case' Case-Sensitive Forms lookup 15 subtable" dx=30 dy=140 dh=0 dv=0
EndChar

StartChar: asterisk
Encoding: 42 42 13
Width: 856
GlyphClass: 2
Flags: W
LayerCount: 2
Fore
SplineSet
600 1049 m 1,0,-1
 791 805 l 1,1,-1
 680 729 l 1,2,-1
 524 993 l 1,3,-1
 367 729 l 1,4,-1
 256 805 l 1,5,-1
 449 1049 l 1,6,-1
 172 1104 l 1,7,-1
 215 1229 l 1,8,-1
 477 1130 l 1,9,-1
 455 1434 l 1,10,-1
 592 1434 l 1,11,-1
 569 1130 l 1,12,-1
 831 1229 l 1,13,-1
 874 1104 l 1,14,-1
 600 1049 l 1,0,-1
EndSplineSet
EndChar

StartChar: plus
Encoding: 43 43 14
Width: 1403
GlyphClass: 2
Flags: W
LayerCount: 2
Fore
SplineSet
793 530 m 1,0,-1
 793 127 l 1,1,-1
 662 127 l 1,2,-1
 662 530 l 1,3,-1
 256 530 l 1,4,-1
 256 664 l 1,5,-1
 662 664 l 1,6,-1
 662 1067 l 1,7,-1
 793 1067 l 1,8,-1
 793 664 l 1,9,-1
 1196 664 l 1,10,-1
 1196 530 l 1,11,-1
 793 530 l 1,0,-1
EndSplineSet
EndChar

StartChar: comma
Encoding: 44 44 15
Width: 446
GlyphClass: 2
Flags: W
LayerCount: 2
Fore
SplineSet
51 -264 m 1,0,-1
 -78 -264 l 1,1,-1
 123 227 l 1,2,-1
 287 227 l 1,3,-1
 51 -264 l 1,0,-1
EndSplineSet
Substitution2: "SegoeUI-Italic-'ss19' Style Set 19 lookup 8 subtable" comma.ss19
EndChar

StartChar: hyphen
Encoding: 45 45 16
AltUni2: 002010.ffffffff.0 002010.ffffffff.0
Width: 819
GlyphClass: 2
Flags: W
LayerCount: 2
Fore
SplineSet
678 506 m 1,0,-1
 131 506 l 1,1,-1
 160 635 l 1,2,-1
 707 635 l 1,3,-1
 678 506 l 1,0,-1
EndSplineSet
Position2: "SegoeUI-Italic-'case' Case-Sensitive Forms lookup 15 subtable" dx=23 dy=110 dh=0 dv=0
EndChar

StartChar: period
Encoding: 46 46 17
Width: 446
GlyphClass: 2
Flags: W
LayerCount: 2
Fore
SplineSet
244 88 m 256,0,1
 244 65 244 65 235.5 45 c 128,-1,2
 227 25 227 25 212 10 c 128,-1,3
 197 -5 197 -5 176.5 -14 c 128,-1,4
 156 -23 156 -23 133 -23 c 256,5,6
 110 -23 110 -23 90 -14 c 128,-1,7
 70 -5 70 -5 55 10 c 128,-1,8
 40 25 40 25 31.5 45 c 128,-1,9
 23 65 23 65 23 88 c 256,10,11
 23 111 23 111 31.5 131.5 c 128,-1,12
 40 152 40 152 55 167 c 128,-1,13
 70 182 70 182 90 190.5 c 128,-1,14
 110 199 110 199 133 199 c 256,15,16
 156 199 156 199 176.5 190.5 c 128,-1,17
 197 182 197 182 212 167 c 128,-1,18
 227 152 227 152 235.5 131.5 c 128,-1,19
 244 111 244 111 244 88 c 256,0,1
EndSplineSet
EndChar

StartChar: slash
Encoding: 47 47 18
Width: 811
GlyphClass: 2
Flags: W
LayerCount: 2
Fore
SplineSet
4 -238 m 1,0,-1
 -164 -238 l 1,1,-1
 877 1434 l 1,2,-1
 1044 1434 l 1,3,-1
 4 -238 l 1,0,-1
EndSplineSet
Substitution2: "SegoeUI-Italic-'frac' Diagonal Fractions lookup 11 subtable" fraction
EndChar

StartChar: zero
Encoding: 48 48 19
Width: 1104
GlyphClass: 2
Flags: W
LayerCount: 2
Fore
SplineSet
1098 1034 m 0,0,1
 1098 959 1098 959 1091 877.5 c 128,-1,2
 1084 796 1084 796 1069 713 c 128,-1,3
 1054 630 1054 630 1030.5 548.5 c 128,-1,4
 1007 467 1007 467 974 391 c 128,-1,5
 941 315 941 315 898.5 247.5 c 128,-1,6
 856 180 856 180 803 125 c 0,7,8
 659 -25 659 -25 457 -25 c 0,9,10
 376 -25 376 -25 308.5 6.5 c 128,-1,11
 241 38 241 38 193 98.5 c 128,-1,12
 145 159 145 159 118.5 247.5 c 128,-1,13
 92 336 92 336 92 451 c 0,14,15
 92 562 92 562 110 680.5 c 128,-1,16
 128 799 128 799 165 911.5 c 128,-1,17
 202 1024 202 1024 257 1124 c 128,-1,18
 312 1224 312 1224 387 1300 c 0,19,20
 458 1375 458 1375 546 1416.5 c 128,-1,21
 634 1458 634 1458 745 1458 c 0,22,23
 825 1458 825 1458 890 1431 c 128,-1,24
 955 1404 955 1404 1001.5 1350.5 c 128,-1,25
 1048 1297 1048 1297 1073 1218 c 128,-1,26
 1098 1139 1098 1139 1098 1034 c 0,0,1
932 1020 m 0,27,28
 932 1160 932 1160 880 1239.5 c 128,-1,29
 828 1319 828 1319 729 1319 c 0,30,31
 670 1319 670 1319 618 1293.5 c 128,-1,32
 566 1268 566 1268 516 1217 c 0,33,34
 477 1176 477 1176 442.5 1119.5 c 128,-1,35
 408 1063 408 1063 379.5 997.5 c 128,-1,36
 351 932 351 932 329 860 c 128,-1,37
 307 788 307 788 291.5 716 c 128,-1,38
 276 644 276 644 268 575 c 128,-1,39
 260 506 260 506 260 446 c 0,40,41
 260 359 260 359 276.5 296.5 c 128,-1,42
 293 234 293 234 322 193.5 c 128,-1,43
 351 153 351 153 390.5 134 c 128,-1,44
 430 115 430 115 475 115 c 0,45,46
 529 115 529 115 581 139 c 128,-1,47
 633 163 633 163 678 211 c 0,48,49
 731 268 731 268 777 358.5 c 128,-1,50
 823 449 823 449 857.5 558 c 128,-1,51
 892 667 892 667 912 786.5 c 128,-1,52
 932 906 932 906 932 1020 c 0,27,28
EndSplineSet
Substitution2: "SegoeUI-Italic-Single Substitution lookup 31 subtable" glyph2816
Substitution2: "SegoeUI-Italic-'pnum' Proportional Numbers lookup 16 subtable" zero.ss20
Substitution2: "SegoeUI-Italic-'onum' Oldstyle Figures lookup 14 subtable" zero.oldstyle
Substitution2: "SegoeUI-Italic-'frac' Diagonal Fractions lookup 13 subtable" zero.frac
Substitution2: "SegoeUI-Italic-'ss20' Style Set 20 lookup 6 subtable" zero.ss20
Substitution2: "SegoeUI-Italic-'sups' Superscript lookup 3 subtable" uni2070
Substitution2: "SegoeUI-Italic-'subs' Subscript lookup 2 subtable" uni2080
EndChar

StartChar: one
Encoding: 49 49 20
Width: 1104
GlyphClass: 2
Flags: W
LayerCount: 2
Fore
SplineSet
460 0 m 1,0,-1
 727 1249 l 1,1,-1
 373 1153 l 1,2,-1
 408 1311 l 1,3,-1
 934 1458 l 1,4,-1
 626 0 l 1,5,-1
 460 0 l 1,0,-1
EndSplineSet
Substitution2: "SegoeUI-Italic-Single Substitution lookup 31 subtable" glyph2817
Substitution2: "SegoeUI-Italic-'pnum' Proportional Numbers lookup 16 subtable" one.ss20
Substitution2: "SegoeUI-Italic-'onum' Oldstyle Figures lookup 14 subtable" one.oldstyle
Substitution2: "SegoeUI-Italic-'frac' Diagonal Fractions lookup 13 subtable" one.frac
Substitution2: "SegoeUI-Italic-'ss20' Style Set 20 lookup 6 subtable" one.ss20
Substitution2: "SegoeUI-Italic-'sups' Superscript lookup 3 subtable" uni00B9
Substitution2: "SegoeUI-Italic-'subs' Subscript lookup 2 subtable" uni2081
EndChar

StartChar: two
Encoding: 50 50 21
Width: 1104
GlyphClass: 2
Flags: W
LayerCount: 2
Fore
SplineSet
905 1116 m 0,0,1
 905 1212 905 1212 847.5 1265.5 c 128,-1,2
 790 1319 790 1319 688 1319 c 0,3,4
 591 1319 591 1319 493 1278 c 128,-1,5
 395 1237 395 1237 310 1159 c 1,6,-1
 351 1343 l 1,7,8
 437 1408 437 1408 524.5 1433 c 128,-1,9
 612 1458 612 1458 728 1458 c 0,10,11
 888 1458 888 1458 983 1373.5 c 128,-1,12
 1078 1289 1078 1289 1078 1146 c 0,13,14
 1078 1024 1078 1024 1036.5 931.5 c 128,-1,15
 995 839 995 839 904 753 c 128,-1,16
 813 667 813 667 638 557 c 0,17,18
 479 458 479 458 396.5 394 c 128,-1,19
 314 330 314 330 274 276 c 128,-1,20
 234 222 234 222 217 147 c 1,21,-1
 925 147 l 1,22,-1
 894 0 l 1,23,-1
 9 0 l 1,24,-1
 24 71 l 2,25,26
 50 192 50 192 101.5 279 c 128,-1,27
 153 366 153 366 246 448 c 128,-1,28
 339 530 339 530 533 654 c 0,29,30
 674 743 674 743 753.5 814 c 128,-1,31
 833 885 833 885 869 953 c 128,-1,32
 905 1021 905 1021 905 1116 c 0,0,1
EndSplineSet
Substitution2: "SegoeUI-Italic-Single Substitution lookup 31 subtable" glyph2818
Substitution2: "SegoeUI-Italic-'pnum' Proportional Numbers lookup 16 subtable" two.ss20
Substitution2: "SegoeUI-Italic-'onum' Oldstyle Figures lookup 14 subtable" two.oldstyle
Substitution2: "SegoeUI-Italic-'frac' Diagonal Fractions lookup 13 subtable" two.frac
Substitution2: "SegoeUI-Italic-'ss20' Style Set 20 lookup 6 subtable" two.ss20
Substitution2: "SegoeUI-Italic-'sups' Superscript lookup 3 subtable" uni00B2
Substitution2: "SegoeUI-Italic-'subs' Subscript lookup 2 subtable" uni2082
EndChar

StartChar: three
Encoding: 51 51 22
Width: 1104
GlyphClass: 2
Flags: W
LayerCount: 2
Fore
SplineSet
1051 1137 m 0,0,1
 1051 1065 1051 1065 1029 1000.5 c 128,-1,2
 1007 936 1007 936 960 884 c 128,-1,3
 913 832 913 832 840 794.5 c 128,-1,4
 767 757 767 757 666 739 c 1,5,-1
 666 735 l 1,6,7
 726 726 726 726 776 699 c 128,-1,8
 826 672 826 672 861.5 631 c 128,-1,9
 897 590 897 590 916.5 537 c 128,-1,10
 936 484 936 484 936 422 c 0,11,12
 936 331 936 331 903 250 c 128,-1,13
 870 169 870 169 802.5 108 c 128,-1,14
 735 47 735 47 633.5 11 c 128,-1,15
 532 -25 532 -25 395 -25 c 0,16,17
 340 -25 340 -25 287 -17.5 c 128,-1,18
 234 -10 234 -10 187.5 1.5 c 128,-1,19
 141 13 141 13 102 27.5 c 128,-1,20
 63 42 63 42 35 57 c 1,21,-1
 70 213 l 1,22,23
 97 195 97 195 134.5 177 c 128,-1,24
 172 159 172 159 215.5 145.5 c 128,-1,25
 259 132 259 132 306.5 123.5 c 128,-1,26
 354 115 354 115 401 115 c 0,27,28
 506 115 506 115 577 140.5 c 128,-1,29
 648 166 648 166 691 207.5 c 128,-1,30
 734 249 734 249 752 302.5 c 128,-1,31
 770 356 770 356 770 412 c 0,32,33
 770 531 770 531 682 600.5 c 128,-1,34
 594 670 594 670 416 670 c 2,35,-1
 307 670 l 1,36,-1
 338 811 l 1,37,-1
 457 811 l 2,38,39
 561 811 561 811 640.5 832 c 128,-1,40
 720 853 720 853 774 891.5 c 128,-1,41
 828 930 828 930 855.5 985 c 128,-1,42
 883 1040 883 1040 883 1108 c 0,43,44
 883 1151 883 1151 869 1189.5 c 128,-1,45
 855 1228 855 1228 825.5 1256.5 c 128,-1,46
 796 1285 796 1285 751.5 1302 c 128,-1,47
 707 1319 707 1319 645 1319 c 0,48,49
 594 1319 594 1319 547.5 1311.5 c 128,-1,50
 501 1304 501 1304 460 1292 c 128,-1,51
 419 1280 419 1280 384 1265 c 128,-1,52
 349 1250 349 1250 322 1235 c 1,53,-1
 356 1399 l 1,54,55
 382 1409 382 1409 414 1419.5 c 128,-1,56
 446 1430 446 1430 485 1438.5 c 128,-1,57
 524 1447 524 1447 571 1452.5 c 128,-1,58
 618 1458 618 1458 674 1458 c 0,59,60
 775 1458 775 1458 846 1430 c 128,-1,61
 917 1402 917 1402 963 1356.5 c 128,-1,62
 1009 1311 1009 1311 1030 1253.5 c 128,-1,63
 1051 1196 1051 1196 1051 1137 c 0,0,1
EndSplineSet
Substitution2: "SegoeUI-Italic-Single Substitution lookup 31 subtable" glyph2819
Substitution2: "SegoeUI-Italic-'pnum' Proportional Numbers lookup 16 subtable" three.ss20
Substitution2: "SegoeUI-Italic-'onum' Oldstyle Figures lookup 14 subtable" three.oldstyle
Substitution2: "SegoeUI-Italic-'frac' Diagonal Fractions lookup 13 subtable" three.frac
Substitution2: "SegoeUI-Italic-'ss20' Style Set 20 lookup 6 subtable" three.ss20
Substitution2: "SegoeUI-Italic-'sups' Superscript lookup 3 subtable" uni00B3
Substitution2: "SegoeUI-Italic-'subs' Subscript lookup 2 subtable" uni2083
EndChar

StartChar: four
Encoding: 52 52 23
Width: 1104
GlyphClass: 2
Flags: W
LayerCount: 2
Fore
SplineSet
1054 1434 m 1,0,-1
 853 487 l 1,1,-1
 1041 487 l 1,2,-1
 1009 337 l 1,3,-1
 821 337 l 1,4,-1
 749 0 l 1,5,-1
 587 0 l 1,6,-1
 659 337 l 1,7,-1
 -14 337 l 1,8,-1
 16 479 l 1,9,10
 233 676 233 676 461 930 c 128,-1,11
 689 1184 689 1184 873 1434 c 1,12,-1
 1054 1434 l 1,0,-1
691 487 m 1,13,-1
 837 1174 l 1,14,15
 572 839 572 839 211 487 c 1,16,-1
 691 487 l 1,13,-1
EndSplineSet
Substitution2: "SegoeUI-Italic-Single Substitution lookup 31 subtable" glyph2820
Substitution2: "SegoeUI-Italic-'pnum' Proportional Numbers lookup 16 subtable" four.ss20
Substitution2: "SegoeUI-Italic-'onum' Oldstyle Figures lookup 14 subtable" four.oldstyle
Substitution2: "SegoeUI-Italic-'frac' Diagonal Fractions lookup 13 subtable" four.frac
Substitution2: "SegoeUI-Italic-'ss20' Style Set 20 lookup 6 subtable" four.ss20
Substitution2: "SegoeUI-Italic-'sups' Superscript lookup 3 subtable" uni2074
Substitution2: "SegoeUI-Italic-'subs' Subscript lookup 2 subtable" uni2084
EndChar

StartChar: five
Encoding: 53 53 24
Width: 1104
GlyphClass: 2
Flags: W
LayerCount: 2
Fore
SplineSet
1053 1284 m 1,0,-1
 514 1284 l 1,1,-1
 426 866 l 1,2,-1
 532 870 l 1,3,4
 732 870 732 870 844 771.5 c 128,-1,5
 956 673 956 673 956 494 c 0,6,7
 956 343 956 343 883 221 c 128,-1,8
 810 99 810 99 680.5 37 c 128,-1,9
 551 -25 551 -25 379 -25 c 0,10,11
 291 -25 291 -25 201.5 -10 c 128,-1,12
 112 5 112 5 61 29 c 1,13,-1
 98 190 l 1,14,15
 148 157 148 157 230 136 c 128,-1,16
 312 115 312 115 391 115 c 0,17,18
 517 115 517 115 605 160.5 c 128,-1,19
 693 206 693 206 740.5 285.5 c 128,-1,20
 788 365 788 365 788 465 c 0,21,22
 788 594 788 594 716 660.5 c 128,-1,23
 644 727 644 727 487 727 c 0,24,25
 348 727 348 727 238 717 c 1,26,-1
 389 1434 l 1,27,-1
 1083 1434 l 1,28,-1
 1053 1284 l 1,0,-1
EndSplineSet
Substitution2: "SegoeUI-Italic-Single Substitution lookup 31 subtable" glyph2821
Substitution2: "SegoeUI-Italic-'pnum' Proportional Numbers lookup 16 subtable" five.ss20
Substitution2: "SegoeUI-Italic-'onum' Oldstyle Figures lookup 14 subtable" five.oldstyle
Substitution2: "SegoeUI-Italic-'frac' Diagonal Fractions lookup 13 subtable" five.frac
Substitution2: "SegoeUI-Italic-'ss20' Style Set 20 lookup 6 subtable" five.ss20
Substitution2: "SegoeUI-Italic-'sups' Superscript lookup 3 subtable" uni2075
Substitution2: "SegoeUI-Italic-'subs' Subscript lookup 2 subtable" uni2085
EndChar

StartChar: six
Encoding: 54 54 25
Width: 1104
GlyphClass: 2
Flags: W
LayerCount: 2
Fore
SplineSet
1081 1262 m 1,0,1
 1039 1286 1039 1286 980 1302.5 c 128,-1,2
 921 1319 921 1319 852 1319 c 0,3,4
 771 1319 771 1319 698 1290 c 128,-1,5
 625 1261 625 1261 563 1208 c 0,6,7
 512 1166 512 1166 469 1107.5 c 128,-1,8
 426 1049 426 1049 391.5 981 c 128,-1,9
 357 913 357 913 332 839.5 c 128,-1,10
 307 766 307 766 293 694 c 1,11,-1
 297 694 l 1,12,13
 323 737 323 737 360 774 c 128,-1,14
 397 811 397 811 442.5 838.5 c 128,-1,15
 488 866 488 866 541.5 881.5 c 128,-1,16
 595 897 595 897 653 897 c 0,17,18
 742 897 742 897 809 869 c 128,-1,19
 876 841 876 841 921 790 c 128,-1,20
 966 739 966 739 989 668 c 128,-1,21
 1012 597 1012 597 1012 510 c 0,22,23
 1012 410 1012 410 980.5 314 c 128,-1,24
 949 218 949 218 887.5 142.5 c 128,-1,25
 826 67 826 67 736 21 c 128,-1,26
 646 -25 646 -25 530 -25 c 0,27,28
 438 -25 438 -25 362 6 c 128,-1,29
 286 37 286 37 231.5 100 c 128,-1,30
 177 163 177 163 147 258 c 128,-1,31
 117 353 117 353 117 481 c 0,32,33
 117 610 117 610 141.5 732.5 c 128,-1,34
 166 855 166 855 211.5 963.5 c 128,-1,35
 257 1072 257 1072 321.5 1162.5 c 128,-1,36
 386 1253 386 1253 467 1317 c 0,37,38
 558 1389 558 1389 662.5 1423.5 c 128,-1,39
 767 1458 767 1458 872 1458 c 0,40,41
 950 1458 950 1458 1013.5 1444.5 c 128,-1,42
 1077 1431 1077 1431 1114 1417 c 1,43,-1
 1081 1262 l 1,0,1
844 496 m 0,44,45
 844 551 844 551 829.5 598.5 c 128,-1,46
 815 646 815 646 785 681 c 128,-1,47
 755 716 755 716 708 736 c 128,-1,48
 661 756 661 756 596 756 c 0,49,50
 519 756 519 756 461 727 c 128,-1,51
 403 698 403 698 364 651 c 128,-1,52
 325 604 325 604 305 545 c 128,-1,53
 285 486 285 486 285 426 c 0,54,55
 285 355 285 355 303 297.5 c 128,-1,56
 321 240 321 240 354 199.5 c 128,-1,57
 387 159 387 159 434.5 137 c 128,-1,58
 482 115 482 115 541 115 c 0,59,60
 613 115 613 115 669.5 147.5 c 128,-1,61
 726 180 726 180 764.5 233 c 128,-1,62
 803 286 803 286 823.5 355 c 128,-1,63
 844 424 844 424 844 496 c 0,44,45
EndSplineSet
Substitution2: "SegoeUI-Italic-Single Substitution lookup 31 subtable" glyph2822
Substitution2: "SegoeUI-Italic-'pnum' Proportional Numbers lookup 16 subtable" six.ss20
Substitution2: "SegoeUI-Italic-'onum' Oldstyle Figures lookup 14 subtable" six.oldstyle
Substitution2: "SegoeUI-Italic-'frac' Diagonal Fractions lookup 13 subtable" six.frac
Substitution2: "SegoeUI-Italic-'ss20' Style Set 20 lookup 6 subtable" six.ss20
Substitution2: "SegoeUI-Italic-'sups' Superscript lookup 3 subtable" uni2076
Substitution2: "SegoeUI-Italic-'subs' Subscript lookup 2 subtable" uni2086
EndChar

StartChar: seven
Encoding: 55 55 26
Width: 1104
GlyphClass: 2
Flags: W
LayerCount: 2
Fore
SplineSet
391 0 m 1,0,-1
 205 0 l 1,1,2
 299 267 299 267 507.5 610 c 128,-1,3
 716 953 716 953 980 1286 c 1,4,-1
 271 1286 l 1,5,-1
 303 1434 l 1,6,-1
 1215 1434 l 1,7,-1
 1195 1339 l 1,8,9
 887 947 887 947 682.5 604.5 c 128,-1,10
 478 262 478 262 391 0 c 1,0,-1
EndSplineSet
Substitution2: "SegoeUI-Italic-Single Substitution lookup 31 subtable" glyph2823
Substitution2: "SegoeUI-Italic-'pnum' Proportional Numbers lookup 16 subtable" seven.ss20
Substitution2: "SegoeUI-Italic-'onum' Oldstyle Figures lookup 14 subtable" seven.oldstyle
Substitution2: "SegoeUI-Italic-'frac' Diagonal Fractions lookup 13 subtable" seven.frac
Substitution2: "SegoeUI-Italic-'ss20' Style Set 20 lookup 6 subtable" seven.ss20
Substitution2: "SegoeUI-Italic-'sups' Superscript lookup 3 subtable" uni2077
Substitution2: "SegoeUI-Italic-'subs' Subscript lookup 2 subtable" uni2087
EndChar

StartChar: eight
Encoding: 56 56 27
Width: 1104
GlyphClass: 2
Flags: W
LayerCount: 2
Fore
SplineSet
65 345 m 0,0,1
 65 499 65 499 166 619.5 c 128,-1,2
 267 740 267 740 430 778 c 1,3,4
 363 821 363 821 320 892 c 128,-1,5
 277 963 277 963 277 1057 c 0,6,7
 277 1169 277 1169 336 1262 c 128,-1,8
 395 1355 395 1355 501.5 1406.5 c 128,-1,9
 608 1458 608 1458 745 1458 c 0,10,11
 904 1458 904 1458 1001 1372 c 128,-1,12
 1098 1286 1098 1286 1098 1145 c 0,13,14
 1098 1016 1098 1016 1027 920.5 c 128,-1,15
 956 825 956 825 822 778 c 1,16,17
 909 741 909 741 961 656 c 128,-1,18
 1013 571 1013 571 1013 465 c 0,19,20
 1013 331 1013 331 943 218 c 128,-1,21
 873 105 873 105 750 41 c 128,-1,22
 627 -23 627 -23 482 -23 c 0,23,24
 284 -23 284 -23 174.5 70.5 c 128,-1,25
 65 164 65 164 65 345 c 0,0,1
247 351 m 0,26,27
 247 246 247 246 311 184 c 128,-1,28
 375 122 375 122 497 122 c 0,29,30
 586 122 586 122 665.5 167 c 128,-1,31
 745 212 745 212 792.5 293 c 128,-1,32
 840 374 840 374 840 469 c 0,33,34
 840 574 840 574 775.5 639.5 c 128,-1,35
 711 705 711 705 606 705 c 0,36,37
 512 705 512 705 428 657.5 c 128,-1,38
 344 610 344 610 295.5 528.5 c 128,-1,39
 247 447 247 447 247 351 c 0,26,27
443 1036 m 0,40,41
 443 949 443 949 498.5 894 c 128,-1,42
 554 839 554 839 643 839 c 0,43,44
 711 839 711 839 778.5 876.5 c 128,-1,45
 846 914 846 914 887.5 979.5 c 128,-1,46
 929 1045 929 1045 929 1124 c 0,47,48
 929 1211 929 1211 874 1265.5 c 128,-1,49
 819 1320 819 1320 725 1320 c 0,50,51
 607 1320 607 1320 525 1238 c 128,-1,52
 443 1156 443 1156 443 1036 c 0,40,41
EndSplineSet
Substitution2: "SegoeUI-Italic-Single Substitution lookup 31 subtable" glyph2824
Substitution2: "SegoeUI-Italic-'pnum' Proportional Numbers lookup 16 subtable" eight.ss20
Substitution2: "SegoeUI-Italic-'onum' Oldstyle Figures lookup 14 subtable" eight.oldstyle
Substitution2: "SegoeUI-Italic-'frac' Diagonal Fractions lookup 13 subtable" eight.frac
Substitution2: "SegoeUI-Italic-'ss20' Style Set 20 lookup 6 subtable" eight.ss20
Substitution2: "SegoeUI-Italic-'sups' Superscript lookup 3 subtable" uni2078
Substitution2: "SegoeUI-Italic-'subs' Subscript lookup 2 subtable" uni2088
EndChar

StartChar: nine
Encoding: 57 57 28
Width: 1104
GlyphClass: 2
Flags: W
LayerCount: 2
Fore
SplineSet
1071 961 m 0,0,1
 1071 843 1071 843 1049 720.5 c 128,-1,2
 1027 598 1027 598 982 484.5 c 128,-1,3
 937 371 937 371 869.5 273 c 128,-1,4
 802 175 802 175 711 106 c 0,5,6
 621 38 621 38 521 6.5 c 128,-1,7
 421 -25 421 -25 309 -25 c 0,8,9
 231 -25 231 -25 168.5 -13 c 128,-1,10
 106 -1 106 -1 74 16 c 1,11,-1
 96 172 l 1,12,13
 131 152 131 152 186.5 133.5 c 128,-1,14
 242 115 242 115 317 115 c 0,15,16
 401 115 401 115 479 142.5 c 128,-1,17
 557 170 557 170 618 219 c 0,18,19
 668 257 668 257 711 310 c 128,-1,20
 754 363 754 363 789.5 428 c 128,-1,21
 825 493 825 493 852 569 c 128,-1,22
 879 645 879 645 895 729 c 1,23,-1
 891 729 l 1,24,25
 863 684 863 684 826 646 c 128,-1,26
 789 608 789 608 745 581 c 128,-1,27
 701 554 701 554 650 539 c 128,-1,28
 599 524 599 524 543 524 c 0,29,30
 438 524 438 524 366.5 562 c 128,-1,31
 295 600 295 600 251.5 658.5 c 128,-1,32
 208 717 208 717 189 788 c 128,-1,33
 170 859 170 859 170 924 c 0,34,35
 170 984 170 984 182.5 1046.5 c 128,-1,36
 195 1109 195 1109 221.5 1168.5 c 128,-1,37
 248 1228 248 1228 288 1280.5 c 128,-1,38
 328 1333 328 1333 382.5 1372.5 c 128,-1,39
 437 1412 437 1412 507.5 1435 c 128,-1,40
 578 1458 578 1458 664 1458 c 0,41,42
 767 1458 767 1458 843.5 1420.5 c 128,-1,43
 920 1383 920 1383 970.5 1316 c 128,-1,44
 1021 1249 1021 1249 1046 1158.5 c 128,-1,45
 1071 1068 1071 1068 1071 961 c 0,0,1
903 1004 m 0,46,47
 903 1075 903 1075 885 1133 c 128,-1,48
 867 1191 867 1191 834 1232 c 128,-1,49
 801 1273 801 1273 755 1296 c 128,-1,50
 709 1319 709 1319 653 1319 c 0,51,52
 578 1319 578 1319 519.5 1287 c 128,-1,53
 461 1255 461 1255 420.5 1202.5 c 128,-1,54
 380 1150 380 1150 359 1081.5 c 128,-1,55
 338 1013 338 1013 338 940 c 0,56,57
 338 890 338 890 351 840.5 c 128,-1,58
 364 791 364 791 393 752 c 128,-1,59
 422 713 422 713 468.5 688.5 c 128,-1,60
 515 664 515 664 582 664 c 0,61,62
 666 664 666 664 727 695 c 128,-1,63
 788 726 788 726 827 775.5 c 128,-1,64
 866 825 866 825 884.5 885.5 c 128,-1,65
 903 946 903 946 903 1004 c 0,46,47
EndSplineSet
Substitution2: "SegoeUI-Italic-Single Substitution lookup 31 subtable" glyph2825
Substitution2: "SegoeUI-Italic-'pnum' Proportional Numbers lookup 16 subtable" nine.ss20
Substitution2: "SegoeUI-Italic-'onum' Oldstyle Figures lookup 14 subtable" nine.oldstyle
Substitution2: "SegoeUI-Italic-'frac' Diagonal Fractions lookup 13 subtable" nine.frac
Substitution2: "SegoeUI-Italic-'ss20' Style Set 20 lookup 6 subtable" nine.ss20
Substitution2: "SegoeUI-Italic-'sups' Superscript lookup 3 subtable" uni2079
Substitution2: "SegoeUI-Italic-'subs' Subscript lookup 2 subtable" uni2089
EndChar

StartChar: colon
Encoding: 58 58 29
Width: 446
GlyphClass: 2
Flags: W
LayerCount: 2
Fore
SplineSet
422 936 m 0,0,1
 422 913 422 913 413 892.5 c 128,-1,2
 404 872 404 872 389 857 c 128,-1,3
 374 842 374 842 354 833.5 c 128,-1,4
 334 825 334 825 311 825 c 256,5,6
 288 825 288 825 268 833.5 c 128,-1,7
 248 842 248 842 233 857 c 128,-1,8
 218 872 218 872 209.5 892.5 c 128,-1,9
 201 913 201 913 201 936 c 0,10,11
 201 958 201 958 209.5 978 c 128,-1,12
 218 998 218 998 233 1013.5 c 128,-1,13
 248 1029 248 1029 268 1038 c 128,-1,14
 288 1047 288 1047 311 1047 c 256,15,16
 334 1047 334 1047 354.5 1038 c 128,-1,17
 375 1029 375 1029 390 1013.5 c 128,-1,18
 405 998 405 998 413.5 978 c 128,-1,19
 422 958 422 958 422 936 c 0,0,1
244 88 m 256,20,21
 244 65 244 65 235.5 45 c 128,-1,22
 227 25 227 25 212 10 c 128,-1,23
 197 -5 197 -5 176.5 -14 c 128,-1,24
 156 -23 156 -23 133 -23 c 256,25,26
 110 -23 110 -23 90 -14 c 128,-1,27
 70 -5 70 -5 55 10 c 128,-1,28
 40 25 40 25 31.5 45 c 128,-1,29
 23 65 23 65 23 88 c 256,30,31
 23 111 23 111 31.5 131.5 c 128,-1,32
 40 152 40 152 55 167 c 128,-1,33
 70 182 70 182 90 190.5 c 128,-1,34
 110 199 110 199 133 199 c 256,35,36
 156 199 156 199 176.5 190.5 c 128,-1,37
 197 182 197 182 212 167 c 128,-1,38
 227 152 227 152 235.5 131.5 c 128,-1,39
 244 111 244 111 244 88 c 256,20,21
EndSplineSet
EndChar

StartChar: semicolon
Encoding: 59 59 30
Width: 446
GlyphClass: 2
Flags: W
LayerCount: 2
Fore
SplineSet
422 936 m 0,0,1
 422 913 422 913 413 892.5 c 128,-1,2
 404 872 404 872 389 857 c 128,-1,3
 374 842 374 842 354 833.5 c 128,-1,4
 334 825 334 825 311 825 c 256,5,6
 288 825 288 825 268 833.5 c 128,-1,7
 248 842 248 842 233 857 c 128,-1,8
 218 872 218 872 209.5 892.5 c 128,-1,9
 201 913 201 913 201 936 c 0,10,11
 201 958 201 958 209.5 978 c 128,-1,12
 218 998 218 998 233 1013.5 c 128,-1,13
 248 1029 248 1029 268 1038 c 128,-1,14
 288 1047 288 1047 311 1047 c 256,15,16
 334 1047 334 1047 354.5 1038 c 128,-1,17
 375 1029 375 1029 390 1013.5 c 128,-1,18
 405 998 405 998 413.5 978 c 128,-1,19
 422 958 422 958 422 936 c 0,0,1
27 -264 m 1,20,-1
 -102 -264 l 1,21,-1
 100 227 l 1,22,-1
 264 227 l 1,23,-1
 27 -264 l 1,20,-1
EndSplineSet
Substitution2: "SegoeUI-Italic-'ss19' Style Set 19 lookup 8 subtable" semicolon.ss19
EndChar

StartChar: less
Encoding: 60 60 31
Width: 1403
GlyphClass: 2
Flags: W
LayerCount: 2
Fore
SplineSet
238 559 m 1,0,-1
 238 618 l 1,1,-1
 1098 1100 l 1,2,-1
 1098 950 l 1,3,-1
 455 594 l 1,4,-1
 455 590 l 1,5,-1
 1098 276 l 1,6,-1
 1098 127 l 1,7,-1
 238 559 l 1,0,-1
EndSplineSet
EndChar

StartChar: equal
Encoding: 61 61 32
Width: 1403
GlyphClass: 2
Flags: W
LayerCount: 2
Fore
SplineSet
256 743 m 1,0,-1
 256 877 l 1,1,-1
 1196 877 l 1,2,-1
 1196 743 l 1,3,-1
 256 743 l 1,0,-1
256 317 m 1,4,-1
 256 451 l 1,5,-1
 1196 451 l 1,6,-1
 1196 317 l 1,7,-1
 256 317 l 1,4,-1
EndSplineSet
EndChar

StartChar: greater
Encoding: 62 62 33
Width: 1403
GlyphClass: 2
Flags: W
LayerCount: 2
Fore
SplineSet
330 127 m 1,0,-1
 330 276 l 1,1,-1
 973 588 l 1,2,-1
 973 594 l 1,3,-1
 330 948 l 1,4,-1
 330 1100 l 1,5,-1
 1188 618 l 1,6,-1
 1188 559 l 1,7,-1
 330 127 l 1,0,-1
EndSplineSet
EndChar

StartChar: question
Encoding: 63 63 34
Width: 881
GlyphClass: 2
Flags: W
LayerCount: 2
Fore
SplineSet
922 1145 m 256,0,1
 922 1083 922 1083 906.5 1029 c 128,-1,2
 891 975 891 975 858 925.5 c 128,-1,3
 825 876 825 876 774.5 828.5 c 128,-1,4
 724 781 724 781 655 733 c 0,5,6
 602 696 602 696 565.5 662.5 c 128,-1,7
 529 629 529 629 503.5 591.5 c 128,-1,8
 478 554 478 554 461 508.5 c 128,-1,9
 444 463 444 463 432 403 c 1,10,-1
 281 403 l 1,11,12
 295 475 295 475 313.5 533 c 128,-1,13
 332 591 332 591 360.5 639.5 c 128,-1,14
 389 688 389 688 430.5 729.5 c 128,-1,15
 472 771 472 771 532 811 c 0,16,17
 595 853 595 853 639 891.5 c 128,-1,18
 683 930 683 930 711 968.5 c 128,-1,19
 739 1007 739 1007 751.5 1046 c 128,-1,20
 764 1085 764 1085 764 1128 c 0,21,22
 764 1165 764 1165 751 1200.5 c 128,-1,23
 738 1236 738 1236 711 1263.5 c 128,-1,24
 684 1291 684 1291 643.5 1308 c 128,-1,25
 603 1325 603 1325 549 1325 c 0,26,27
 481 1325 481 1325 408.5 1303 c 128,-1,28
 336 1281 336 1281 268 1235 c 1,29,-1
 297 1403 l 1,30,31
 359 1431 359 1431 431 1446.5 c 128,-1,32
 503 1462 503 1462 578 1462 c 0,33,34
 664 1462 664 1462 728.5 1436 c 128,-1,35
 793 1410 793 1410 836 1366 c 128,-1,36
 879 1322 879 1322 900.5 1264.5 c 128,-1,37
 922 1207 922 1207 922 1145 c 256,0,1
414 92 m 256,38,39
 414 69 414 69 405 49 c 128,-1,40
 396 29 396 29 380.5 14 c 128,-1,41
 365 -1 365 -1 345 -9.5 c 128,-1,42
 325 -18 325 -18 303 -18 c 0,43,44
 280 -18 280 -18 260 -9.5 c 128,-1,45
 240 -1 240 -1 225 14 c 128,-1,46
 210 29 210 29 201.5 49 c 128,-1,47
 193 69 193 69 193 92 c 256,48,49
 193 115 193 115 201.5 135.5 c 128,-1,50
 210 156 210 156 225 171 c 128,-1,51
 240 186 240 186 260 194.5 c 128,-1,52
 280 203 280 203 303 203 c 0,53,54
 325 203 325 203 345 194.5 c 128,-1,55
 365 186 365 186 380.5 171 c 128,-1,56
 396 156 396 156 405 135.5 c 128,-1,57
 414 115 414 115 414 92 c 256,38,39
EndSplineSet
Substitution2: "SegoeUI-Italic-'ss19' Style Set 19 lookup 8 subtable" question.ss19
EndChar

StartChar: at
Encoding: 64 64 35
Width: 1966
GlyphClass: 2
Flags: W
LayerCount: 2
Fore
SplineSet
1825 797 m 0,0,1
 1825 669 1825 669 1790.5 556.5 c 128,-1,2
 1756 444 1756 444 1693.5 360.5 c 128,-1,3
 1631 277 1631 277 1545 228.5 c 128,-1,4
 1459 180 1459 180 1356 180 c 0,5,6
 1305 180 1305 180 1266 194.5 c 128,-1,7
 1227 209 1227 209 1200.5 234 c 128,-1,8
 1174 259 1174 259 1160.5 292.5 c 128,-1,9
 1147 326 1147 326 1147 365 c 0,10,11
 1147 380 1147 380 1148.5 389.5 c 128,-1,12
 1150 399 1150 399 1153 418 c 1,13,-1
 1149 418 l 1,14,15
 1089 303 1089 303 1013.5 242.5 c 128,-1,16
 938 182 938 182 838 182 c 0,17,18
 784 182 784 182 738.5 204 c 128,-1,19
 693 226 693 226 660 266.5 c 128,-1,20
 627 307 627 307 608.5 364 c 128,-1,21
 590 421 590 421 590 492 c 0,22,23
 590 609 590 609 628 715 c 128,-1,24
 666 821 666 821 731.5 902 c 128,-1,25
 797 983 797 983 884.5 1031 c 128,-1,26
 972 1079 972 1079 1071 1079 c 0,27,28
 1114 1079 1114 1079 1149 1069 c 128,-1,29
 1184 1059 1184 1059 1210 1042 c 128,-1,30
 1236 1025 1236 1025 1253.5 1001.5 c 128,-1,31
 1271 978 1271 978 1280 952 c 1,32,-1
 1284 952 l 1,33,34
 1285 957 1285 957 1289.5 973 c 128,-1,35
 1294 989 1294 989 1299.5 1008 c 128,-1,36
 1305 1027 1305 1027 1309.5 1043.5 c 128,-1,37
 1314 1060 1314 1060 1315 1065 c 1,38,-1
 1446 1065 l 1,39,40
 1437 1034 1437 1034 1421.5 980.5 c 128,-1,41
 1406 927 1406 927 1387 862.5 c 128,-1,42
 1368 798 1368 798 1349 728.5 c 128,-1,43
 1330 659 1330 659 1314 595.5 c 128,-1,44
 1298 532 1298 532 1288 480.5 c 128,-1,45
 1278 429 1278 429 1278 401 c 0,46,47
 1278 341 1278 341 1301.5 318 c 128,-1,48
 1325 295 1325 295 1374 295 c 0,49,50
 1446 295 1446 295 1505.5 337.5 c 128,-1,51
 1565 380 1565 380 1608.5 448.5 c 128,-1,52
 1652 517 1652 517 1676 602 c 128,-1,53
 1700 687 1700 687 1700 772 c 0,54,55
 1700 843 1700 843 1686 912.5 c 128,-1,56
 1672 982 1672 982 1641.5 1044.5 c 128,-1,57
 1611 1107 1611 1107 1563 1160.5 c 128,-1,58
 1515 1214 1515 1214 1447.5 1252.5 c 128,-1,59
 1380 1291 1380 1291 1292.5 1313 c 128,-1,60
 1205 1335 1205 1335 1094 1335 c 0,61,62
 994 1335 994 1335 899 1310 c 128,-1,63
 804 1285 804 1285 719.5 1238 c 128,-1,64
 635 1191 635 1191 565 1123 c 128,-1,65
 495 1055 495 1055 444 968.5 c 128,-1,66
 393 882 393 882 364.5 778.5 c 128,-1,67
 336 675 336 675 336 557 c 0,68,69
 336 419 336 419 375.5 303.5 c 128,-1,70
 415 188 415 188 496 105 c 128,-1,71
 577 22 577 22 700.5 -24 c 128,-1,72
 824 -70 824 -70 991 -70 c 0,73,74
 1074 -70 1074 -70 1148.5 -61.5 c 128,-1,75
 1223 -53 1223 -53 1285.5 -40 c 128,-1,76
 1348 -27 1348 -27 1397 -11 c 128,-1,77
 1446 5 1446 5 1477 20 c 1,78,-1
 1452 -106 l 1,79,80
 1424 -119 1424 -119 1380 -133 c 128,-1,81
 1336 -147 1336 -147 1278 -159 c 128,-1,82
 1220 -171 1220 -171 1147.5 -178.5 c 128,-1,83
 1075 -186 1075 -186 989 -186 c 0,84,85
 804 -186 804 -186 658.5 -134 c 128,-1,86
 513 -82 513 -82 412 14.5 c 128,-1,87
 311 111 311 111 258 248.5 c 128,-1,88
 205 386 205 386 205 557 c 0,89,90
 205 693 205 693 238 812 c 128,-1,91
 271 931 271 931 330.5 1031 c 128,-1,92
 390 1131 390 1131 473.5 1209.5 c 128,-1,93
 557 1288 557 1288 657.5 1342.5 c 128,-1,94
 758 1397 758 1397 873.5 1425.5 c 128,-1,95
 989 1454 989 1454 1112 1454 c 0,96,97
 1291 1454 1291 1454 1424.5 1400.5 c 128,-1,98
 1558 1347 1558 1347 1647 1256.5 c 128,-1,99
 1736 1166 1736 1166 1780.5 1047 c 128,-1,100
 1825 928 1825 928 1825 797 c 0,0,1
1221 811 m 0,101,102
 1221 886 1221 886 1181 927.5 c 128,-1,103
 1141 969 1141 969 1075 969 c 0,104,105
 1005 969 1005 969 942.5 931.5 c 128,-1,106
 880 894 880 894 833.5 829 c 128,-1,107
 787 764 787 764 760 678 c 128,-1,108
 733 592 733 592 733 494 c 0,109,110
 733 447 733 447 744.5 410.5 c 128,-1,111
 756 374 756 374 775.5 349.5 c 128,-1,112
 795 325 795 325 821 312 c 128,-1,113
 847 299 847 299 877 299 c 0,114,115
 937 299 937 299 989 331.5 c 128,-1,116
 1041 364 1041 364 1083 421 c 128,-1,117
 1125 478 1125 478 1157 554 c 128,-1,118
 1189 630 1189 630 1208 717 c 0,119,120
 1221 768 1221 768 1221 811 c 0,101,102
EndSplineSet
EndChar

StartChar: A
Encoding: 65 65 36
Width: 1294
GlyphClass: 2
Flags: W
AnchorPoint: "Anchor-15" 180 2100 basechar 0
AnchorPoint: "Anchor-14" 1474 2100 basechar 0
AnchorPoint: "Anchor-11" 975 0 basechar 0
AnchorPoint: "Anchor-10" 510 -50 basechar 0
AnchorPoint: "Anchor-9" 1000 1434 basechar 0
AnchorPoint: "Anchor-8" 1026 -420 basechar 0
AnchorPoint: "Anchor-7" 1356 1900 basechar 0
AnchorPoint: "Anchor-6" 660 717 basechar 0
AnchorPoint: "Anchor-5" 960 1434 basechar 0
AnchorPoint: "Anchor-2" 500 -15 basechar 0
AnchorPoint: "Anchor-1" 1095 1500 basechar 0
AnchorPoint: "Anchor-0" 850 1600 basechar 0
LayerCount: 2
Fore
SplineSet
999 0 m 1,0,-1
 934 401 l 1,1,-1
 326 401 l 1,2,-1
 94 0 l 1,3,-1
 -104 0 l 1,4,-1
 750 1434 l 1,5,-1
 926 1434 l 1,6,-1
 1176 0 l 1,7,-1
 999 0 l 1,0,-1
815 1163 m 2,8,9
 814 1173 814 1173 813.5 1186 c 128,-1,10
 813 1199 813 1199 813 1212 c 0,11,12
 813 1226 813 1226 813 1238 c 0,13,14
 813 1251 813 1251 813 1260 c 1,15,-1
 809 1260 l 1,16,17
 806 1251 806 1251 801 1238.5 c 128,-1,18
 796 1226 796 1226 790 1212.5 c 128,-1,19
 784 1199 784 1199 777.5 1186 c 128,-1,20
 771 1173 771 1173 766 1163 c 2,21,-1
 412 553 l 1,22,-1
 907 553 l 1,23,-1
 815 1163 l 2,8,9
EndSplineSet
Substitution2: "SegoeUI-Italic-'c2sc' Capitals to Small Capitals lookup 26 subtable" A.c2sc
Position2: "SegoeUI-Italic-'cpsp' Capital Spacing lookup 12 subtable" dx=36 dy=0 dh=72 dv=0
EndChar

StartChar: B
Encoding: 66 66 37
Width: 1174
GlyphClass: 2
Flags: W
AnchorPoint: "Anchor-15" 180 2100 basechar 0
AnchorPoint: "Anchor-14" 1354 2100 basechar 0
AnchorPoint: "Anchor-11" 450 0 basechar 0
AnchorPoint: "Anchor-9" 1160 1274 basechar 0
AnchorPoint: "Anchor-8" 976 -420 basechar 0
AnchorPoint: "Anchor-7" 1306 1900 basechar 0
AnchorPoint: "Anchor-6" 587 717 basechar 0
AnchorPoint: "Anchor-5" 1110 1314 basechar 0
AnchorPoint: "Anchor-2" 390 -15 basechar 0
AnchorPoint: "Anchor-1" 1180 1500 basechar 0
AnchorPoint: "Anchor-0" 720 1600 basechar 0
LayerCount: 2
Fore
SplineSet
1126 1124 m 0,0,1
 1126 1057 1126 1057 1107 995.5 c 128,-1,2
 1088 934 1088 934 1048.5 884 c 128,-1,3
 1009 834 1009 834 947.5 797.5 c 128,-1,4
 886 761 886 761 801 745 c 1,5,-1
 801 741 l 1,6,7
 863 731 863 731 909.5 704.5 c 128,-1,8
 956 678 956 678 987 640 c 128,-1,9
 1018 602 1018 602 1033.5 554.5 c 128,-1,10
 1049 507 1049 507 1049 453 c 0,11,12
 1049 342 1049 342 1008.5 257.5 c 128,-1,13
 968 173 968 173 896 116 c 128,-1,14
 824 59 824 59 725.5 29.5 c 128,-1,15
 627 0 627 0 512 0 c 2,16,-1
 74 0 l 1,17,-1
 377 1434 l 1,18,-1
 772 1434 l 2,19,20
 858 1434 858 1434 924 1410 c 128,-1,21
 990 1386 990 1386 1035 1344 c 128,-1,22
 1080 1302 1080 1302 1103 1245.5 c 128,-1,23
 1126 1189 1126 1189 1126 1124 c 0,0,1
950 1092 m 1,24,25
 950 1130 950 1130 938 1164 c 128,-1,26
 926 1198 926 1198 899.5 1224.5 c 128,-1,27
 873 1251 873 1251 830.5 1266.5 c 128,-1,28
 788 1282 788 1282 727 1282 c 2,29,-1
 518 1282 l 1,30,-1
 418 819 l 1,31,-1
 606 819 l 2,32,33
 692 819 692 819 756.5 839 c 128,-1,34
 821 859 821 859 863.5 895 c 128,-1,35
 906 931 906 931 927 981 c 128,-1,36
 948 1031 948 1031 948 1092 c 1,37,-1
 950 1092 l 1,24,25
872 442 m 0,38,39
 872 547 872 547 799 607.5 c 128,-1,40
 726 668 726 668 575 668 c 2,41,-1
 385 668 l 1,42,-1
 279 152 l 1,43,-1
 510 152 l 2,44,45
 604 152 604 152 672 172.5 c 128,-1,46
 740 193 740 193 784.5 231 c 128,-1,47
 829 269 829 269 850.5 322.5 c 128,-1,48
 872 376 872 376 872 442 c 0,38,39
EndSplineSet
Substitution2: "SegoeUI-Italic-'c2sc' Capitals to Small Capitals lookup 26 subtable" B.c2sc
Position2: "SegoeUI-Italic-'cpsp' Capital Spacing lookup 12 subtable" dx=36 dy=0 dh=72 dv=0
EndChar

StartChar: C
Encoding: 67 67 38
Width: 1309
GlyphClass: 2
Flags: W
AnchorPoint: "Anchor-15" 180 2100 basechar 0
AnchorPoint: "Anchor-14" 1489 2100 basechar 0
AnchorPoint: "Anchor-11" 710 -15 basechar 0
AnchorPoint: "Anchor-10" 584 -15 basechar 0
AnchorPoint: "Anchor-9" 1333 1401 basechar 0
AnchorPoint: "Anchor-8" 1212 -420 basechar 0
AnchorPoint: "Anchor-7" 1542 1900 basechar 0
AnchorPoint: "Anchor-6" 800 741 basechar 0
AnchorPoint: "Anchor-5" 1350 1410 basechar 0
AnchorPoint: "Anchor-2" 650 -25 basechar 0
AnchorPoint: "Anchor-1" 1400 1500 basechar 0
AnchorPoint: "Anchor-0" 900 1600 basechar 0
LayerCount: 2
Fore
SplineSet
1325 1196 m 1,0,1
 1296 1215 1296 1215 1258.5 1235 c 128,-1,2
 1221 1255 1221 1255 1176 1271 c 128,-1,3
 1131 1287 1131 1287 1077.5 1297 c 128,-1,4
 1024 1307 1024 1307 963 1307 c 0,5,6
 813 1307 813 1307 692.5 1254 c 128,-1,7
 572 1201 572 1201 488 1108 c 128,-1,8
 404 1015 404 1015 358.5 889.5 c 128,-1,9
 313 764 313 764 313 618 c 0,10,11
 313 499 313 499 346 407.5 c 128,-1,12
 379 316 379 316 440 253.5 c 128,-1,13
 501 191 501 191 586 159 c 128,-1,14
 671 127 671 127 774 127 c 0,15,16
 840 127 840 127 894 134.5 c 128,-1,17
 948 142 948 142 994 155.5 c 128,-1,18
 1040 169 1040 169 1080.5 187.5 c 128,-1,19
 1121 206 1121 206 1159 227 c 1,20,-1
 1120 51 l 1,21,22
 1039 14 1039 14 946.5 -5.5 c 128,-1,23
 854 -25 854 -25 739 -25 c 0,24,25
 603 -25 603 -25 491.5 20 c 128,-1,26
 380 65 380 65 301.5 147.5 c 128,-1,27
 223 230 223 230 180 346 c 128,-1,28
 137 462 137 462 137 604 c 0,29,30
 137 792 137 792 196.5 949 c 128,-1,31
 256 1106 256 1106 365.5 1219 c 128,-1,32
 475 1332 475 1332 628.5 1395 c 128,-1,33
 782 1458 782 1458 969 1458 c 0,34,35
 1097 1458 1097 1458 1195.5 1430.5 c 128,-1,36
 1294 1403 1294 1403 1362 1368 c 1,37,-1
 1325 1196 l 1,0,1
EndSplineSet
Substitution2: "SegoeUI-Italic-'c2sc' Capitals to Small Capitals lookup 26 subtable" C.c2sc
Position2: "SegoeUI-Italic-'cpsp' Capital Spacing lookup 12 subtable" dx=36 dy=0 dh=72 dv=0
EndChar

StartChar: D
Encoding: 68 68 39
Width: 1458
GlyphClass: 2
Flags: W
AnchorPoint: "Anchor-15" 180 2100 basechar 0
AnchorPoint: "Anchor-14" 1638 2100 basechar 0
AnchorPoint: "Anchor-11" 450 0 basechar 0
AnchorPoint: "Anchor-9" 1320 1274 basechar 0
AnchorPoint: "Anchor-8" 1251 -420 basechar 0
AnchorPoint: "Anchor-7" 1581 1900 basechar 0
AnchorPoint: "Anchor-6" 780 717 basechar 0
AnchorPoint: "Anchor-5" 1290 1287 basechar 0
AnchorPoint: "Anchor-2" 550 -15 basechar 0
AnchorPoint: "Anchor-1" 1410 1500 basechar 0
AnchorPoint: "Anchor-0" 880 1600 basechar 0
LayerCount: 2
Fore
SplineSet
1401 854 m 0,0,1
 1401 748 1401 748 1379.5 643 c 128,-1,2
 1358 538 1358 538 1313.5 443 c 128,-1,3
 1269 348 1269 348 1199 267 c 128,-1,4
 1129 186 1129 186 1032 126.5 c 128,-1,5
 935 67 935 67 809.5 33.5 c 128,-1,6
 684 0 684 0 528 0 c 2,7,-1
 74 0 l 1,8,-1
 379 1434 l 1,9,-1
 778 1434 l 2,10,11
 918 1434 918 1434 1033 1394.5 c 128,-1,12
 1148 1355 1148 1355 1229.5 1280 c 128,-1,13
 1311 1205 1311 1205 1356 1097.5 c 128,-1,14
 1401 990 1401 990 1401 854 c 0,0,1
1225 842 m 0,15,16
 1225 1052 1225 1052 1102 1167 c 128,-1,17
 979 1282 979 1282 737 1282 c 2,18,-1
 518 1282 l 1,19,-1
 276 152 l 1,20,-1
 543 152 l 2,21,22
 712 152 712 152 839.5 206 c 128,-1,23
 967 260 967 260 1052.5 354 c 128,-1,24
 1138 448 1138 448 1181.5 573.5 c 128,-1,25
 1225 699 1225 699 1225 842 c 0,15,16
EndSplineSet
Substitution2: "SegoeUI-Italic-'c2sc' Capitals to Small Capitals lookup 26 subtable" D.c2sc
Position2: "SegoeUI-Italic-'cpsp' Capital Spacing lookup 12 subtable" dx=36 dy=0 dh=72 dv=0
EndChar

StartChar: E
Encoding: 69 69 40
Width: 1022
GlyphClass: 2
Flags: W
AnchorPoint: "Anchor-15" 180 2100 basechar 0
AnchorPoint: "Anchor-14" 1202 2100 basechar 0
AnchorPoint: "Anchor-11" 610 0 basechar 0
AnchorPoint: "Anchor-10" 410 0 basechar 0
AnchorPoint: "Anchor-9" 1060 1434 basechar 0
AnchorPoint: "Anchor-8" 954 -420 basechar 0
AnchorPoint: "Anchor-7" 1284 1900 basechar 0
AnchorPoint: "Anchor-6" 550 717 basechar 0
AnchorPoint: "Anchor-5" 1090 1434 basechar 0
AnchorPoint: "Anchor-2" 450 -15 basechar 0
AnchorPoint: "Anchor-1" 1160 1500 basechar 0
AnchorPoint: "Anchor-0" 780 1600 basechar 0
LayerCount: 2
Fore
SplineSet
1071 1282 m 1,0,-1
 518 1282 l 1,1,-1
 414 793 l 1,2,-1
 926 793 l 1,3,-1
 893 641 l 1,4,-1
 381 641 l 1,5,-1
 276 152 l 1,6,-1
 864 152 l 1,7,-1
 834 0 l 1,8,-1
 74 0 l 1,9,-1
 377 1434 l 1,10,-1
 1104 1434 l 1,11,-1
 1071 1282 l 1,0,-1
EndSplineSet
Substitution2: "SegoeUI-Italic-'c2sc' Capitals to Small Capitals lookup 26 subtable" E.c2sc
Position2: "SegoeUI-Italic-'cpsp' Capital Spacing lookup 12 subtable" dx=36 dy=0 dh=72 dv=0
EndChar

StartChar: F
Encoding: 70 70 41
Width: 1001
GlyphClass: 2
Flags: W
AnchorPoint: "Anchor-15" 180 2100 basechar 0
AnchorPoint: "Anchor-14" 1181 2100 basechar 0
AnchorPoint: "Anchor-11" 50 0 basechar 0
AnchorPoint: "Anchor-9" 1060 1434 basechar 0
AnchorPoint: "Anchor-8" 954 -420 basechar 0
AnchorPoint: "Anchor-7" 1284 1900 basechar 0
AnchorPoint: "Anchor-6" 540 717 basechar 0
AnchorPoint: "Anchor-5" 1080 1434 basechar 0
AnchorPoint: "Anchor-2" 450 -15 basechar 0
AnchorPoint: "Anchor-1" 1160 1500 basechar 0
AnchorPoint: "Anchor-0" 780 1600 basechar 0
LayerCount: 2
Fore
SplineSet
1071 1278 m 1,0,-1
 518 1278 l 1,1,-1
 412 788 l 1,2,-1
 926 788 l 1,3,-1
 893 633 l 1,4,-1
 379 633 l 1,5,-1
 246 0 l 1,6,-1
 74 0 l 1,7,-1
 377 1434 l 1,8,-1
 1104 1434 l 1,9,-1
 1071 1278 l 1,0,-1
EndSplineSet
Substitution2: "SegoeUI-Italic-'c2sc' Capitals to Small Capitals lookup 26 subtable" F.c2sc
Position2: "SegoeUI-Italic-'cpsp' Capital Spacing lookup 12 subtable" dx=36 dy=0 dh=72 dv=0
EndChar

StartChar: G
Encoding: 71 71 42
Width: 1409
GlyphClass: 2
Flags: W
AnchorPoint: "Anchor-15" 180 2100 basechar 0
AnchorPoint: "Anchor-14" 1589 2100 basechar 0
AnchorPoint: "Anchor-11" 785 0 basechar 0
AnchorPoint: "Anchor-10" 630 -15 basechar 0
AnchorPoint: "Anchor-9" 1416 1385 basechar 0
AnchorPoint: "Anchor-8" 1232 -420 basechar 0
AnchorPoint: "Anchor-7" 1562 1900 basechar 0
AnchorPoint: "Anchor-6" 702 741 basechar 0
AnchorPoint: "Anchor-5" 1360 1344 basechar 0
AnchorPoint: "Anchor-2" 650 -25 basechar 0
AnchorPoint: "Anchor-1" 1430 1500 basechar 0
AnchorPoint: "Anchor-0" 950 1600 basechar 0
LayerCount: 2
Fore
SplineSet
1350 1190 m 1,0,1
 1317 1212 1317 1212 1274.5 1233 c 128,-1,2
 1232 1254 1232 1254 1181 1270.5 c 128,-1,3
 1130 1287 1130 1287 1070.5 1297 c 128,-1,4
 1011 1307 1011 1307 944 1307 c 0,5,6
 795 1307 795 1307 678 1254 c 128,-1,7
 561 1201 561 1201 480 1109.5 c 128,-1,8
 399 1018 399 1018 356 894 c 128,-1,9
 313 770 313 770 313 629 c 0,10,11
 313 512 313 512 345.5 419 c 128,-1,12
 378 326 378 326 439 261 c 128,-1,13
 500 196 500 196 586.5 161.5 c 128,-1,14
 673 127 673 127 782 127 c 0,15,16
 857 127 857 127 917.5 139.5 c 128,-1,17
 978 152 978 152 1030 172 c 1,18,-1
 1116 590 l 1,19,-1
 784 590 l 1,20,-1
 817 739 l 1,21,-1
 1321 739 l 1,22,-1
 1180 78 l 1,23,24
 1095 33 1095 33 992 3 c 128,-1,25
 889 -27 889 -27 762 -27 c 0,26,27
 615 -27 615 -27 499 22 c 128,-1,28
 383 71 383 71 302.5 156.5 c 128,-1,29
 222 242 222 242 179.5 358.5 c 128,-1,30
 137 475 137 475 137 610 c 0,31,32
 137 726 137 726 161 834 c 128,-1,33
 185 942 185 942 232 1036.5 c 128,-1,34
 279 1131 279 1131 349 1208.5 c 128,-1,35
 419 1286 419 1286 511 1341.5 c 128,-1,36
 603 1397 603 1397 716.5 1427.5 c 128,-1,37
 830 1458 830 1458 965 1458 c 0,38,39
 1039 1458 1039 1458 1102.5 1449 c 128,-1,40
 1166 1440 1166 1440 1218.5 1426 c 128,-1,41
 1271 1412 1271 1412 1312 1395.5 c 128,-1,42
 1353 1379 1353 1379 1382 1364 c 1,43,-1
 1350 1190 l 1,0,1
EndSplineSet
Substitution2: "SegoeUI-Italic-'c2sc' Capitals to Small Capitals lookup 26 subtable" G.c2sc
Position2: "SegoeUI-Italic-'cpsp' Capital Spacing lookup 12 subtable" dx=36 dy=0 dh=72 dv=0
EndChar

StartChar: H
Encoding: 72 72 43
Width: 1450
GlyphClass: 2
Flags: W
AnchorPoint: "Anchor-15" 180 2100 basechar 0
AnchorPoint: "Anchor-14" 1630 2100 basechar 0
AnchorPoint: "Anchor-11" 950 0 basechar 0
AnchorPoint: "Anchor-9" 1474 1434 basechar 0
AnchorPoint: "Anchor-8" 1306 -420 basechar 0
AnchorPoint: "Anchor-7" 1636 1900 basechar 0
AnchorPoint: "Anchor-6" 727 717 basechar 0
AnchorPoint: "Anchor-5" 1440 1434 basechar 0
AnchorPoint: "Anchor-2" 570 -15 basechar 0
AnchorPoint: "Anchor-1" 1500 1500 basechar 0
AnchorPoint: "Anchor-0" 900 1600 basechar 0
LayerCount: 2
Fore
SplineSet
1151 0 m 1,0,-1
 979 0 l 1,1,-1
 1116 647 l 1,2,-1
 383 647 l 1,3,-1
 248 0 l 1,4,-1
 74 0 l 1,5,-1
 377 1434 l 1,6,-1
 551 1434 l 1,7,-1
 416 805 l 1,8,-1
 1149 805 l 1,9,-1
 1284 1434 l 1,10,-1
 1456 1434 l 1,11,-1
 1151 0 l 1,0,-1
EndSplineSet
Substitution2: "SegoeUI-Italic-'c2sc' Capitals to Small Capitals lookup 26 subtable" H.c2sc
Position2: "SegoeUI-Italic-'cpsp' Capital Spacing lookup 12 subtable" dx=36 dy=0 dh=72 dv=0
EndChar

StartChar: I
Encoding: 73 73 44
Width: 545
GlyphClass: 2
Flags: W
AnchorPoint: "Anchor-15" 180 2100 basechar 0
AnchorPoint: "Anchor-14" 725 2100 basechar 0
AnchorPoint: "Anchor-11" 50 0 basechar 0
AnchorPoint: "Anchor-10" 135 0 basechar 0
AnchorPoint: "Anchor-9" 565 1434 basechar 0
AnchorPoint: "Anchor-8" 401 -420 basechar 0
AnchorPoint: "Anchor-7" 731 1900 basechar 0
AnchorPoint: "Anchor-6" 310 717 basechar 0
AnchorPoint: "Anchor-5" 533 1434 basechar 0
AnchorPoint: "Anchor-2" 115 -15 basechar 0
AnchorPoint: "Anchor-1" 580 1500 basechar 0
AnchorPoint: "Anchor-0" 490 1600 basechar 0
LayerCount: 2
Fore
SplineSet
246 0 m 1,0,-1
 74 0 l 1,1,-1
 377 1434 l 1,2,-1
 551 1434 l 1,3,-1
 246 0 l 1,0,-1
EndSplineSet
Substitution2: "SegoeUI-Italic-'c2sc' Capitals to Small Capitals lookup 26 subtable" I.c2sc
Position2: "SegoeUI-Italic-'cpsp' Capital Spacing lookup 12 subtable" dx=36 dy=0 dh=72 dv=0
EndChar

StartChar: J
Encoding: 74 74 45
Width: 709
GlyphClass: 2
Flags: W
AnchorPoint: "Anchor-15" 180 2100 basechar 0
AnchorPoint: "Anchor-14" 889 2100 basechar 0
AnchorPoint: "Anchor-11" 50 0 basechar 0
AnchorPoint: "Anchor-9" 751 1434 basechar 0
AnchorPoint: "Anchor-8" 581 -420 basechar 0
AnchorPoint: "Anchor-7" 911 1900 basechar 0
AnchorPoint: "Anchor-6" 500 729 basechar 0
AnchorPoint: "Anchor-5" 730 1440 basechar 0
AnchorPoint: "Anchor-2" 230 -15 basechar 0
AnchorPoint: "Anchor-1" 780 1500 basechar 0
AnchorPoint: "Anchor-0" 680 1600 basechar 0
LayerCount: 2
Fore
SplineSet
535 508 m 2,0,1
 507 378 507 378 465.5 278 c 128,-1,2
 424 178 424 178 366 111 c 128,-1,3
 308 44 308 44 232 9.5 c 128,-1,4
 156 -25 156 -25 59 -25 c 0,5,6
 41 -25 41 -25 16 -22 c 128,-1,7
 -9 -19 -9 -19 -33 -13.5 c 128,-1,8
 -57 -8 -57 -8 -77 -2 c 128,-1,9
 -97 4 -97 4 -106 10 c 1,10,-1
 -78 170 l 1,11,12
 -67 161 -67 161 -51.5 152.5 c 128,-1,13
 -36 144 -36 144 -18 138 c 128,-1,14
 0 132 0 132 20 128.5 c 128,-1,15
 40 125 40 125 59 125 c 0,16,17
 113 125 113 125 159 144.5 c 128,-1,18
 205 164 205 164 242.5 208.5 c 128,-1,19
 280 253 280 253 310 324.5 c 128,-1,20
 340 396 340 396 362 500 c 2,21,-1
 559 1434 l 1,22,-1
 731 1434 l 1,23,-1
 535 508 l 2,0,1
EndSplineSet
Substitution2: "SegoeUI-Italic-'c2sc' Capitals to Small Capitals lookup 26 subtable" J.c2sc
Position2: "SegoeUI-Italic-'cpsp' Capital Spacing lookup 12 subtable" dx=36 dy=0 dh=72 dv=0
EndChar

StartChar: K
Encoding: 75 75 46
Width: 1228
GlyphClass: 2
Flags: W
AnchorPoint: "Anchor-15" 180 2100 basechar 0
AnchorPoint: "Anchor-14" 1408 2100 basechar 0
AnchorPoint: "Anchor-11" 820 0 basechar 0
AnchorPoint: "Anchor-10" 444 -50 basechar 0
AnchorPoint: "Anchor-9" 1220 1434 basechar 0
AnchorPoint: "Anchor-8" 1196 -420 basechar 0
AnchorPoint: "Anchor-7" 1526 1900 basechar 0
AnchorPoint: "Anchor-6" 350 1003 basechar 0
AnchorPoint: "Anchor-5" 1248 1434 basechar 0
AnchorPoint: "Anchor-2" 500 -15 basechar 0
AnchorPoint: "Anchor-1" 1380 1500 basechar 0
AnchorPoint: "Anchor-0" 830 1600 basechar 0
LayerCount: 2
Fore
SplineSet
573 723 m 1,0,-1
 1071 0 l 1,1,-1
 862 0 l 1,2,-1
 428 653 l 2,3,4
 422 664 422 664 413 680 c 128,-1,5
 404 696 404 696 399 707 c 1,6,-1
 395 707 l 1,7,-1
 246 0 l 1,8,-1
 74 0 l 1,9,-1
 377 1434 l 1,10,-1
 551 1434 l 1,11,-1
 408 760 l 1,12,-1
 412 760 l 1,13,14
 423 772 423 772 435.5 785 c 128,-1,15
 448 798 448 798 459 809 c 2,16,-1
 1118 1434 l 1,17,-1
 1346 1434 l 1,18,-1
 573 723 l 1,0,-1
EndSplineSet
Substitution2: "SegoeUI-Italic-'c2sc' Capitals to Small Capitals lookup 26 subtable" K.c2sc
Position2: "SegoeUI-Italic-'cpsp' Capital Spacing lookup 12 subtable" dx=36 dy=0 dh=72 dv=0
EndChar

StartChar: L
Encoding: 76 76 47
Width: 948
GlyphClass: 2
Flags: W
AnchorPoint: "Anchor-15" 180 2100 basechar 0
AnchorPoint: "Anchor-14" 1128 2100 basechar 0
AnchorPoint: "Anchor-11" 580 0 basechar 0
AnchorPoint: "Anchor-10" 412 0 basechar 0
AnchorPoint: "Anchor-9" 502 1434 basechar 0
AnchorPoint: "Anchor-8" 700 -420 basechar 0
AnchorPoint: "Anchor-7" 1030 1900 basechar 0
AnchorPoint: "Anchor-6" 310 717 basechar 0
AnchorPoint: "Anchor-5" 542 1434 basechar 0
AnchorPoint: "Anchor-2" 440 -15 basechar 0
AnchorPoint: "Anchor-1" 1080 1500 basechar 0
AnchorPoint: "Anchor-0" 770 1600 basechar 0
LayerCount: 2
Fore
SplineSet
817 0 m 1,0,-1
 74 0 l 1,1,-1
 377 1434 l 1,2,-1
 551 1434 l 1,3,-1
 279 156 l 1,4,-1
 850 156 l 1,5,-1
 817 0 l 1,0,-1
EndSplineSet
Substitution2: "SegoeUI-Italic-'c2sc' Capitals to Small Capitals lookup 26 subtable" L.c2sc
Position2: "SegoeUI-Italic-'cpsp' Capital Spacing lookup 12 subtable" dx=36 dy=0 dh=72 dv=0
EndChar

StartChar: M
Encoding: 77 77 48
Width: 1675
GlyphClass: 2
Flags: W
AnchorPoint: "Anchor-15" 180 2100 basechar 0
AnchorPoint: "Anchor-14" 1855 2100 basechar 0
AnchorPoint: "Anchor-11" 1180 0 basechar 0
AnchorPoint: "Anchor-9" 1698 1434 basechar 0
AnchorPoint: "Anchor-8" 1530 -420 basechar 0
AnchorPoint: "Anchor-7" 1860 1900 basechar 0
AnchorPoint: "Anchor-6" 880 834 basechar 0
AnchorPoint: "Anchor-5" 1665 1434 basechar 0
AnchorPoint: "Anchor-2" 690 -15 basechar 0
AnchorPoint: "Anchor-1" 1730 1500 basechar 0
AnchorPoint: "Anchor-0" 1020 1600 basechar 0
LayerCount: 2
Fore
SplineSet
1376 0 m 1,0,-1
 1209 0 l 1,1,-1
 1413 962 l 2,2,3
 1425 1019 1425 1019 1444 1091.5 c 128,-1,4
 1463 1164 1463 1164 1488 1247 c 1,5,-1
 1484 1247 l 1,6,7
 1472 1223 1472 1223 1454 1193.5 c 128,-1,8
 1436 1164 1436 1164 1416.5 1136.5 c 128,-1,9
 1397 1109 1397 1109 1381 1087 c 128,-1,10
 1365 1065 1365 1065 1358 1054 c 2,11,-1
 845 374 l 1,12,-1
 763 374 l 1,13,-1
 539 1052 l 2,14,15
 537 1064 537 1064 529.5 1086.5 c 128,-1,16
 522 1109 522 1109 515 1136.5 c 128,-1,17
 508 1164 508 1164 502.5 1193 c 128,-1,18
 497 1222 497 1222 497 1247 c 1,19,-1
 493 1247 l 1,20,21
 487 1204 487 1204 473.5 1131 c 128,-1,22
 460 1058 460 1058 440 960 c 2,23,-1
 236 0 l 1,24,-1
 74 0 l 1,25,-1
 378 1434 l 1,26,-1
 578 1434 l 1,27,-1
 805 752 l 2,28,29
 820 707 820 707 828.5 668 c 128,-1,30
 837 629 837 629 839 600 c 1,31,-1
 845 600 l 1,32,33
 861 630 861 630 884 670 c 128,-1,34
 907 710 907 710 943 756 c 2,35,-1
 1458 1434 l 1,36,-1
 1680 1434 l 1,37,-1
 1376 0 l 1,0,-1
EndSplineSet
Substitution2: "SegoeUI-Italic-'c2sc' Capitals to Small Capitals lookup 26 subtable" M.c2sc
Position2: "SegoeUI-Italic-'cpsp' Capital Spacing lookup 12 subtable" dx=36 dy=0 dh=72 dv=0
EndChar

StartChar: N
Encoding: 78 78 49
Width: 1538
GlyphClass: 2
Flags: W
AnchorPoint: "Anchor-15" 180 2100 basechar 0
AnchorPoint: "Anchor-14" 1718 2100 basechar 0
AnchorPoint: "Anchor-11" 1010 0 basechar 0
AnchorPoint: "Anchor-10" 616 -50 basechar 0
AnchorPoint: "Anchor-9" 1552 1434 basechar 0
AnchorPoint: "Anchor-8" 1396 -420 basechar 0
AnchorPoint: "Anchor-7" 1726 1900 basechar 0
AnchorPoint: "Anchor-6" 800 717 basechar 0
AnchorPoint: "Anchor-5" 1529 1434 basechar 0
AnchorPoint: "Anchor-2" 650 -15 basechar 0
AnchorPoint: "Anchor-1" 1580 1500 basechar 0
AnchorPoint: "Anchor-0" 980 1600 basechar 0
LayerCount: 2
Fore
SplineSet
1241 0 m 1,0,-1
 1055 0 l 1,1,-1
 526 1149 l 2,2,3
 523 1157 523 1157 519 1168.5 c 128,-1,4
 515 1180 515 1180 511 1193 c 128,-1,5
 507 1206 507 1206 504 1218 c 128,-1,6
 501 1230 501 1230 500 1237 c 1,7,-1
 494 1237 l 1,8,9
 493 1227 493 1227 491.5 1212.5 c 128,-1,10
 490 1198 490 1198 488 1183 c 128,-1,11
 486 1168 486 1168 483.5 1153.5 c 128,-1,12
 481 1139 481 1139 479 1128 c 2,13,-1
 240 0 l 1,14,-1
 74 0 l 1,15,-1
 377 1434 l 1,16,-1
 578 1434 l 1,17,-1
 1085 309 l 2,18,19
 1090 300 1090 300 1095 287.5 c 128,-1,20
 1100 275 1100 275 1105 261.5 c 128,-1,21
 1110 248 1110 248 1114.5 235 c 128,-1,22
 1119 222 1119 222 1122 213 c 1,23,-1
 1126 213 l 1,24,25
 1127 225 1127 225 1129 241 c 128,-1,26
 1131 257 1131 257 1133 274.5 c 128,-1,27
 1135 292 1135 292 1138 309 c 128,-1,28
 1141 326 1141 326 1143 338 c 2,29,-1
 1376 1434 l 1,30,-1
 1546 1434 l 1,31,-1
 1241 0 l 1,0,-1
EndSplineSet
Substitution2: "SegoeUI-Italic-'c2sc' Capitals to Small Capitals lookup 26 subtable" N.c2sc
Position2: "SegoeUI-Italic-'cpsp' Capital Spacing lookup 12 subtable" dx=36 dy=0 dh=72 dv=0
EndChar

StartChar: O
Encoding: 79 79 50
Width: 1544
GlyphClass: 2
Flags: W
AnchorPoint: "Anchor-15" 180 2100 basechar 0
AnchorPoint: "Anchor-14" 1724 2100 basechar 0
AnchorPoint: "Anchor-11" 680 -15 basechar 0
AnchorPoint: "Anchor-10" 640 -15 basechar 0
AnchorPoint: "Anchor-9" 1380 1320 basechar 0
AnchorPoint: "Anchor-8" 1337 -420 basechar 0
AnchorPoint: "Anchor-7" 1667 1900 basechar 0
AnchorPoint: "Anchor-6" 790 741 basechar 0
AnchorPoint: "Anchor-5" 1450 1172 basechar 0
AnchorPoint: "Anchor-2" 620 -25 basechar 0
AnchorPoint: "Anchor-1" 1480 1500 basechar 0
AnchorPoint: "Anchor-0" 950 1600 basechar 0
LayerCount: 2
Fore
SplineSet
1487 852 m 0,0,1
 1487 759 1487 759 1470 667.5 c 128,-1,2
 1453 576 1453 576 1421 491 c 128,-1,3
 1389 406 1389 406 1342.5 330 c 128,-1,4
 1296 254 1296 254 1237 193 c 0,5,6
 1189 143 1189 143 1133 102.5 c 128,-1,7
 1077 62 1077 62 1013 33.5 c 128,-1,8
 949 5 949 5 876 -10 c 128,-1,9
 803 -25 803 -25 719 -25 c 0,10,11
 584 -25 584 -25 476 21.5 c 128,-1,12
 368 68 368 68 292.5 149.5 c 128,-1,13
 217 231 217 231 177 343 c 128,-1,14
 137 455 137 455 137 586 c 0,15,16
 137 794 137 794 204.5 959 c 128,-1,17
 272 1124 272 1124 393 1245 c 0,18,19
 491 1343 491 1343 619.5 1400.5 c 128,-1,20
 748 1458 748 1458 911 1458 c 0,21,22
 1043 1458 1043 1458 1149.5 1413 c 128,-1,23
 1256 1368 1256 1368 1331 1287 c 128,-1,24
 1406 1206 1406 1206 1446.5 1095 c 128,-1,25
 1487 984 1487 984 1487 852 c 0,0,1
1309 846 m 0,26,27
 1309 953 1309 953 1280 1038 c 128,-1,28
 1251 1123 1251 1123 1197 1183 c 128,-1,29
 1143 1243 1143 1243 1067 1275 c 128,-1,30
 991 1307 991 1307 897 1307 c 0,31,32
 786 1307 786 1307 685 1259 c 128,-1,33
 584 1211 584 1211 506 1126 c 0,34,35
 462 1078 462 1078 426.5 1016 c 128,-1,36
 391 954 391 954 365.5 884 c 128,-1,37
 340 814 340 814 326.5 738 c 128,-1,38
 313 662 313 662 313 584 c 0,39,40
 313 484 313 484 340.5 400 c 128,-1,41
 368 316 368 316 420.5 255.5 c 128,-1,42
 473 195 473 195 550 161 c 128,-1,43
 627 127 627 127 727 127 c 0,44,45
 838 127 838 127 939.5 171.5 c 128,-1,46
 1041 216 1041 216 1118 303 c 0,47,48
 1166 357 1166 357 1201.5 423.5 c 128,-1,49
 1237 490 1237 490 1261 561.5 c 128,-1,50
 1285 633 1285 633 1297 706 c 128,-1,51
 1309 779 1309 779 1309 846 c 0,26,27
EndSplineSet
Substitution2: "SegoeUI-Italic-'c2sc' Capitals to Small Capitals lookup 26 subtable" O.c2sc
Position2: "SegoeUI-Italic-'cpsp' Capital Spacing lookup 12 subtable" dx=36 dy=0 dh=72 dv=0
EndChar

StartChar: P
Encoding: 80 80 51
Width: 1178
GlyphClass: 2
Flags: W
AnchorPoint: "Anchor-15" 180 2100 basechar 0
AnchorPoint: "Anchor-14" 1358 2100 basechar 0
AnchorPoint: "Anchor-11" 50 0 basechar 0
AnchorPoint: "Anchor-9" 1167 1274 basechar 0
AnchorPoint: "Anchor-8" 1026 -420 basechar 0
AnchorPoint: "Anchor-7" 1356 1900 basechar 0
AnchorPoint: "Anchor-6" 690 1003 basechar 0
AnchorPoint: "Anchor-5" 1140 1314 basechar 0
AnchorPoint: "Anchor-2" 460 -15 basechar 0
AnchorPoint: "Anchor-1" 1180 1500 basechar 0
AnchorPoint: "Anchor-0" 790 1600 basechar 0
LayerCount: 2
Fore
SplineSet
1176 1057 m 0,0,1
 1176 951 1176 951 1140 857.5 c 128,-1,2
 1104 764 1104 764 1030.5 694 c 128,-1,3
 957 624 957 624 844 583.5 c 128,-1,4
 731 543 731 543 578 543 c 2,5,-1
 360 543 l 1,6,-1
 246 0 l 1,7,-1
 74 0 l 1,8,-1
 377 1434 l 1,9,-1
 748 1434 l 2,10,11
 863 1434 863 1434 944.5 1402.5 c 128,-1,12
 1026 1371 1026 1371 1077.5 1318.5 c 128,-1,13
 1129 1266 1129 1266 1152.5 1198 c 128,-1,14
 1176 1130 1176 1130 1176 1057 c 0,0,1
999 1042 m 0,15,16
 999 1096 999 1096 980.5 1140.5 c 128,-1,17
 962 1185 962 1185 926 1216.5 c 128,-1,18
 890 1248 890 1248 836.5 1265 c 128,-1,19
 783 1282 783 1282 713 1282 c 2,20,-1
 518 1282 l 1,21,-1
 393 694 l 1,22,-1
 594 694 l 2,23,24
 700 694 700 694 776.5 720.5 c 128,-1,25
 853 747 853 747 902.5 793.5 c 128,-1,26
 952 840 952 840 975.5 903.5 c 128,-1,27
 999 967 999 967 999 1042 c 0,15,16
EndSplineSet
Substitution2: "SegoeUI-Italic-'c2sc' Capitals to Small Capitals lookup 26 subtable" P.c2sc
Position2: "SegoeUI-Italic-'cpsp' Capital Spacing lookup 12 subtable" dx=36 dy=0 dh=72 dv=0
EndChar

StartChar: Q
Encoding: 81 81 52
Width: 1544
GlyphClass: 2
Flags: W
AnchorPoint: "Anchor-15" 180 2100 basechar 0
AnchorPoint: "Anchor-14" 1724 2100 basechar 0
AnchorPoint: "Anchor-11" 780 -180 basechar 0
AnchorPoint: "Anchor-9" 1380 1320 basechar 0
AnchorPoint: "Anchor-8" 1337 -420 basechar 0
AnchorPoint: "Anchor-7" 1667 1900 basechar 0
AnchorPoint: "Anchor-6" 790 738 basechar 0
AnchorPoint: "Anchor-5" 1450 1172 basechar 0
AnchorPoint: "Anchor-2" 620 -270 basechar 0
AnchorPoint: "Anchor-1" 1480 1500 basechar 0
AnchorPoint: "Anchor-0" 950 1600 basechar 0
LayerCount: 2
Fore
SplineSet
1487 848 m 0,0,1
 1487 642 1487 642 1410.5 460 c 128,-1,2
 1334 278 1334 278 1197 153.5 c 128,-1,3
 1060 29 1060 29 881 -6 c 1,4,-1
 1169 -346 l 1,5,-1
 944 -346 l 1,6,-1
 711 -25 l 1,7,8
 538 -21 538 -21 408 56.5 c 128,-1,9
 278 134 278 134 207.5 271 c 128,-1,10
 137 408 137 408 137 582 c 0,11,12
 137 964 137 964 360 1211 c 128,-1,13
 583 1458 583 1458 915 1458 c 0,14,15
 1084 1458 1084 1458 1215.5 1380.5 c 128,-1,16
 1347 1303 1347 1303 1417 1163.5 c 128,-1,17
 1487 1024 1487 1024 1487 848 c 0,0,1
1309 842 m 0,18,19
 1309 1054 1309 1054 1200 1180.5 c 128,-1,20
 1091 1307 1091 1307 901 1307 c 0,21,22
 743 1307 743 1307 607.5 1214.5 c 128,-1,23
 472 1122 472 1122 392.5 952.5 c 128,-1,24
 313 783 313 783 313 582 c 0,25,26
 313 375 313 375 424.5 251 c 128,-1,27
 536 127 536 127 727 127 c 0,28,29
 888 127 888 127 1019.5 216.5 c 128,-1,30
 1151 306 1151 306 1230 480.5 c 128,-1,31
 1309 655 1309 655 1309 842 c 0,18,19
EndSplineSet
Substitution2: "SegoeUI-Italic-'c2sc' Capitals to Small Capitals lookup 26 subtable" Q.c2sc
Substitution2: "SegoeUI-Italic-'ss20' Style Set 20 lookup 7 subtable" Q.ss20
Position2: "SegoeUI-Italic-'cpsp' Capital Spacing lookup 12 subtable" dx=36 dy=0 dh=72 dv=0
EndChar

StartChar: R
Encoding: 82 82 53
Width: 1192
GlyphClass: 2
Flags: W
AnchorPoint: "Anchor-15" 180 2100 basechar 0
AnchorPoint: "Anchor-14" 1372 2100 basechar 0
AnchorPoint: "Anchor-11" 790 0 basechar 0
AnchorPoint: "Anchor-10" 462 -50 basechar 0
AnchorPoint: "Anchor-9" 1167 1274 basechar 0
AnchorPoint: "Anchor-8" 1019 -420 basechar 0
AnchorPoint: "Anchor-7" 1349 1900 basechar 0
AnchorPoint: "Anchor-6" 690 1003 basechar 0
AnchorPoint: "Anchor-5" 1140 1314 basechar 0
AnchorPoint: "Anchor-2" 520 -15 basechar 0
AnchorPoint: "Anchor-1" 1220 1500 basechar 0
AnchorPoint: "Anchor-0" 790 1600 basechar 0
LayerCount: 2
Fore
SplineSet
1169 1079 m 0,0,1
 1169 986 1169 986 1136.5 911 c 128,-1,2
 1104 836 1104 836 1047 782 c 128,-1,3
 990 728 990 728 911 695.5 c 128,-1,4
 832 663 832 663 739 655 c 1,5,-1
 739 651 l 1,6,7
 786 636 786 636 821.5 588 c 128,-1,8
 857 540 857 540 879 459 c 2,9,-1
 999 0 l 1,10,-1
 815 0 l 1,11,-1
 709 428 l 2,12,13
 686 522 686 522 635.5 566 c 128,-1,14
 585 610 585 610 502 610 c 2,15,-1
 377 610 l 1,16,-1
 246 0 l 1,17,-1
 74 0 l 1,18,-1
 377 1434 l 1,19,-1
 772 1434 l 2,20,21
 877 1434 877 1434 952 1406 c 128,-1,22
 1027 1378 1027 1378 1075 1329.5 c 128,-1,23
 1123 1281 1123 1281 1146 1216.5 c 128,-1,24
 1169 1152 1169 1152 1169 1079 c 0,0,1
993 1061 m 0,25,26
 993 1109 993 1109 978 1149.5 c 128,-1,27
 963 1190 963 1190 932 1219.5 c 128,-1,28
 901 1249 901 1249 853 1265.5 c 128,-1,29
 805 1282 805 1282 739 1282 c 2,30,-1
 518 1282 l 1,31,-1
 408 762 l 1,32,-1
 606 762 l 2,33,34
 711 762 711 762 784.5 787 c 128,-1,35
 858 812 858 812 904.5 853 c 128,-1,36
 951 894 951 894 972 948.5 c 128,-1,37
 993 1003 993 1003 993 1061 c 0,25,26
EndSplineSet
Substitution2: "SegoeUI-Italic-'c2sc' Capitals to Small Capitals lookup 26 subtable" R.c2sc
Position2: "SegoeUI-Italic-'cpsp' Capital Spacing lookup 12 subtable" dx=36 dy=0 dh=72 dv=0
EndChar

StartChar: S
Encoding: 83 83 54
Width: 1018
GlyphClass: 2
Flags: W
AnchorPoint: "Anchor-15" 180 2100 basechar 0
AnchorPoint: "Anchor-14" 1198 2100 basechar 0
AnchorPoint: "Anchor-11" 460 0 basechar 0
AnchorPoint: "Anchor-10" 394 -15 basechar 0
AnchorPoint: "Anchor-9" 1040 1428 basechar 0
AnchorPoint: "Anchor-8" 874 -420 basechar 0
AnchorPoint: "Anchor-7" 1204 1900 basechar 0
AnchorPoint: "Anchor-6" 544 741 basechar 0
AnchorPoint: "Anchor-5" 1020 1410 basechar 0
AnchorPoint: "Anchor-2" 400 -25 basechar 0
AnchorPoint: "Anchor-1" 1100 1500 basechar 0
AnchorPoint: "Anchor-0" 700 1600 basechar 0
LayerCount: 2
Fore
SplineSet
991 1219 m 1,0,1
 966 1237 966 1237 931.5 1253 c 128,-1,2
 897 1269 897 1269 857.5 1281 c 128,-1,3
 818 1293 818 1293 775 1300 c 128,-1,4
 732 1307 732 1307 690 1307 c 0,5,6
 610 1307 610 1307 555.5 1284.5 c 128,-1,7
 501 1262 501 1262 468 1227.5 c 128,-1,8
 435 1193 435 1193 420.5 1152 c 128,-1,9
 406 1111 406 1111 406 1075 c 0,10,11
 406 1028 406 1028 419 990 c 128,-1,12
 432 952 432 952 458 917 c 128,-1,13
 484 882 484 882 525 847 c 128,-1,14
 566 812 566 812 621 772 c 0,15,16
 683 727 683 727 731.5 683 c 128,-1,17
 780 639 780 639 814 592.5 c 128,-1,18
 848 546 848 546 865.5 494.5 c 128,-1,19
 883 443 883 443 883 383 c 0,20,21
 883 346 883 346 875.5 301.5 c 128,-1,22
 868 257 868 257 848.5 212 c 128,-1,23
 829 167 829 167 795 124 c 128,-1,24
 761 81 761 81 708.5 48 c 128,-1,25
 656 15 656 15 582 -5 c 128,-1,26
 508 -25 508 -25 408 -25 c 0,27,28
 352 -25 352 -25 298 -17 c 128,-1,29
 244 -9 244 -9 195.5 4 c 128,-1,30
 147 17 147 17 106.5 33.5 c 128,-1,31
 66 50 66 50 37 66 c 1,32,-1
 66 240 l 1,33,34
 98 217 98 217 139 196.5 c 128,-1,35
 180 176 180 176 226 160.5 c 128,-1,36
 272 145 272 145 321 136 c 128,-1,37
 370 127 370 127 418 127 c 0,38,39
 494 127 494 127 548.5 145 c 128,-1,40
 603 163 603 163 638.5 194.5 c 128,-1,41
 674 226 674 226 690.5 269 c 128,-1,42
 707 312 707 312 707 362 c 0,43,44
 707 407 707 407 693 443 c 128,-1,45
 679 479 679 479 650 513.5 c 128,-1,46
 621 548 621 548 576.5 583.5 c 128,-1,47
 532 619 532 619 471 662 c 0,48,49
 422 697 422 697 377.5 737.5 c 128,-1,50
 333 778 333 778 299.5 826 c 128,-1,51
 266 874 266 874 246.5 930.5 c 128,-1,52
 227 987 227 987 227 1053 c 0,53,54
 227 1135 227 1135 257.5 1208.5 c 128,-1,55
 288 1282 288 1282 348 1337.5 c 128,-1,56
 408 1393 408 1393 496.5 1425.5 c 128,-1,57
 585 1458 585 1458 702 1458 c 0,58,59
 747 1458 747 1458 791.5 1452.5 c 128,-1,60
 836 1447 836 1447 878 1437.5 c 128,-1,61
 920 1428 920 1428 957.5 1416.5 c 128,-1,62
 995 1405 995 1405 1024 1393 c 1,63,-1
 991 1219 l 1,0,1
EndSplineSet
Substitution2: "SegoeUI-Italic-'c2sc' Capitals to Small Capitals lookup 26 subtable" S.c2sc
Position2: "SegoeUI-Italic-'cpsp' Capital Spacing lookup 12 subtable" dx=36 dy=0 dh=72 dv=0
EndChar

StartChar: T
Encoding: 84 84 55
Width: 1077
GlyphClass: 2
Flags: W
AnchorPoint: "Anchor-15" 180 2100 basechar 0
AnchorPoint: "Anchor-14" 1257 2100 basechar 0
AnchorPoint: "Anchor-11" 310 0 basechar 0
AnchorPoint: "Anchor-10" 405 0 basechar 0
AnchorPoint: "Anchor-9" 1210 1443 basechar 0
AnchorPoint: "Anchor-8" 1073 -420 basechar 0
AnchorPoint: "Anchor-7" 1403 1900 basechar 0
AnchorPoint: "Anchor-6" 580 717 basechar 0
AnchorPoint: "Anchor-5" 1205 1434 basechar 0
AnchorPoint: "Anchor-2" 400 -15 basechar 0
AnchorPoint: "Anchor-1" 1280 1500 basechar 0
AnchorPoint: "Anchor-0" 730 1600 basechar 0
LayerCount: 2
Fore
SplineSet
1190 1282 m 1,0,-1
 782 1282 l 1,1,-1
 512 0 l 1,2,-1
 340 0 l 1,3,-1
 612 1282 l 1,4,-1
 195 1282 l 1,5,-1
 227 1434 l 1,6,-1
 1223 1434 l 1,7,-1
 1190 1282 l 1,0,-1
EndSplineSet
Substitution2: "SegoeUI-Italic-'c2sc' Capitals to Small Capitals lookup 26 subtable" T.c2sc
Position2: "SegoeUI-Italic-'cpsp' Capital Spacing lookup 12 subtable" dx=36 dy=0 dh=72 dv=0
EndChar

StartChar: U
Encoding: 85 85 56
Width: 1411
GlyphClass: 2
Flags: W
AnchorPoint: "Anchor-15" 180 2100 basechar 0
AnchorPoint: "Anchor-14" 1591 2100 basechar 0
AnchorPoint: "Anchor-11" 610 0 basechar 0
AnchorPoint: "Anchor-10" 553 -15 basechar 0
AnchorPoint: "Anchor-9" 1422 1439 basechar 0
AnchorPoint: "Anchor-8" 1284 -420 basechar 0
AnchorPoint: "Anchor-7" 1614 1900 basechar 0
AnchorPoint: "Anchor-6" 720 729 basechar 0
AnchorPoint: "Anchor-5" 1413 1440 basechar 0
AnchorPoint: "Anchor-2" 550 -25 basechar 0
AnchorPoint: "Anchor-1" 1480 1500 basechar 0
AnchorPoint: "Anchor-0" 880 1600 basechar 0
LayerCount: 2
Fore
SplineSet
1247 563 m 2,0,1
 1217 423 1217 423 1171.5 313.5 c 128,-1,2
 1126 204 1126 204 1054.5 129 c 128,-1,3
 983 54 983 54 880 14.5 c 128,-1,4
 777 -25 777 -25 633 -25 c 0,5,6
 522 -25 522 -25 435 10 c 128,-1,7
 348 45 348 45 289 106 c 128,-1,8
 230 167 230 167 199 250 c 128,-1,9
 168 333 168 333 168 430 c 0,10,11
 168 473 168 473 173.5 527 c 128,-1,12
 179 581 179 581 188 629 c 2,13,-1
 362 1434 l 1,14,-1
 535 1434 l 1,15,-1
 362 639 l 2,16,17
 358 616 358 616 353.5 589 c 128,-1,18
 349 562 349 562 345.5 535 c 128,-1,19
 342 508 342 508 340 484 c 128,-1,20
 338 460 338 460 338 442 c 0,21,22
 338 362 338 362 362 303 c 128,-1,23
 386 244 386 244 428.5 205 c 128,-1,24
 471 166 471 166 528.5 146.5 c 128,-1,25
 586 127 586 127 653 127 c 0,26,27
 738 127 738 127 805 151 c 128,-1,28
 872 175 872 175 923 226 c 128,-1,29
 974 277 974 277 1010.5 356 c 128,-1,30
 1047 435 1047 435 1071 545 c 2,31,-1
 1262 1434 l 1,32,-1
 1434 1434 l 1,33,-1
 1247 563 l 2,0,1
EndSplineSet
Substitution2: "SegoeUI-Italic-'c2sc' Capitals to Small Capitals lookup 26 subtable" U.c2sc
Position2: "SegoeUI-Italic-'cpsp' Capital Spacing lookup 12 subtable" dx=36 dy=0 dh=72 dv=0
EndChar

StartChar: V
Encoding: 86 86 57
Width: 1286
GlyphClass: 2
Flags: W
AnchorPoint: "Anchor-15" 180 2100 basechar 0
AnchorPoint: "Anchor-14" 1466 2100 basechar 0
AnchorPoint: "Anchor-11" 410 0 basechar 0
AnchorPoint: "Anchor-9" 1373 1434 basechar 0
AnchorPoint: "Anchor-8" 1298 -420 basechar 0
AnchorPoint: "Anchor-7" 1628 1900 basechar 0
AnchorPoint: "Anchor-6" 660 717 basechar 0
AnchorPoint: "Anchor-5" 1410 1434 basechar 0
AnchorPoint: "Anchor-2" 490 -15 basechar 0
AnchorPoint: "Anchor-1" 1480 1500 basechar 0
AnchorPoint: "Anchor-0" 820 1600 basechar 0
LayerCount: 2
Fore
SplineSet
596 0 m 1,0,-1
 428 0 l 1,1,-1
 213 1434 l 1,2,-1
 387 1434 l 1,3,-1
 545 311 l 2,4,5
 550 283 550 283 552 247.5 c 128,-1,6
 554 212 554 212 551 186 c 1,7,-1
 555 186 l 1,8,9
 560 199 560 199 566.5 215 c 128,-1,10
 573 231 573 231 581.5 247.5 c 128,-1,11
 590 264 590 264 598.5 280.5 c 128,-1,12
 607 297 607 297 614 311 c 2,13,-1
 1255 1434 l 1,14,-1
 1448 1434 l 1,15,-1
 596 0 l 1,0,-1
EndSplineSet
Substitution2: "SegoeUI-Italic-'c2sc' Capitals to Small Capitals lookup 26 subtable" V.c2sc
Position2: "SegoeUI-Italic-'cpsp' Capital Spacing lookup 12 subtable" dx=36 dy=0 dh=72 dv=0
EndChar

StartChar: W
Encoding: 87 87 58
Width: 1903
GlyphClass: 2
Flags: W
AnchorPoint: "Anchor-15" 180 2100 basechar 0
AnchorPoint: "Anchor-14" 2083 2100 basechar 0
AnchorPoint: "Anchor-11" 1155 0 basechar 0
AnchorPoint: "Anchor-9" 2060 1434 basechar 0
AnchorPoint: "Anchor-8" 1927 -420 basechar 0
AnchorPoint: "Anchor-7" 2257 1900 basechar 0
AnchorPoint: "Anchor-6" 990 717 basechar 0
AnchorPoint: "Anchor-5" 2043 1434 basechar 0
AnchorPoint: "Anchor-2" 820 -15 basechar 0
AnchorPoint: "Anchor-1" 2130 1500 basechar 0
AnchorPoint: "Anchor-0" 1150 1600 basechar 0
LayerCount: 2
Fore
SplineSet
1362 0 m 1,0,-1
 1184 0 l 1,1,-1
 1092 1063 l 2,2,3
 1090 1094 1090 1094 1092.5 1133 c 128,-1,4
 1095 1172 1095 1172 1098 1206 c 1,5,-1
 1094 1206 l 1,6,7
 1084 1174 1084 1174 1069 1134 c 128,-1,8
 1054 1094 1054 1094 1038 1065 c 2,9,-1
 494 0 l 1,10,-1
 311 0 l 1,11,-1
 197 1434 l 1,12,-1
 375 1434 l 1,13,-1
 449 342 l 2,14,15
 451 308 451 308 449 269 c 128,-1,16
 447 230 447 230 442 199 c 1,17,-1
 446 199 l 1,18,19
 451 213 451 213 458 231 c 128,-1,20
 465 249 465 249 473 268.5 c 128,-1,21
 481 288 481 288 489.5 307 c 128,-1,22
 498 326 498 326 506 342 c 2,23,-1
 1063 1434 l 1,24,-1
 1217 1434 l 1,25,-1
 1307 334 l 2,26,27
 1310 306 1310 306 1309 268 c 128,-1,28
 1308 230 1308 230 1305 199 c 1,29,-1
 1309 199 l 1,30,31
 1314 215 1314 215 1320.5 233.5 c 128,-1,32
 1327 252 1327 252 1334.5 270.5 c 128,-1,33
 1342 289 1342 289 1349.5 306.5 c 128,-1,34
 1357 324 1357 324 1364 338 c 2,35,-1
 1890 1434 l 1,36,-1
 2077 1434 l 1,37,-1
 1362 0 l 1,0,-1
EndSplineSet
Substitution2: "SegoeUI-Italic-'c2sc' Capitals to Small Capitals lookup 26 subtable" W.c2sc
Position2: "SegoeUI-Italic-'cpsp' Capital Spacing lookup 12 subtable" dx=36 dy=0 dh=72 dv=0
EndChar

StartChar: X
Encoding: 88 88 59
Width: 1210
GlyphClass: 2
Flags: W
AnchorPoint: "Anchor-15" 180 2100 basechar 0
AnchorPoint: "Anchor-14" 1390 2100 basechar 0
AnchorPoint: "Anchor-11" 820 0 basechar 0
AnchorPoint: "Anchor-9" 1260 1434 basechar 0
AnchorPoint: "Anchor-8" 1214 -420 basechar 0
AnchorPoint: "Anchor-7" 1544 1900 basechar 0
AnchorPoint: "Anchor-6" 640 717 basechar 0
AnchorPoint: "Anchor-5" 1300 1434 basechar 0
AnchorPoint: "Anchor-2" 470 -15 basechar 0
AnchorPoint: "Anchor-1" 1410 1500 basechar 0
AnchorPoint: "Anchor-0" 800 1600 basechar 0
LayerCount: 2
Fore
SplineSet
1364 1434 m 1,0,1
 1357 1425 1357 1425 1329 1392 c 128,-1,2
 1301 1359 1301 1359 1260 1310 c 128,-1,3
 1219 1261 1219 1261 1168 1201.5 c 128,-1,4
 1117 1142 1117 1142 1064 1080 c 128,-1,5
 1011 1018 1011 1018 959.5 957.5 c 128,-1,6
 908 897 908 897 866 848 c 128,-1,7
 824 799 824 799 795 764.5 c 128,-1,8
 766 730 766 730 758 719 c 1,9,10
 761 709 761 709 775 675 c 128,-1,11
 789 641 789 641 810 591.5 c 128,-1,12
 831 542 831 542 856.5 481.5 c 128,-1,13
 882 421 882 421 908.5 358.5 c 128,-1,14
 935 296 935 296 960.5 236 c 128,-1,15
 986 176 986 176 1007 126.5 c 128,-1,16
 1028 77 1028 77 1042.5 43.5 c 128,-1,17
 1057 10 1057 10 1061 0 c 1,18,-1
 866 0 l 1,19,-1
 653 549 l 2,20,21
 651 554 651 554 648 563.5 c 128,-1,22
 645 573 645 573 642 584 c 128,-1,23
 639 595 639 595 637 605.5 c 128,-1,24
 635 616 635 616 633 623 c 1,25,-1
 629 623 l 1,26,27
 626 617 626 617 621 607.5 c 128,-1,28
 616 598 616 598 609.5 586.5 c 128,-1,29
 603 575 603 575 596 564 c 128,-1,30
 589 553 589 553 582 545 c 2,31,-1
 127 0 l 1,32,-1
 -88 0 l 1,33,34
 -81 8 -81 8 -52 41.5 c 128,-1,35
 -23 75 -23 75 20 124 c 128,-1,36
 63 173 63 173 116 233.5 c 128,-1,37
 169 294 169 294 224 357.5 c 128,-1,38
 279 421 279 421 333 482.5 c 128,-1,39
 387 544 387 544 431.5 595.5 c 128,-1,40
 476 647 476 647 508 683.5 c 128,-1,41
 540 720 540 720 551 733 c 1,42,43
 546 748 546 748 530.5 784.5 c 128,-1,44
 515 821 515 821 493.5 870.5 c 128,-1,45
 472 920 472 920 446.5 978.5 c 128,-1,46
 421 1037 421 1037 394.5 1097 c 128,-1,47
 368 1157 368 1157 343 1214 c 128,-1,48
 318 1271 318 1271 298 1317.5 c 128,-1,49
 278 1364 278 1364 264.5 1395 c 128,-1,50
 251 1426 251 1426 248 1434 c 1,51,-1
 446 1434 l 1,52,-1
 649 899 l 2,53,54
 652 892 652 892 655.5 882.5 c 128,-1,55
 659 873 659 873 662 862.5 c 128,-1,56
 665 852 665 852 668 842 c 128,-1,57
 671 832 671 832 672 825 c 1,58,-1
 676 825 l 1,59,60
 679 831 679 831 684 840.5 c 128,-1,61
 689 850 689 850 695.5 860.5 c 128,-1,62
 702 871 702 871 709 882 c 128,-1,63
 716 893 716 893 723 901 c 2,64,-1
 1163 1434 l 1,65,-1
 1364 1434 l 1,0,1
EndSplineSet
Substitution2: "SegoeUI-Italic-'c2sc' Capitals to Small Capitals lookup 26 subtable" X.c2sc
Position2: "SegoeUI-Italic-'cpsp' Capital Spacing lookup 12 subtable" dx=36 dy=0 dh=72 dv=0
EndChar

StartChar: Y
Encoding: 89 89 60
Width: 1135
GlyphClass: 2
Flags: W
AnchorPoint: "Anchor-15" 180 2100 basechar 0
AnchorPoint: "Anchor-14" 1315 2100 basechar 0
AnchorPoint: "Anchor-11" 340 0 basechar 0
AnchorPoint: "Anchor-9" 1260 1434 basechar 0
AnchorPoint: "Anchor-8" 1163 -420 basechar 0
AnchorPoint: "Anchor-7" 1493 1900 basechar 0
AnchorPoint: "Anchor-6" 550 430 basechar 0
AnchorPoint: "Anchor-5" 1250 1434 basechar 0
AnchorPoint: "Anchor-2" 430 -15 basechar 0
AnchorPoint: "Anchor-1" 1380 1500 basechar 0
AnchorPoint: "Anchor-0" 760 1600 basechar 0
LayerCount: 2
Fore
SplineSet
651 545 m 1,0,-1
 537 0 l 1,1,-1
 365 0 l 1,2,-1
 479 541 l 1,3,-1
 211 1434 l 1,4,-1
 393 1434 l 1,5,-1
 571 774 l 2,6,7
 578 751 578 751 582.5 727.5 c 128,-1,8
 587 704 587 704 590 688 c 1,9,-1
 592 688 l 1,10,11
 600 704 600 704 614 726.5 c 128,-1,12
 628 749 628 749 643 772 c 2,13,-1
 1120 1434 l 1,14,-1
 1313 1434 l 1,15,-1
 651 545 l 1,0,-1
EndSplineSet
Substitution2: "SegoeUI-Italic-'c2sc' Capitals to Small Capitals lookup 26 subtable" Y.c2sc
Position2: "SegoeUI-Italic-'cpsp' Capital Spacing lookup 12 subtable" dx=36 dy=0 dh=72 dv=0
EndChar

StartChar: Z
Encoding: 90 90 61
Width: 1167
GlyphClass: 2
Flags: W
AnchorPoint: "Anchor-15" 180 2100 basechar 0
AnchorPoint: "Anchor-14" 1347 2100 basechar 0
AnchorPoint: "Anchor-11" 760 0 basechar 0
AnchorPoint: "Anchor-9" 1260 1434 basechar 0
AnchorPoint: "Anchor-8" 1169 -420 basechar 0
AnchorPoint: "Anchor-7" 1499 1900 basechar 0
AnchorPoint: "Anchor-6" 610 717 basechar 0
AnchorPoint: "Anchor-5" 1270 1434 basechar 0
AnchorPoint: "Anchor-2" 430 -15 basechar 0
AnchorPoint: "Anchor-1" 1380 1500 basechar 0
AnchorPoint: "Anchor-0" 830 1600 basechar 0
LayerCount: 2
Fore
SplineSet
1309 1391 m 1,0,-1
 227 152 l 1,1,-1
 1026 152 l 1,2,-1
 993 0 l 1,3,-1
 -78 0 l 1,4,-1
 -68 51 l 1,5,-1
 1006 1282 l 1,6,-1
 262 1282 l 1,7,-1
 293 1434 l 1,8,-1
 1319 1434 l 1,9,-1
 1309 1391 l 1,0,-1
EndSplineSet
Substitution2: "SegoeUI-Italic-'c2sc' Capitals to Small Capitals lookup 26 subtable" Z.c2sc
Position2: "SegoeUI-Italic-'cpsp' Capital Spacing lookup 12 subtable" dx=36 dy=0 dh=72 dv=0
EndChar

StartChar: bracketleft
Encoding: 91 91 62
Width: 623
GlyphClass: 2
Flags: W
LayerCount: 2
Fore
SplineSet
752 1315 m 1,0,-1
 530 1315 l 1,1,-1
 207 -207 l 1,2,-1
 428 -207 l 1,3,-1
 403 -326 l 1,4,-1
 35 -326 l 1,5,-1
 410 1434 l 1,6,-1
 778 1434 l 1,7,-1
 752 1315 l 1,0,-1
EndSplineSet
Position2: "SegoeUI-Italic-'case' Case-Sensitive Forms lookup 15 subtable" dx=30 dy=140 dh=0 dv=0
EndChar

StartChar: backslash
Encoding: 92 92 63
Width: 791
GlyphClass: 2
Flags: W
LayerCount: 2
Fore
SplineSet
506 -240 m 1,0,-1
 158 1434 l 1,1,-1
 305 1434 l 1,2,-1
 649 -240 l 1,3,-1
 506 -240 l 1,0,-1
EndSplineSet
EndChar

StartChar: bracketright
Encoding: 93 93 64
Width: 623
GlyphClass: 2
Flags: W
LayerCount: 2
Fore
SplineSet
215 -326 m 1,0,-1
 -152 -326 l 1,1,-1
 -127 -207 l 1,2,-1
 94 -207 l 1,3,-1
 418 1313 l 1,4,-1
 197 1313 l 1,5,-1
 221 1434 l 1,6,-1
 590 1434 l 1,7,-1
 215 -326 l 1,0,-1
EndSplineSet
Position2: "SegoeUI-Italic-'case' Case-Sensitive Forms lookup 15 subtable" dx=30 dy=140 dh=0 dv=0
EndChar

StartChar: asciicircum
Encoding: 94 94 65
Width: 1403
GlyphClass: 2
Flags: W
LayerCount: 2
Fore
SplineSet
1055 625 m 1,0,-1
 723 1243 l 1,1,-1
 717 1243 l 1,2,-1
 410 625 l 1,3,-1
 262 625 l 1,4,-1
 684 1458 l 1,5,-1
 750 1458 l 1,6,-1
 1206 625 l 1,7,-1
 1055 625 l 1,0,-1
EndSplineSet
EndChar

StartChar: underscore
Encoding: 95 95 66
Width: 850
GlyphClass: 2
Flags: W
LayerCount: 2
Fore
SplineSet
-172 -297 m 1,0,-1
 -147 -178 l 1,1,-1
 702 -178 l 1,2,-1
 678 -297 l 1,3,-1
 -172 -297 l 1,0,-1
EndSplineSet
EndChar

StartChar: grave
Encoding: 96 96 67
Width: 715
GlyphClass: 2
Flags: W
LayerCount: 2
Fore
SplineSet
528 1219 m 1,0,-1
 289 1546 l 1,1,-1
 442 1546 l 1,2,-1
 649 1219 l 1,3,-1
 528 1219 l 1,0,-1
EndSplineSet
EndChar

StartChar: a
Encoding: 97 97 68
Width: 1110
GlyphClass: 2
Flags: W
AnchorPoint: "Anchor-15" 180 2100 basechar 0
AnchorPoint: "Anchor-14" 1290 2100 basechar 0
AnchorPoint: "Anchor-11" 670 0 basechar 0
AnchorPoint: "Anchor-10" 370 -15 basechar 0
AnchorPoint: "Anchor-9" 1040 1009 basechar 0
AnchorPoint: "Anchor-8" 897 -420 basechar 0
AnchorPoint: "Anchor-7" 1227 1900 basechar 0
AnchorPoint: "Anchor-6" 521 536 basechar 0
AnchorPoint: "Anchor-5" 1040 990 basechar 0
AnchorPoint: "Anchor-2" 370 -25 basechar 0
AnchorPoint: "Anchor-1" 1080 1200 basechar 0
AnchorPoint: "Anchor-0" 700 1300 basechar 0
LayerCount: 2
Fore
SplineSet
905 328 m 2,0,1
 897 290 897 290 889.5 242.5 c 128,-1,2
 882 195 882 195 876.5 148.5 c 128,-1,3
 871 102 871 102 867.5 62 c 128,-1,4
 864 22 864 22 864 0 c 1,5,-1
 694 0 l 1,6,7
 695 20 695 20 697 48 c 128,-1,8
 699 76 699 76 702.5 106 c 128,-1,9
 706 136 706 136 709.5 165 c 128,-1,10
 713 194 713 194 717 215 c 1,11,-1
 713 215 l 1,12,13
 682 166 682 166 650 122.5 c 128,-1,14
 618 79 618 79 579 46 c 128,-1,15
 540 13 540 13 492 -6 c 128,-1,16
 444 -25 444 -25 379 -25 c 0,17,18
 312 -25 312 -25 256.5 -1 c 128,-1,19
 201 23 201 23 161 70.5 c 128,-1,20
 121 118 121 118 99.5 189.5 c 128,-1,21
 78 261 78 261 78 356 c 0,22,23
 78 414 78 414 90 488 c 128,-1,24
 102 562 102 562 130.5 639 c 128,-1,25
 159 716 159 716 206.5 789.5 c 128,-1,26
 254 863 254 863 324.5 921 c 128,-1,27
 395 979 395 979 491 1014 c 128,-1,28
 587 1049 587 1049 713 1049 c 0,29,30
 793 1049 793 1049 878 1037 c 128,-1,31
 963 1025 963 1025 1047 1008 c 1,32,-1
 905 328 l 2,0,1
858 889 m 1,33,34
 823 897 823 897 776 903 c 128,-1,35
 729 909 729 909 688 909 c 0,36,37
 601 909 601 909 534.5 881.5 c 128,-1,38
 468 854 468 854 419 809.5 c 128,-1,39
 370 765 370 765 336.5 707 c 128,-1,40
 303 649 303 649 283 588.5 c 128,-1,41
 263 528 263 528 254.5 469 c 128,-1,42
 246 410 246 410 246 362 c 0,43,44
 246 305 246 305 256 259.5 c 128,-1,45
 266 214 266 214 287.5 182 c 128,-1,46
 309 150 309 150 342.5 132.5 c 128,-1,47
 376 115 376 115 422 115 c 0,48,49
 472 115 472 115 515.5 135.5 c 128,-1,50
 559 156 559 156 597 191 c 128,-1,51
 635 226 635 226 666 272 c 128,-1,52
 697 318 697 318 722 369.5 c 128,-1,53
 747 421 747 421 764.5 474.5 c 128,-1,54
 782 528 782 528 793 578 c 2,55,-1
 858 889 l 1,33,34
EndSplineSet
Substitution2: "SegoeUI-Italic-'smcp' Lowercase to Small Capitals lookup 27 subtable" A.c2sc
EndChar

StartChar: b
Encoding: 98 98 69
Width: 1110
GlyphClass: 2
Flags: W
AnchorPoint: "Anchor-15" 180 2100 basechar 0
AnchorPoint: "Anchor-14" 1290 2100 basechar 0
AnchorPoint: "Anchor-13" 692 80 basechar 0
AnchorPoint: "Anchor-12" 692 80 basechar 0
AnchorPoint: "Anchor-11" 500 0 basechar 0
AnchorPoint: "Anchor-9" 1030 950 basechar 0
AnchorPoint: "Anchor-8" 882 -420 basechar 0
AnchorPoint: "Anchor-7" 1212 1900 basechar 0
AnchorPoint: "Anchor-6" 580 462 basechar 0
AnchorPoint: "Anchor-5" 1010 914 basechar 0
AnchorPoint: "Anchor-2" 470 -25 basechar 0
AnchorPoint: "Anchor-1" 1150 1400 basechar 0
AnchorPoint: "Anchor-0" 770 1650 basechar 0
LayerCount: 2
Fore
SplineSet
1032 666 m 0,0,1
 1032 598 1032 598 1018 520.5 c 128,-1,2
 1004 443 1004 443 973 366.5 c 128,-1,3
 942 290 942 290 894 219 c 128,-1,4
 846 148 846 148 778.5 94 c 128,-1,5
 711 40 711 40 622.5 7.5 c 128,-1,6
 534 -25 534 -25 422 -25 c 0,7,8
 376 -25 376 -25 327 -18.5 c 128,-1,9
 278 -12 278 -12 231 0 c 128,-1,10
 184 12 184 12 141 29 c 128,-1,11
 98 46 98 46 63 68 c 1,12,-1
 371 1516 l 1,13,-1
 537 1516 l 1,14,-1
 434 1026 l 2,15,16
 423 977 423 977 411.5 923 c 128,-1,17
 400 869 400 869 389 827 c 1,18,-1
 391 827 l 1,19,20
 423 878 423 878 459 919 c 128,-1,21
 495 960 495 960 536.5 989 c 128,-1,22
 578 1018 578 1018 625.5 1033.5 c 128,-1,23
 673 1049 673 1049 729 1049 c 0,24,25
 875 1049 875 1049 953.5 949 c 128,-1,26
 1032 849 1032 849 1032 666 c 0,0,1
864 662 m 0,27,28
 864 719 864 719 853.5 765 c 128,-1,29
 843 811 843 811 820.5 843 c 128,-1,30
 798 875 798 875 763 892 c 128,-1,31
 728 909 728 909 678 909 c 0,32,33
 615 909 615 909 557 872 c 128,-1,34
 499 835 499 835 451 774 c 128,-1,35
 403 713 403 713 368 636 c 128,-1,36
 333 559 333 559 317 479 c 2,37,-1
 250 160 l 1,38,39
 284 141 284 141 335.5 128 c 128,-1,40
 387 115 387 115 442 115 c 0,41,42
 513 115 513 115 572 138.5 c 128,-1,43
 631 162 631 162 678 203 c 128,-1,44
 725 244 725 244 760 298 c 128,-1,45
 795 352 795 352 818 412.5 c 128,-1,46
 841 473 841 473 852.5 537.5 c 128,-1,47
 864 602 864 602 864 662 c 0,27,28
EndSplineSet
Substitution2: "SegoeUI-Italic-'smcp' Lowercase to Small Capitals lookup 27 subtable" B.c2sc
EndChar

StartChar: c
Encoding: 99 99 70
Width: 893
GlyphClass: 2
Flags: W
AnchorPoint: "Anchor-15" 180 2100 basechar 0
AnchorPoint: "Anchor-14" 1073 2100 basechar 0
AnchorPoint: "Anchor-13" 570 26 basechar 0
AnchorPoint: "Anchor-12" 570 26 basechar 0
AnchorPoint: "Anchor-11" 510 0 basechar 0
AnchorPoint: "Anchor-10" 420 -15 basechar 0
AnchorPoint: "Anchor-9" 940 1009 basechar 0
AnchorPoint: "Anchor-8" 751 -420 basechar 0
AnchorPoint: "Anchor-7" 1081 1900 basechar 0
AnchorPoint: "Anchor-6" 573 536 basechar 0
AnchorPoint: "Anchor-5" 890 991 basechar 0
AnchorPoint: "Anchor-2" 420 -25 basechar 0
AnchorPoint: "Anchor-1" 970 1200 basechar 0
AnchorPoint: "Anchor-0" 650 1300 basechar 0
LayerCount: 2
Fore
SplineSet
864 821 m 1,0,1
 822 858 822 858 762.5 883.5 c 128,-1,2
 703 909 703 909 631 909 c 0,3,4
 562 909 562 909 506.5 885 c 128,-1,5
 451 861 451 861 408 821 c 128,-1,6
 365 781 365 781 334 729 c 128,-1,7
 303 677 303 677 283 621 c 128,-1,8
 263 565 263 565 253.5 509.5 c 128,-1,9
 244 454 244 454 244 406 c 0,10,11
 244 263 244 263 307 189 c 128,-1,12
 370 115 370 115 479 115 c 0,13,14
 545 115 545 115 616 142.5 c 128,-1,15
 687 170 687 170 750 213 c 1,16,-1
 715 49 l 1,17,18
 650 14 650 14 585.5 -5.5 c 128,-1,19
 521 -25 521 -25 449 -25 c 0,20,21
 355 -25 355 -25 285.5 7 c 128,-1,22
 216 39 216 39 170 95 c 128,-1,23
 124 151 124 151 101 227.5 c 128,-1,24
 78 304 78 304 78 393 c 0,25,26
 78 477 78 477 95 558.5 c 128,-1,27
 112 640 112 640 145.5 712.5 c 128,-1,28
 179 785 179 785 228 847 c 128,-1,29
 277 909 277 909 340.5 953.5 c 128,-1,30
 404 998 404 998 482 1023.5 c 128,-1,31
 560 1049 560 1049 651 1049 c 0,32,33
 694 1049 694 1049 733 1043 c 128,-1,34
 772 1037 772 1037 804 1027 c 128,-1,35
 836 1017 836 1017 861 1005.5 c 128,-1,36
 886 994 886 994 901 983 c 1,37,-1
 864 821 l 1,0,1
EndSplineSet
Substitution2: "SegoeUI-Italic-'smcp' Lowercase to Small Capitals lookup 27 subtable" C.c2sc
EndChar

StartChar: d
Encoding: 100 100 71
Width: 1110
GlyphClass: 2
Flags: W
AnchorPoint: "Anchor-15" 180 2100 basechar 0
AnchorPoint: "Anchor-14" 1290 2100 basechar 0
AnchorPoint: "Anchor-13" 780 0 basechar 0
AnchorPoint: "Anchor-12" 775 0 basechar 0
AnchorPoint: "Anchor-11" 670 0 basechar 0
AnchorPoint: "Anchor-9" 1208 1522 basechar 0
AnchorPoint: "Anchor-8" 1003 -420 basechar 0
AnchorPoint: "Anchor-7" 1333 1900 basechar 0
AnchorPoint: "Anchor-6" 530 539 basechar 0
AnchorPoint: "Anchor-5" 1140 1513 basechar 0
AnchorPoint: "Anchor-2" 390 -25 basechar 0
AnchorPoint: "Anchor-1" 1240 1600 basechar 0
AnchorPoint: "Anchor-0" 720 1650 basechar 0
LayerCount: 2
Fore
SplineSet
901 315 m 2,0,1
 894 283 894 283 887.5 238 c 128,-1,2
 881 193 881 193 876 147.5 c 128,-1,3
 871 102 871 102 867.5 62 c 128,-1,4
 864 22 864 22 864 0 c 1,5,-1
 694 0 l 1,6,7
 694 17 694 17 696.5 45.5 c 128,-1,8
 699 74 699 74 702.5 105 c 128,-1,9
 706 136 706 136 710 164.5 c 128,-1,10
 714 193 714 193 717 211 c 1,11,-1
 713 211 l 1,12,13
 677 153 677 153 641 108.5 c 128,-1,14
 605 64 605 64 565 34.5 c 128,-1,15
 525 5 525 5 480 -10 c 128,-1,16
 435 -25 435 -25 381 -25 c 0,17,18
 311 -25 311 -25 255 0 c 128,-1,19
 199 25 199 25 159.5 73.5 c 128,-1,20
 120 122 120 122 99 193.5 c 128,-1,21
 78 265 78 265 78 358 c 0,22,23
 78 432 78 432 93.5 512 c 128,-1,24
 109 592 109 592 141.5 669 c 128,-1,25
 174 746 174 746 224 815 c 128,-1,26
 274 884 274 884 343 936 c 128,-1,27
 412 988 412 988 501 1018.5 c 128,-1,28
 590 1049 590 1049 700 1049 c 0,29,30
 756 1049 756 1049 804 1041.5 c 128,-1,31
 852 1034 852 1034 887 1026 c 1,32,-1
 991 1516 l 1,33,-1
 1153 1516 l 1,34,-1
 901 315 l 2,0,1
858 885 m 1,35,36
 820 896 820 896 778.5 902.5 c 128,-1,37
 737 909 737 909 690 909 c 0,38,39
 603 909 603 909 536.5 882 c 128,-1,40
 470 855 470 855 420.5 810 c 128,-1,41
 371 765 371 765 337.5 707.5 c 128,-1,42
 304 650 304 650 283.5 589.5 c 128,-1,43
 263 529 263 529 254.5 470.5 c 128,-1,44
 246 412 246 412 246 365 c 0,45,46
 246 309 246 309 255.5 263 c 128,-1,47
 265 217 265 217 286.5 184 c 128,-1,48
 308 151 308 151 342 133 c 128,-1,49
 376 115 376 115 424 115 c 0,50,51
 474 115 474 115 517.5 136 c 128,-1,52
 561 157 561 157 599 193 c 128,-1,53
 637 229 637 229 668 276 c 128,-1,54
 699 323 699 323 724 376 c 128,-1,55
 749 429 749 429 766.5 483.5 c 128,-1,56
 784 538 784 538 795 588 c 2,57,-1
 858 885 l 1,35,36
EndSplineSet
Substitution2: "SegoeUI-Italic-'smcp' Lowercase to Small Capitals lookup 27 subtable" D.c2sc
EndChar

StartChar: e
Encoding: 101 101 72
Width: 997
GlyphClass: 2
Flags: W
AnchorPoint: "Anchor-15" 180 2100 basechar 0
AnchorPoint: "Anchor-14" 1177 2100 basechar 0
AnchorPoint: "Anchor-11" 520 0 basechar 0
AnchorPoint: "Anchor-10" 405 -15 basechar 0
AnchorPoint: "Anchor-9" 960 973 basechar 0
AnchorPoint: "Anchor-8" 808 -420 basechar 0
AnchorPoint: "Anchor-7" 1138 1900 basechar 0
AnchorPoint: "Anchor-6" 565 600 basechar 0
AnchorPoint: "Anchor-5" 970 910 basechar 0
AnchorPoint: "Anchor-2" 420 -25 basechar 0
AnchorPoint: "Anchor-1" 1000 1200 basechar 0
AnchorPoint: "Anchor-0" 670 1300 basechar 0
LayerCount: 2
Fore
SplineSet
958 784 m 0,0,1
 958 703 958 703 922 636.5 c 128,-1,2
 886 570 886 570 803 522.5 c 128,-1,3
 720 475 720 475 584 449 c 128,-1,4
 448 423 448 423 248 422 c 1,5,6
 246 411 246 411 246 399 c 0,7,8
 246 388 246 388 246 379 c 0,9,10
 246 325 246 325 261 277 c 128,-1,11
 276 229 276 229 307.5 193 c 128,-1,12
 339 157 339 157 388.5 136 c 128,-1,13
 438 115 438 115 506 115 c 0,14,15
 575 115 575 115 657.5 141.5 c 128,-1,16
 740 168 740 168 815 217 c 1,17,-1
 784 55 l 1,18,19
 729 23 729 23 653 -1 c 128,-1,20
 577 -25 577 -25 483 -25 c 0,21,22
 370 -25 370 -25 292.5 10 c 128,-1,23
 215 45 215 45 167.5 103.5 c 128,-1,24
 120 162 120 162 99 238.5 c 128,-1,25
 78 315 78 315 78 399 c 0,26,27
 78 489 78 489 98 572.5 c 128,-1,28
 118 656 118 656 154.5 728 c 128,-1,29
 191 800 191 800 242 859.5 c 128,-1,30
 293 919 293 919 355 961 c 128,-1,31
 417 1003 417 1003 488 1026 c 128,-1,32
 559 1049 559 1049 635 1049 c 0,33,34
 714 1049 714 1049 774.5 1028 c 128,-1,35
 835 1007 835 1007 875.5 970.5 c 128,-1,36
 916 934 916 934 937 886 c 128,-1,37
 958 838 958 838 958 784 c 0,0,1
791 776 m 0,38,39
 791 839 791 839 744.5 874 c 128,-1,40
 698 909 698 909 621 909 c 0,41,42
 560 909 560 909 503 882.5 c 128,-1,43
 446 856 446 856 398 809.5 c 128,-1,44
 350 763 350 763 315 698.5 c 128,-1,45
 280 634 280 634 264 559 c 1,46,47
 407 559 407 559 507 573.5 c 128,-1,48
 607 588 607 588 670 616 c 128,-1,49
 733 644 733 644 762 684.5 c 128,-1,50
 791 725 791 725 791 776 c 0,38,39
EndSplineSet
Substitution2: "SegoeUI-Italic-'smcp' Lowercase to Small Capitals lookup 27 subtable" E.c2sc
EndChar

StartChar: f
Encoding: 102 102 73
Width: 604
GlyphClass: 2
Flags: W
AnchorPoint: "Anchor-15" 180 2100 basechar 0
AnchorPoint: "Anchor-14" 784 2100 basechar 0
AnchorPoint: "Anchor-13" 80 -350 basechar 0
AnchorPoint: "Anchor-12" 80 -350 basechar 0
AnchorPoint: "Anchor-11" -20 -350 basechar 0
AnchorPoint: "Anchor-9" 850 1538 basechar 0
AnchorPoint: "Anchor-8" 700 -420 basechar 0
AnchorPoint: "Anchor-7" 1030 1900 basechar 0
AnchorPoint: "Anchor-6" 320 615 basechar 0
AnchorPoint: "Anchor-5" 840 1520 basechar 0
AnchorPoint: "Anchor-2" 60 -350 basechar 0
AnchorPoint: "Anchor-1" 930 1600 basechar 0
AnchorPoint: "Anchor-0" 660 1650 basechar 0
LayerCount: 2
Fore
SplineSet
823 1374 m 1,0,1
 813 1379 813 1379 799 1383.5 c 128,-1,2
 785 1388 785 1388 769 1392 c 128,-1,3
 753 1396 753 1396 735.5 1398.5 c 128,-1,4
 718 1401 718 1401 702 1401 c 0,5,6
 620 1401 620 1401 575.5 1347.5 c 128,-1,7
 531 1294 531 1294 508 1188 c 2,8,-1
 471 1024 l 1,9,-1
 713 1024 l 1,10,-1
 680 885 l 1,11,-1
 438 885 l 1,12,-1
 176 -340 l 1,13,-1
 10 -340 l 1,14,-1
 274 885 l 1,15,-1
 98 885 l 1,16,-1
 129 1024 l 1,17,-1
 305 1024 l 1,18,-1
 346 1214 l 2,19,20
 365 1302 365 1302 399 1364 c 128,-1,21
 433 1426 433 1426 480 1465 c 128,-1,22
 527 1504 527 1504 586.5 1522 c 128,-1,23
 646 1540 646 1540 717 1540 c 0,24,25
 754 1540 754 1540 789.5 1534 c 128,-1,26
 825 1528 825 1528 850 1520 c 1,27,-1
 823 1374 l 1,0,1
EndSplineSet
Substitution2: "SegoeUI-Italic-'smcp' Lowercase to Small Capitals lookup 27 subtable" F.c2sc
EndChar

StartChar: g
Encoding: 103 103 74
Width: 1110
GlyphClass: 2
Flags: W
AnchorPoint: "Anchor-15" 180 2100 basechar 0
AnchorPoint: "Anchor-14" 1290 2100 basechar 0
AnchorPoint: "Anchor-13" 600 -320 basechar 0
AnchorPoint: "Anchor-12" 600 -320 basechar 0
AnchorPoint: "Anchor-11" 470 -400 basechar 0
AnchorPoint: "Anchor-10" 420 -450 basechar 0
AnchorPoint: "Anchor-9" 1060 1028 basechar 0
AnchorPoint: "Anchor-8" 897 -420 basechar 0
AnchorPoint: "Anchor-7" 1227 1900 basechar 0
AnchorPoint: "Anchor-6" 520 508 basechar 0
AnchorPoint: "Anchor-5" 1040 1023 basechar 0
AnchorPoint: "Anchor-2" 420 -470 basechar 0
AnchorPoint: "Anchor-1" 1160 1200 basechar 0
AnchorPoint: "Anchor-0" 750 1300 basechar 0
LayerCount: 2
Fore
SplineSet
850 74 m 2,0,1
 825 -46 825 -46 784 -147.5 c 128,-1,2
 743 -249 743 -249 675.5 -323.5 c 128,-1,3
 608 -398 608 -398 509 -439.5 c 128,-1,4
 410 -481 410 -481 268 -481 c 0,5,6
 170 -481 170 -481 97.5 -458 c 128,-1,7
 25 -435 25 -435 -35 -403 c 1,8,-1
 -4 -250 l 1,9,10
 59 -288 59 -288 130 -314 c 128,-1,11
 201 -340 201 -340 283 -340 c 0,12,13
 372 -340 372 -340 437.5 -314 c 128,-1,14
 503 -288 503 -288 550.5 -237.5 c 128,-1,15
 598 -187 598 -187 629.5 -114 c 128,-1,16
 661 -41 661 -41 682 53 c 2,17,-1
 717 213 l 1,18,-1
 713 213 l 1,19,20
 675 152 675 152 638.5 107.5 c 128,-1,21
 602 63 602 63 562 33.5 c 128,-1,22
 522 4 522 4 478 -10.5 c 128,-1,23
 434 -25 434 -25 381 -25 c 0,24,25
 312 -25 312 -25 256 -0.5 c 128,-1,26
 200 24 200 24 160.5 72 c 128,-1,27
 121 120 121 120 99.5 192 c 128,-1,28
 78 264 78 264 78 358 c 0,29,30
 78 447 78 447 97.5 533 c 128,-1,31
 117 619 117 619 154 696 c 128,-1,32
 191 773 191 773 244.5 837.5 c 128,-1,33
 298 902 298 902 366 949 c 128,-1,34
 434 996 434 996 515.5 1022.5 c 128,-1,35
 597 1049 597 1049 690 1049 c 256,36,37
 783 1049 783 1049 876 1037 c 128,-1,38
 969 1025 969 1025 1047 1010 c 1,39,-1
 850 74 l 2,0,1
858 889 m 1,40,41
 824 897 824 897 775.5 903 c 128,-1,42
 727 909 727 909 672 909 c 0,43,44
 578 909 578 909 500 865.5 c 128,-1,45
 422 822 422 822 365.5 747.5 c 128,-1,46
 309 673 309 673 277.5 574 c 128,-1,47
 246 475 246 475 246 365 c 0,48,49
 246 311 246 311 255.5 265 c 128,-1,50
 265 219 265 219 285.5 186 c 128,-1,51
 306 153 306 153 338.5 134 c 128,-1,52
 371 115 371 115 418 115 c 0,53,54
 473 115 473 115 519.5 138 c 128,-1,55
 566 161 566 161 605 199 c 128,-1,56
 644 237 644 237 674.5 285.5 c 128,-1,57
 705 334 705 334 728.5 385 c 128,-1,58
 752 436 752 436 768 485.5 c 128,-1,59
 784 535 784 535 793 575 c 2,60,-1
 858 889 l 1,40,41
EndSplineSet
Substitution2: "SegoeUI-Italic-'smcp' Lowercase to Small Capitals lookup 27 subtable" G.c2sc
EndChar

StartChar: h
Encoding: 104 104 75
Width: 1141
GlyphClass: 2
Flags: W
AnchorPoint: "Anchor-15" 180 2100 basechar 0
AnchorPoint: "Anchor-14" 1321 2100 basechar 0
AnchorPoint: "Anchor-13" 800 0 basechar 0
AnchorPoint: "Anchor-12" 800 0 basechar 0
AnchorPoint: "Anchor-11" 690 0 basechar 0
AnchorPoint: "Anchor-9" 1060 938 basechar 0
AnchorPoint: "Anchor-8" 886 -420 basechar 0
AnchorPoint: "Anchor-7" 1216 1900 basechar 0
AnchorPoint: "Anchor-6" 370 1137 basechar 0
AnchorPoint: "Anchor-5" 1030 821 basechar 0
AnchorPoint: "Anchor-2" 440 -15 basechar 0
AnchorPoint: "Anchor-1" 1150 1400 basechar 0
AnchorPoint: "Anchor-0" 770 1650 basechar 0
LayerCount: 2
Fore
SplineSet
1036 766 m 0,0,1
 1036 753 1036 753 1032.5 726.5 c 128,-1,2
 1029 700 1029 700 1024.5 670 c 128,-1,3
 1020 640 1020 640 1014.5 610.5 c 128,-1,4
 1009 581 1009 581 1004 561 c 2,5,-1
 885 0 l 1,6,-1
 719 0 l 1,7,-1
 844 600 l 2,8,9
 848 616 848 616 852 637 c 128,-1,10
 856 658 856 658 859 679 c 128,-1,11
 862 700 862 700 864 717.5 c 128,-1,12
 866 735 866 735 866 745 c 0,13,14
 866 823 866 823 830.5 866 c 128,-1,15
 795 909 795 909 721 909 c 0,16,17
 657 909 657 909 593 871.5 c 128,-1,18
 529 834 529 834 474 774.5 c 128,-1,19
 419 715 419 715 378.5 641.5 c 128,-1,20
 338 568 338 568 322 496 c 2,21,-1
 215 0 l 1,22,-1
 49 0 l 1,23,-1
 373 1516 l 1,24,-1
 537 1516 l 1,25,-1
 381 784 l 1,26,-1
 385 784 l 1,27,28
 422 841 422 841 466 889.5 c 128,-1,29
 510 938 510 938 559.5 973.5 c 128,-1,30
 609 1009 609 1009 663.5 1029 c 128,-1,31
 718 1049 718 1049 776 1049 c 0,32,33
 904 1049 904 1049 970 973.5 c 128,-1,34
 1036 898 1036 898 1036 766 c 0,0,1
EndSplineSet
Substitution2: "SegoeUI-Italic-'smcp' Lowercase to Small Capitals lookup 27 subtable" H.c2sc
EndChar

StartChar: i
Encoding: 105 105 76
Width: 530
GlyphClass: 2
Flags: W
AnchorPoint: "Anchor-15" 180 2100 basechar 0
AnchorPoint: "Anchor-14" 710 2100 basechar 0
AnchorPoint: "Anchor-11" 180 0 basechar 0
AnchorPoint: "Anchor-10" 190 20 basechar 0
AnchorPoint: "Anchor-9" 450 1025 basechar 0
AnchorPoint: "Anchor-8" 383 -420 basechar 0
AnchorPoint: "Anchor-7" 713 1900 basechar 0
AnchorPoint: "Anchor-6" 259 550 basechar 0
AnchorPoint: "Anchor-5" 410 1020 basechar 0
AnchorPoint: "Anchor-2" 160 -15 basechar 0
AnchorPoint: "Anchor-1" 600 1550 basechar 0
AnchorPoint: "Anchor-0" 450 1650 basechar 0
LayerCount: 2
Fore
SplineSet
416 4 m 1,0,1
 391 -4 391 -4 359.5 -9 c 128,-1,2
 328 -14 328 -14 297 -14 c 0,3,4
 196 -14 196 -14 146 36.5 c 128,-1,5
 96 87 96 87 96 172 c 0,6,7
 96 197 96 197 101 231 c 128,-1,8
 106 265 106 265 117 315 c 2,9,-1
 266 1024 l 1,10,-1
 432 1024 l 1,11,-1
 282 311 l 2,12,13
 273 269 273 269 269.5 246 c 128,-1,14
 266 223 266 223 266 207 c 0,15,16
 266 166 266 166 288.5 144.5 c 128,-1,17
 311 123 311 123 360 123 c 0,18,19
 386 123 386 123 405.5 126 c 128,-1,20
 425 129 425 129 442 135 c 1,21,-1
 416 4 l 1,0,1
533 1389 m 256,22,23
 533 1344 533 1344 502.5 1312 c 128,-1,24
 472 1280 472 1280 427 1280 c 0,25,26
 383 1280 383 1280 350.5 1311.5 c 128,-1,27
 318 1343 318 1343 318 1389 c 256,28,29
 318 1435 318 1435 350.5 1464 c 128,-1,30
 383 1493 383 1493 427 1493 c 256,31,32
 471 1493 471 1493 502 1463.5 c 128,-1,33
 533 1434 533 1434 533 1389 c 256,22,23
EndSplineSet
Substitution2: "SegoeUI-Italic-Single Substitution lookup 30 subtable" dotlessi
Substitution2: "SegoeUI-Italic-'smcp' Lowercase to Small Capitals in Latin lookup 29 subtable" Idotaccent.c2sc
Substitution2: "SegoeUI-Italic-'smcp' Lowercase to Small Capitals lookup 28 subtable" I.c2sc
Substitution2: "SegoeUI-Italic-'sups' Superscript lookup 3 subtable" uni2071
EndChar

StartChar: j
Encoding: 106 106 77
Width: 492
GlyphClass: 2
Flags: W
AnchorPoint: "Anchor-15" 180 2100 basechar 0
AnchorPoint: "Anchor-14" 672 2100 basechar 0
AnchorPoint: "Anchor-13" -20 -350 basechar 0
AnchorPoint: "Anchor-12" -20 -350 basechar 0
AnchorPoint: "Anchor-11" -140 -420 basechar 0
AnchorPoint: "Anchor-9" 450 1025 basechar 0
AnchorPoint: "Anchor-8" 383 -420 basechar 0
AnchorPoint: "Anchor-7" 713 1900 basechar 0
AnchorPoint: "Anchor-6" 248 495 basechar 0
AnchorPoint: "Anchor-5" 410 1016 basechar 0
AnchorPoint: "Anchor-2" -70 -470 basechar 0
AnchorPoint: "Anchor-1" 600 1550 basechar 0
AnchorPoint: "Anchor-0" 450 1650 basechar 0
LayerCount: 2
Fore
SplineSet
225 47 m 2,0,1
 170 -217 170 -217 54.5 -349 c 128,-1,2
 -61 -481 -61 -481 -244 -481 c 0,3,4
 -261 -481 -261 -481 -280.5 -479 c 128,-1,5
 -300 -477 -300 -477 -319.5 -473 c 128,-1,6
 -339 -469 -339 -469 -357.5 -463.5 c 128,-1,7
 -376 -458 -376 -458 -391 -451 c 1,8,-1
 -362 -297 l 1,9,10
 -350 -305 -350 -305 -334 -313 c 128,-1,11
 -318 -321 -318 -321 -300 -327.5 c 128,-1,12
 -282 -334 -282 -334 -263.5 -338 c 128,-1,13
 -245 -342 -245 -342 -229 -342 c 0,14,15
 -126 -342 -126 -342 -55 -253 c 128,-1,16
 16 -164 16 -164 53 16 c 2,17,-1
 268 1024 l 1,18,-1
 432 1024 l 1,19,-1
 225 47 l 2,0,1
533 1389 m 256,20,21
 533 1344 533 1344 502.5 1312 c 128,-1,22
 472 1280 472 1280 427 1280 c 0,23,24
 383 1280 383 1280 350.5 1311.5 c 128,-1,25
 318 1343 318 1343 318 1389 c 256,26,27
 318 1435 318 1435 350.5 1464 c 128,-1,28
 383 1493 383 1493 427 1493 c 256,29,30
 471 1493 471 1493 502 1463.5 c 128,-1,31
 533 1434 533 1434 533 1389 c 256,20,21
EndSplineSet
Substitution2: "SegoeUI-Italic-Single Substitution lookup 30 subtable" uni0237
Substitution2: "SegoeUI-Italic-'smcp' Lowercase to Small Capitals lookup 27 subtable" J.c2sc
EndChar

StartChar: k
Encoding: 107 107 78
Width: 1004
GlyphClass: 2
Flags: W
AnchorPoint: "Anchor-15" 180 2100 basechar 0
AnchorPoint: "Anchor-14" 1184 2100 basechar 0
AnchorPoint: "Anchor-13" 730 0 basechar 0
AnchorPoint: "Anchor-12" 730 0 basechar 0
AnchorPoint: "Anchor-11" 640 0 basechar 0
AnchorPoint: "Anchor-10" 359 -50 basechar 0
AnchorPoint: "Anchor-9" 1020 1035 basechar 0
AnchorPoint: "Anchor-8" 917 -420 basechar 0
AnchorPoint: "Anchor-7" 1247 1900 basechar 0
AnchorPoint: "Anchor-6" 360 1061 basechar 0
AnchorPoint: "Anchor-5" 960 1026 basechar 0
AnchorPoint: "Anchor-2" 440 -15 basechar 0
AnchorPoint: "Anchor-1" 1080 1400 basechar 0
AnchorPoint: "Anchor-0" 770 1650 basechar 0
LayerCount: 2
Fore
SplineSet
498 551 m 1,0,-1
 860 0 l 1,1,-1
 670 0 l 1,2,-1
 334 541 l 1,3,-1
 330 541 l 1,4,-1
 215 0 l 1,5,-1
 49 0 l 1,6,-1
 373 1516 l 1,7,-1
 537 1516 l 1,8,-1
 340 590 l 1,9,-1
 344 590 l 1,10,-1
 854 1024 l 1,11,-1
 1067 1024 l 1,12,-1
 498 551 l 1,0,-1
EndSplineSet
Substitution2: "SegoeUI-Italic-'smcp' Lowercase to Small Capitals lookup 27 subtable" K.c2sc
EndChar

StartChar: l
Encoding: 108 108 79
Width: 530
GlyphClass: 2
Flags: W
AnchorPoint: "Anchor-15" 180 2100 basechar 0
AnchorPoint: "Anchor-14" 710 2100 basechar 0
AnchorPoint: "Anchor-13" 320 0 basechar 0
AnchorPoint: "Anchor-12" 325 0 basechar 0
AnchorPoint: "Anchor-11" 180 0 basechar 0
AnchorPoint: "Anchor-10" 190 20 basechar 0
AnchorPoint: "Anchor-9" 539 1522 basechar 0
AnchorPoint: "Anchor-8" 389 -420 basechar 0
AnchorPoint: "Anchor-7" 719 1900 basechar 0
AnchorPoint: "Anchor-6" 300 761 basechar 0
AnchorPoint: "Anchor-5" 525 1513 basechar 0
AnchorPoint: "Anchor-2" 160 -15 basechar 0
AnchorPoint: "Anchor-1" 600 1600 basechar 0
AnchorPoint: "Anchor-0" 490 1650 basechar 0
LayerCount: 2
Fore
SplineSet
416 4 m 1,0,1
 391 -4 391 -4 359.5 -9 c 128,-1,2
 328 -14 328 -14 297 -14 c 0,3,4
 196 -14 196 -14 146 36.5 c 128,-1,5
 96 87 96 87 96 172 c 0,6,7
 96 197 96 197 101 231 c 128,-1,8
 106 265 106 265 117 315 c 2,9,-1
 373 1517 l 1,10,-1
 539 1517 l 1,11,-1
 282 311 l 2,12,13
 273 269 273 269 269.5 246 c 128,-1,14
 266 223 266 223 266 207 c 0,15,16
 266 166 266 166 288.5 144.5 c 128,-1,17
 311 123 311 123 360 123 c 0,18,19
 386 123 386 123 405.5 126 c 128,-1,20
 425 129 425 129 442 135 c 1,21,-1
 416 4 l 1,0,1
EndSplineSet
Substitution2: "SegoeUI-Italic-'smcp' Lowercase to Small Capitals lookup 27 subtable" L.c2sc
EndChar

StartChar: m
Encoding: 109 109 80
Width: 1757
GlyphClass: 2
Flags: W
AnchorPoint: "Anchor-15" 180 2100 basechar 0
AnchorPoint: "Anchor-14" 1937 2100 basechar 0
AnchorPoint: "Anchor-13" 1415 0 basechar 0
AnchorPoint: "Anchor-12" 1410 0 basechar 0
AnchorPoint: "Anchor-11" 1300 0 basechar 0
AnchorPoint: "Anchor-9" 1700 888 basechar 0
AnchorPoint: "Anchor-8" 1503 -420 basechar 0
AnchorPoint: "Anchor-7" 1833 1900 basechar 0
AnchorPoint: "Anchor-6" 882 524 basechar 0
AnchorPoint: "Anchor-5" 1640 928 basechar 0
AnchorPoint: "Anchor-2" 740 -15 basechar 0
AnchorPoint: "Anchor-1" 1730 1200 basechar 0
AnchorPoint: "Anchor-0" 1070 1300 basechar 0
LayerCount: 2
Fore
SplineSet
1653 766 m 0,0,1
 1653 753 1653 753 1649.5 726.5 c 128,-1,2
 1646 700 1646 700 1640.5 670 c 128,-1,3
 1635 640 1635 640 1629.5 610.5 c 128,-1,4
 1624 581 1624 581 1620 561 c 2,5,-1
 1499 0 l 1,6,-1
 1335 0 l 1,7,-1
 1460 600 l 2,8,9
 1464 617 1464 617 1468 638 c 128,-1,10
 1472 659 1472 659 1475.5 679.5 c 128,-1,11
 1479 700 1479 700 1481 717.5 c 128,-1,12
 1483 735 1483 735 1483 745 c 0,13,14
 1483 824 1483 824 1449 866.5 c 128,-1,15
 1415 909 1415 909 1343 909 c 0,16,17
 1305 909 1305 909 1264.5 891.5 c 128,-1,18
 1224 874 1224 874 1185.5 844 c 128,-1,19
 1147 814 1147 814 1111.5 774 c 128,-1,20
 1076 734 1076 734 1046.5 688.5 c 128,-1,21
 1017 643 1017 643 996 595.5 c 128,-1,22
 975 548 975 548 965 502 c 2,23,-1
 858 0 l 1,24,-1
 692 0 l 1,25,-1
 819 600 l 2,26,27
 823 617 823 617 827 638 c 128,-1,28
 831 659 831 659 834.5 679.5 c 128,-1,29
 838 700 838 700 840 717.5 c 128,-1,30
 842 735 842 735 842 745 c 0,31,32
 842 824 842 824 807 866.5 c 128,-1,33
 772 909 772 909 702 909 c 0,34,35
 663 909 663 909 622 891.5 c 128,-1,36
 581 874 581 874 542 843.5 c 128,-1,37
 503 813 503 813 467.5 772.5 c 128,-1,38
 432 732 432 732 402.5 686.5 c 128,-1,39
 373 641 373 641 352.5 593.5 c 128,-1,40
 332 546 332 546 322 500 c 2,41,-1
 215 0 l 1,42,-1
 49 0 l 1,43,-1
 207 731 l 2,44,45
 215 770 215 770 223 812.5 c 128,-1,46
 231 855 231 855 238 894.5 c 128,-1,47
 245 934 245 934 250 968 c 128,-1,48
 255 1002 255 1002 258 1024 c 1,49,-1
 418 1024 l 1,50,51
 413 985 413 985 406 942.5 c 128,-1,52
 399 900 399 900 394 864 c 0,53,54
 388 822 388 822 381 782 c 1,55,-1
 385 782 l 1,56,57
 421 840 421 840 463 889 c 128,-1,58
 505 938 505 938 552 973.5 c 128,-1,59
 599 1009 599 1009 650 1029 c 128,-1,60
 701 1049 701 1049 756 1049 c 0,61,62
 820 1049 820 1049 866 1030 c 128,-1,63
 912 1011 912 1011 942.5 976.5 c 128,-1,64
 973 942 973 942 989 893 c 128,-1,65
 1005 844 1005 844 1008 784 c 1,66,67
 1045 840 1045 840 1087.5 888.5 c 128,-1,68
 1130 937 1130 937 1178.5 972.5 c 128,-1,69
 1227 1008 1227 1008 1281.5 1028.5 c 128,-1,70
 1336 1049 1336 1049 1397 1049 c 0,71,72
 1525 1049 1525 1049 1589 974.5 c 128,-1,73
 1653 900 1653 900 1653 766 c 0,0,1
EndSplineSet
Substitution2: "SegoeUI-Italic-'smcp' Lowercase to Small Capitals lookup 27 subtable" M.c2sc
EndChar

StartChar: n
Encoding: 110 110 81
Width: 1151
GlyphClass: 2
Flags: W
AnchorPoint: "Anchor-15" 180 2100 basechar 0
AnchorPoint: "Anchor-14" 1331 2100 basechar 0
AnchorPoint: "Anchor-13" 805 0 basechar 0
AnchorPoint: "Anchor-12" 805 0 basechar 0
AnchorPoint: "Anchor-11" 700 0 basechar 0
AnchorPoint: "Anchor-10" 429 -50 basechar 0
AnchorPoint: "Anchor-9" 1100 888 basechar 0
AnchorPoint: "Anchor-8" 896 -420 basechar 0
AnchorPoint: "Anchor-7" 1226 1900 basechar 0
AnchorPoint: "Anchor-6" 588 524 basechar 0
AnchorPoint: "Anchor-5" 1040 928 basechar 0
AnchorPoint: "Anchor-2" 440 -15 basechar 0
AnchorPoint: "Anchor-1" 1140 1200 basechar 0
AnchorPoint: "Anchor-0" 770 1300 basechar 0
LayerCount: 2
Fore
SplineSet
1046 768 m 0,0,1
 1046 753 1046 753 1042.5 727 c 128,-1,2
 1039 701 1039 701 1033.5 671 c 128,-1,3
 1028 641 1028 641 1022.5 611.5 c 128,-1,4
 1017 582 1017 582 1012 561 c 2,5,-1
 893 0 l 1,6,-1
 727 0 l 1,7,-1
 852 600 l 2,8,9
 856 616 856 616 860 637 c 128,-1,10
 864 658 864 658 867 679 c 128,-1,11
 870 700 870 700 872 717.5 c 128,-1,12
 874 735 874 735 874 745 c 0,13,14
 874 821 874 821 837.5 865 c 128,-1,15
 801 909 801 909 729 909 c 0,16,17
 663 909 663 909 598 870 c 128,-1,18
 533 831 533 831 478 771 c 128,-1,19
 423 711 423 711 383.5 639 c 128,-1,20
 344 567 344 567 330 500 c 2,21,-1
 223 0 l 1,22,-1
 57 0 l 1,23,-1
 215 731 l 2,24,25
 223 770 223 770 231 812.5 c 128,-1,26
 239 855 239 855 246 894.5 c 128,-1,27
 253 934 253 934 258 968 c 128,-1,28
 263 1002 263 1002 266 1024 c 1,29,-1
 426 1024 l 1,30,31
 421 985 421 985 414 942.5 c 128,-1,32
 407 900 407 900 402 864 c 0,33,34
 396 822 396 822 389 782 c 1,35,-1
 393 782 l 1,36,37
 428 837 428 837 470.5 885.5 c 128,-1,38
 513 934 513 934 562.5 970.5 c 128,-1,39
 612 1007 612 1007 667.5 1028 c 128,-1,40
 723 1049 723 1049 784 1049 c 0,41,42
 852 1049 852 1049 901 1028.5 c 128,-1,43
 950 1008 950 1008 982.5 971 c 128,-1,44
 1015 934 1015 934 1030.5 882 c 128,-1,45
 1046 830 1046 830 1046 768 c 0,0,1
EndSplineSet
Substitution2: "SegoeUI-Italic-'smcp' Lowercase to Small Capitals lookup 27 subtable" N.c2sc
Substitution2: "SegoeUI-Italic-'sups' Superscript lookup 3 subtable" uni207F
EndChar

StartChar: o
Encoding: 111 111 82
Width: 1096
GlyphClass: 2
Flags: W
AnchorPoint: "Anchor-15" 180 2100 basechar 0
AnchorPoint: "Anchor-14" 1276 2100 basechar 0
AnchorPoint: "Anchor-11" 520 0 basechar 0
AnchorPoint: "Anchor-10" 450 -15 basechar 0
AnchorPoint: "Anchor-9" 1020 900 basechar 0
AnchorPoint: "Anchor-8" 868 -420 basechar 0
AnchorPoint: "Anchor-7" 1198 1900 basechar 0
AnchorPoint: "Anchor-6" 560 536 basechar 0
AnchorPoint: "Anchor-5" 990 910 basechar 0
AnchorPoint: "Anchor-2" 450 -25 basechar 0
AnchorPoint: "Anchor-1" 1100 1200 basechar 0
AnchorPoint: "Anchor-0" 720 1300 basechar 0
LayerCount: 2
Fore
SplineSet
1018 645 m 0,0,1
 1018 509 1018 509 979.5 387 c 128,-1,2
 941 265 941 265 868.5 173.5 c 128,-1,3
 796 82 796 82 692.5 28.5 c 128,-1,4
 589 -25 589 -25 459 -25 c 0,5,6
 371 -25 371 -25 300.5 3 c 128,-1,7
 230 31 230 31 180.5 83.5 c 128,-1,8
 131 136 131 136 104.5 210.5 c 128,-1,9
 78 285 78 285 78 379 c 0,10,11
 78 520 78 520 118.5 642.5 c 128,-1,12
 159 765 159 765 232.5 855.5 c 128,-1,13
 306 946 306 946 408.5 997.5 c 128,-1,14
 511 1049 511 1049 635 1049 c 0,15,16
 722 1049 722 1049 792.5 1021 c 128,-1,17
 863 993 863 993 913 940.5 c 128,-1,18
 963 888 963 888 990.5 813.5 c 128,-1,19
 1018 739 1018 739 1018 645 c 0,0,1
850 637 m 0,20,21
 850 702 850 702 834 752.5 c 128,-1,22
 818 803 818 803 789 837.5 c 128,-1,23
 760 872 760 872 719 890.5 c 128,-1,24
 678 909 678 909 627 909 c 0,25,26
 539 909 539 909 468 864 c 128,-1,27
 397 819 397 819 348 745.5 c 128,-1,28
 299 672 299 672 272.5 578.5 c 128,-1,29
 246 485 246 485 246 387 c 0,30,31
 246 325 246 325 261.5 274.5 c 128,-1,32
 277 224 277 224 305.5 188.5 c 128,-1,33
 334 153 334 153 375.5 134 c 128,-1,34
 417 115 417 115 469 115 c 0,35,36
 558 115 558 115 629 159.5 c 128,-1,37
 700 204 700 204 749 277.5 c 128,-1,38
 798 351 798 351 824 445 c 128,-1,39
 850 539 850 539 850 637 c 0,20,21
EndSplineSet
Substitution2: "SegoeUI-Italic-'smcp' Lowercase to Small Capitals lookup 27 subtable" O.c2sc
EndChar

StartChar: p
Encoding: 112 112 83
Width: 1110
GlyphClass: 2
Flags: W
AnchorPoint: "Anchor-15" 180 2100 basechar 0
AnchorPoint: "Anchor-14" 1290 2100 basechar 0
AnchorPoint: "Anchor-13" 670 63 basechar 0
AnchorPoint: "Anchor-12" 670 63 basechar 0
AnchorPoint: "Anchor-11" -90 -480 basechar 0
AnchorPoint: "Anchor-9" 1040 903 basechar 0
AnchorPoint: "Anchor-8" 882 -420 basechar 0
AnchorPoint: "Anchor-7" 1212 1900 basechar 0
AnchorPoint: "Anchor-6" 580 495 basechar 0
AnchorPoint: "Anchor-5" 1000 943 basechar 0
AnchorPoint: "Anchor-2" 400 -470 basechar 0
AnchorPoint: "Anchor-1" 1100 1200 basechar 0
AnchorPoint: "Anchor-0" 720 1300 basechar 0
LayerCount: 2
Fore
SplineSet
1032 666 m 0,0,1
 1032 592 1032 592 1016 512.5 c 128,-1,2
 1000 433 1000 433 967 356 c 128,-1,3
 934 279 934 279 884.5 210 c 128,-1,4
 835 141 835 141 768 88.5 c 128,-1,5
 701 36 701 36 616 5.5 c 128,-1,6
 531 -25 531 -25 428 -25 c 0,7,8
 369 -25 369 -25 311.5 -14 c 128,-1,9
 254 -3 254 -3 211 12 c 1,10,-1
 109 -475 l 1,11,-1
 -57 -475 l 1,12,-1
 193 709 l 2,13,14
 200 741 200 741 206 786 c 128,-1,15
 212 831 212 831 216.5 876.5 c 128,-1,16
 221 922 221 922 224 962 c 128,-1,17
 227 1002 227 1002 227 1024 c 1,18,-1
 395 1024 l 1,19,20
 395 1007 395 1007 392.5 978 c 128,-1,21
 390 949 390 949 386 917.5 c 128,-1,22
 382 886 382 886 378 856.5 c 128,-1,23
 374 827 374 827 371 809 c 1,24,-1
 375 809 l 1,25,26
 446 930 446 930 535 989.5 c 128,-1,27
 624 1049 624 1049 729 1049 c 0,28,29
 799 1049 799 1049 855 1025 c 128,-1,30
 911 1001 911 1001 950.5 953 c 128,-1,31
 990 905 990 905 1011 833 c 128,-1,32
 1032 761 1032 761 1032 666 c 0,0,1
864 659 m 0,33,34
 864 713 864 713 854.5 759 c 128,-1,35
 845 805 845 805 823 838 c 128,-1,36
 801 871 801 871 766.5 890 c 128,-1,37
 732 909 732 909 682 909 c 0,38,39
 630 909 630 909 584.5 887.5 c 128,-1,40
 539 866 539 866 500 830 c 128,-1,41
 461 794 461 794 429 746.5 c 128,-1,42
 397 699 397 699 372 648 c 128,-1,43
 347 597 347 597 329.5 545.5 c 128,-1,44
 312 494 312 494 303 449 c 2,45,-1
 240 152 l 1,46,47
 258 144 258 144 283 137.5 c 128,-1,48
 308 131 308 131 335 126 c 128,-1,49
 362 121 362 121 390 118 c 128,-1,50
 418 115 418 115 442 115 c 0,51,52
 511 115 511 115 569.5 138 c 128,-1,53
 628 161 628 161 674.5 200.5 c 128,-1,54
 721 240 721 240 756.5 293.5 c 128,-1,55
 792 347 792 347 816 407.5 c 128,-1,56
 840 468 840 468 852 532.5 c 128,-1,57
 864 597 864 597 864 659 c 0,33,34
EndSplineSet
Substitution2: "SegoeUI-Italic-'smcp' Lowercase to Small Capitals lookup 27 subtable" P.c2sc
EndChar

StartChar: q
Encoding: 113 113 84
Width: 1110
GlyphClass: 2
Flags: W
AnchorPoint: "Anchor-15" 180 2100 basechar 0
AnchorPoint: "Anchor-14" 1290 2100 basechar 0
AnchorPoint: "Anchor-13" 660 -470 basechar 0
AnchorPoint: "Anchor-12" 650 -470 basechar 0
AnchorPoint: "Anchor-11" 550 -480 basechar 0
AnchorPoint: "Anchor-9" 1070 1027 basechar 0
AnchorPoint: "Anchor-8" 897 -420 basechar 0
AnchorPoint: "Anchor-7" 1227 1900 basechar 0
AnchorPoint: "Anchor-6" 530 531 basechar 0
AnchorPoint: "Anchor-5" 1040 1027 basechar 0
AnchorPoint: "Anchor-2" 400 -470 basechar 0
AnchorPoint: "Anchor-1" 1130 1200 basechar 0
AnchorPoint: "Anchor-0" 770 1300 basechar 0
LayerCount: 2
Fore
SplineSet
735 -475 m 1,0,-1
 569 -475 l 1,1,-1
 670 -2 l 2,2,3
 679 47 679 47 691.5 101 c 128,-1,4
 704 155 704 155 715 197 c 1,5,-1
 713 197 l 1,6,7
 679 145 679 145 642.5 103.5 c 128,-1,8
 606 62 606 62 565.5 33.5 c 128,-1,9
 525 5 525 5 479.5 -10 c 128,-1,10
 434 -25 434 -25 381 -25 c 0,11,12
 311 -25 311 -25 254.5 0 c 128,-1,13
 198 25 198 25 159 74 c 128,-1,14
 120 123 120 123 99 194 c 128,-1,15
 78 265 78 265 78 358 c 0,16,17
 78 424 78 424 91.5 501 c 128,-1,18
 105 578 105 578 135.5 655 c 128,-1,19
 166 732 166 732 214.5 803 c 128,-1,20
 263 874 263 874 333 928.5 c 128,-1,21
 403 983 403 983 496 1016 c 128,-1,22
 589 1049 589 1049 707 1049 c 0,23,24
 761 1049 761 1049 811.5 1044 c 128,-1,25
 862 1039 862 1039 905.5 1032 c 128,-1,26
 949 1025 949 1025 985 1016.5 c 128,-1,27
 1021 1008 1021 1008 1047 1001 c 1,28,-1
 735 -475 l 1,0,-1
858 885 m 1,29,30
 823 894 823 894 782 901.5 c 128,-1,31
 741 909 741 909 688 909 c 0,32,33
 603 909 603 909 537 882 c 128,-1,34
 471 855 471 855 421.5 810.5 c 128,-1,35
 372 766 372 766 338.5 709 c 128,-1,36
 305 652 305 652 284.5 591.5 c 128,-1,37
 264 531 264 531 255 472 c 128,-1,38
 246 413 246 413 246 365 c 0,39,40
 246 311 246 311 255 265 c 128,-1,41
 264 219 264 219 285 186 c 128,-1,42
 306 153 306 153 340 134 c 128,-1,43
 374 115 374 115 424 115 c 0,44,45
 476 115 476 115 521 137 c 128,-1,46
 566 159 566 159 604 195.5 c 128,-1,47
 642 232 642 232 673 279 c 128,-1,48
 704 326 704 326 727.5 377.5 c 128,-1,49
 751 429 751 429 767.5 480 c 128,-1,50
 784 531 784 531 793 575 c 2,51,-1
 858 885 l 1,29,30
EndSplineSet
Substitution2: "SegoeUI-Italic-'smcp' Lowercase to Small Capitals lookup 27 subtable" Q.c2sc
EndChar

StartChar: r
Encoding: 114 114 85
Width: 727
GlyphClass: 2
Flags: W
AnchorPoint: "Anchor-15" 180 2100 basechar 0
AnchorPoint: "Anchor-14" 907 2100 basechar 0
AnchorPoint: "Anchor-13" 130 0 basechar 0
AnchorPoint: "Anchor-12" 120 0 basechar 0
AnchorPoint: "Anchor-11" 20 0 basechar 0
AnchorPoint: "Anchor-10" 110 0 basechar 0
AnchorPoint: "Anchor-9" 840 1026 basechar 0
AnchorPoint: "Anchor-8" 645 -420 basechar 0
AnchorPoint: "Anchor-7" 975 1900 basechar 0
AnchorPoint: "Anchor-6" 240 485 basechar 0
AnchorPoint: "Anchor-5" 780 1030 basechar 0
AnchorPoint: "Anchor-2" 100 -15 basechar 0
AnchorPoint: "Anchor-1" 870 1200 basechar 0
AnchorPoint: "Anchor-0" 620 1300 basechar 0
LayerCount: 2
Fore
SplineSet
766 850 m 1,0,-1
 762 850 l 1,1,2
 742 862 742 862 709.5 873.5 c 128,-1,3
 677 885 677 885 645 885 c 0,4,5
 587 885 587 885 534 847.5 c 128,-1,6
 481 810 481 810 437.5 748.5 c 128,-1,7
 394 687 394 687 361.5 608 c 128,-1,8
 329 529 329 529 311 446 c 2,9,-1
 215 0 l 1,10,-1
 51 0 l 1,11,-1
 195 680 l 2,12,13
 204 722 204 722 213 768 c 128,-1,14
 222 814 222 814 229.5 860 c 128,-1,15
 237 906 237 906 243 948 c 128,-1,16
 249 990 249 990 252 1024 c 1,17,-1
 414 1024 l 1,18,19
 411 994 411 994 407 960.5 c 128,-1,20
 403 927 403 927 399 895.5 c 128,-1,21
 395 864 395 864 391 838.5 c 128,-1,22
 387 813 387 813 385 799 c 1,23,-1
 389 799 l 1,24,25
 421 856 421 856 454 902 c 128,-1,26
 487 948 487 948 523.5 980.5 c 128,-1,27
 560 1013 560 1013 601 1031 c 128,-1,28
 642 1049 642 1049 690 1049 c 0,29,30
 718 1049 718 1049 745.5 1043.5 c 128,-1,31
 773 1038 773 1038 795 1032 c 1,32,-1
 766 850 l 1,0,-1
EndSplineSet
Substitution2: "SegoeUI-Italic-'smcp' Lowercase to Small Capitals lookup 27 subtable" R.c2sc
EndChar

StartChar: s
Encoding: 115 115 86
Width: 809
GlyphClass: 2
Flags: W
AnchorPoint: "Anchor-15" 180 2100 basechar 0
AnchorPoint: "Anchor-14" 989 2100 basechar 0
AnchorPoint: "Anchor-13" 500 80 basechar 0
AnchorPoint: "Anchor-12" 500 80 basechar 0
AnchorPoint: "Anchor-11" 310 0 basechar 0
AnchorPoint: "Anchor-10" 274 -15 basechar 0
AnchorPoint: "Anchor-9" 800 1011 basechar 0
AnchorPoint: "Anchor-8" 610 -420 basechar 0
AnchorPoint: "Anchor-7" 940 1900 basechar 0
AnchorPoint: "Anchor-6" 434 536 basechar 0
AnchorPoint: "Anchor-5" 750 1020 basechar 0
AnchorPoint: "Anchor-2" 280 -25 basechar 0
AnchorPoint: "Anchor-1" 860 1200 basechar 0
AnchorPoint: "Anchor-0" 550 1300 basechar 0
LayerCount: 2
Fore
SplineSet
725 844 m 1,0,1
 680 873 680 873 624 891 c 128,-1,2
 568 909 568 909 512 909 c 0,3,4
 418 909 418 909 366.5 866 c 128,-1,5
 315 823 315 823 315 752 c 0,6,7
 315 723 315 723 324.5 699 c 128,-1,8
 334 675 334 675 352.5 653.5 c 128,-1,9
 371 632 371 632 399.5 612 c 128,-1,10
 428 592 428 592 465 569 c 0,11,12
 577 504 577 504 626.5 435.5 c 128,-1,13
 676 367 676 367 676 281 c 0,14,15
 676 223 676 223 654.5 167.5 c 128,-1,16
 633 112 633 112 586 69.5 c 128,-1,17
 539 27 539 27 464.5 1 c 128,-1,18
 390 -25 390 -25 283 -25 c 0,19,20
 253 -25 253 -25 217 -21 c 128,-1,21
 181 -17 181 -17 144.5 -9 c 128,-1,22
 108 -1 108 -1 74.5 10.5 c 128,-1,23
 41 22 41 22 16 37 c 1,24,-1
 49 193 l 1,25,26
 69 179 69 179 98.5 165 c 128,-1,27
 128 151 128 151 162.5 140 c 128,-1,28
 197 129 197 129 234.5 122 c 128,-1,29
 272 115 272 115 309 115 c 0,30,31
 409 115 409 115 458.5 155 c 128,-1,32
 508 195 508 195 508 266 c 0,33,34
 508 292 508 292 500.5 314 c 128,-1,35
 493 336 493 336 474 358 c 128,-1,36
 455 380 455 380 424 402.5 c 128,-1,37
 393 425 393 425 346 453 c 0,38,39
 244 515 244 515 195.5 582.5 c 128,-1,40
 147 650 147 650 147 735 c 0,41,42
 147 797 147 797 170 853.5 c 128,-1,43
 193 910 193 910 238.5 953.5 c 128,-1,44
 284 997 284 997 353 1023 c 128,-1,45
 422 1049 422 1049 514 1049 c 0,46,47
 586 1049 586 1049 650.5 1035 c 128,-1,48
 715 1021 715 1021 760 999 c 1,49,-1
 725 844 l 1,0,1
EndSplineSet
Substitution2: "SegoeUI-Italic-'smcp' Lowercase to Small Capitals lookup 27 subtable" S.c2sc
EndChar

StartChar: t
Encoding: 116 116 87
Width: 662
GlyphClass: 2
Flags: W
AnchorPoint: "Anchor-15" 180 2100 basechar 0
AnchorPoint: "Anchor-14" 842 2100 basechar 0
AnchorPoint: "Anchor-13" 420 0 basechar 0
AnchorPoint: "Anchor-12" 410 0 basechar 0
AnchorPoint: "Anchor-11" 290 -15 basechar 0
AnchorPoint: "Anchor-10" 297 0 basechar 0
AnchorPoint: "Anchor-9" 700 1027 basechar 0
AnchorPoint: "Anchor-8" 571 -420 basechar 0
AnchorPoint: "Anchor-7" 901 1900 basechar 0
AnchorPoint: "Anchor-6" 300 539 basechar 0
AnchorPoint: "Anchor-5" 700 1022 basechar 0
AnchorPoint: "Anchor-2" 234 -25 basechar 0
AnchorPoint: "Anchor-1" 660 1400 basechar 0
AnchorPoint: "Anchor-0" 480 1500 basechar 0
LayerCount: 2
Fore
SplineSet
690 885 m 1,0,-1
 432 885 l 1,1,-1
 317 342 l 2,2,3
 311 311 311 311 305 275 c 128,-1,4
 299 239 299 239 299 217 c 0,5,6
 299 166 299 166 321.5 143.5 c 128,-1,7
 344 121 344 121 393 121 c 0,8,9
 405 121 405 121 424 125 c 128,-1,10
 443 129 443 129 463 135 c 128,-1,11
 483 141 483 141 502.5 148.5 c 128,-1,12
 522 156 522 156 537 162 c 1,13,-1
 506 18 l 1,14,15
 471 3 471 3 426.5 -7.5 c 128,-1,16
 382 -18 382 -18 342 -18 c 0,17,18
 285 -18 285 -18 245 -3.5 c 128,-1,19
 205 11 205 11 179.5 38 c 128,-1,20
 154 65 154 65 142.5 103.5 c 128,-1,21
 131 142 131 142 131 190 c 0,22,23
 131 219 131 219 136.5 257.5 c 128,-1,24
 142 296 142 296 150 328 c 2,25,-1
 268 885 l 1,26,-1
 98 885 l 1,27,-1
 129 1024 l 1,28,-1
 297 1024 l 1,29,-1
 350 1274 l 2,30,31
 354 1276 354 1276 380.5 1283.5 c 128,-1,32
 407 1291 407 1291 438.5 1300.5 c 128,-1,33
 470 1310 470 1310 496.5 1318 c 128,-1,34
 523 1326 523 1326 526 1327 c 1,35,-1
 463 1024 l 1,36,-1
 721 1024 l 1,37,-1
 690 885 l 1,0,-1
EndSplineSet
Substitution2: "SegoeUI-Italic-'smcp' Lowercase to Small Capitals lookup 27 subtable" T.c2sc
EndChar

StartChar: u
Encoding: 117 117 88
Width: 1143
GlyphClass: 2
Flags: W
AnchorPoint: "Anchor-15" 180 2100 basechar 0
AnchorPoint: "Anchor-14" 1323 2100 basechar 0
AnchorPoint: "Anchor-13" 790 0 basechar 0
AnchorPoint: "Anchor-12" 790 0 basechar 0
AnchorPoint: "Anchor-11" 680 0 basechar 0
AnchorPoint: "Anchor-10" 379 -15 basechar 0
AnchorPoint: "Anchor-9" 1120 1020 basechar 0
AnchorPoint: "Anchor-8" 937 -420 basechar 0
AnchorPoint: "Anchor-7" 1267 1900 basechar 0
AnchorPoint: "Anchor-6" 560 524 basechar 0
AnchorPoint: "Anchor-5" 1070 1020 basechar 0
AnchorPoint: "Anchor-2" 400 -25 basechar 0
AnchorPoint: "Anchor-1" 1150 1200 basechar 0
AnchorPoint: "Anchor-0" 700 1300 basechar 0
LayerCount: 2
Fore
SplineSet
930 291 m 2,0,1
 921 252 921 252 913.5 210 c 128,-1,2
 906 168 906 168 899 129 c 128,-1,3
 892 90 892 90 887 56 c 128,-1,4
 882 22 882 22 879 0 c 1,5,-1
 719 0 l 1,6,7
 724 39 724 39 730.5 81.5 c 128,-1,8
 737 124 737 124 743 160 c 0,9,10
 750 202 750 202 756 242 c 1,11,-1
 752 242 l 1,12,13
 717 187 717 187 674.5 138.5 c 128,-1,14
 632 90 632 90 582.5 53.5 c 128,-1,15
 533 17 533 17 477.5 -4 c 128,-1,16
 422 -25 422 -25 362 -25 c 0,17,18
 296 -25 296 -25 246.5 -4.5 c 128,-1,19
 197 16 197 16 164 53 c 128,-1,20
 131 90 131 90 114.5 142 c 128,-1,21
 98 194 98 194 98 258 c 0,22,23
 98 271 98 271 102 297 c 128,-1,24
 106 323 106 323 111 353 c 128,-1,25
 116 383 116 383 122.5 412.5 c 128,-1,26
 129 442 129 442 133 463 c 2,27,-1
 252 1024 l 1,28,-1
 418 1024 l 1,29,-1
 291 424 l 2,30,31
 287 408 287 408 283 387 c 128,-1,32
 279 366 279 366 275.5 345 c 128,-1,33
 272 324 272 324 270 306.5 c 128,-1,34
 268 289 268 289 268 279 c 0,35,36
 268 204 268 204 304.5 159.5 c 128,-1,37
 341 115 341 115 414 115 c 0,38,39
 458 115 458 115 502 133 c 128,-1,40
 546 151 546 151 587.5 181.5 c 128,-1,41
 629 212 629 212 666 252.5 c 128,-1,42
 703 293 703 293 733 338.5 c 128,-1,43
 763 384 763 384 784 432 c 128,-1,44
 805 480 805 480 815 524 c 2,45,-1
 922 1024 l 1,46,-1
 1087 1024 l 1,47,-1
 930 291 l 2,0,1
EndSplineSet
Substitution2: "SegoeUI-Italic-'smcp' Lowercase to Small Capitals lookup 27 subtable" U.c2sc
EndChar

StartChar: v
Encoding: 118 118 89
Width: 969
GlyphClass: 2
Flags: W
AnchorPoint: "Anchor-15" 180 2100 basechar 0
AnchorPoint: "Anchor-14" 1149 2100 basechar 0
AnchorPoint: "Anchor-13" 365 0 basechar 0
AnchorPoint: "Anchor-12" 365 0 basechar 0
AnchorPoint: "Anchor-11" 270 0 basechar 0
AnchorPoint: "Anchor-9" 1060 1024 basechar 0
AnchorPoint: "Anchor-8" 909 -420 basechar 0
AnchorPoint: "Anchor-7" 1239 1900 basechar 0
AnchorPoint: "Anchor-6" 535 620 basechar 0
AnchorPoint: "Anchor-5" 1010 1024 basechar 0
AnchorPoint: "Anchor-2" 350 -15 basechar 0
AnchorPoint: "Anchor-1" 1130 1200 basechar 0
AnchorPoint: "Anchor-0" 620 1300 basechar 0
LayerCount: 2
Fore
SplineSet
438 0 m 1,0,-1
 299 0 l 1,1,-1
 137 1024 l 1,2,-1
 303 1024 l 1,3,-1
 393 379 l 2,4,5
 396 360 396 360 398.5 336 c 128,-1,6
 401 312 401 312 403.5 287 c 128,-1,7
 406 262 406 262 407 238 c 128,-1,8
 408 214 408 214 408 195 c 1,9,-1
 412 195 l 1,10,11
 420 213 420 213 430.5 236 c 128,-1,12
 441 259 441 259 454 283.5 c 128,-1,13
 467 308 467 308 480.5 333 c 128,-1,14
 494 358 494 358 506 379 c 2,15,-1
 872 1024 l 1,16,-1
 1059 1024 l 1,17,-1
 438 0 l 1,0,-1
EndSplineSet
Substitution2: "SegoeUI-Italic-'smcp' Lowercase to Small Capitals lookup 27 subtable" V.c2sc
EndChar

StartChar: w
Encoding: 119 119 90
Width: 1475
GlyphClass: 2
Flags: W
AnchorPoint: "Anchor-15" 180 2100 basechar 0
AnchorPoint: "Anchor-14" 1655 2100 basechar 0
AnchorPoint: "Anchor-13" 945 0 basechar 0
AnchorPoint: "Anchor-12" 940 0 basechar 0
AnchorPoint: "Anchor-11" 840 0 basechar 0
AnchorPoint: "Anchor-9" 1560 1024 basechar 0
AnchorPoint: "Anchor-8" 1398 -420 basechar 0
AnchorPoint: "Anchor-7" 1728 1900 basechar 0
AnchorPoint: "Anchor-6" 740 512 basechar 0
AnchorPoint: "Anchor-5" 1510 1024 basechar 0
AnchorPoint: "Anchor-2" 605 -15 basechar 0
AnchorPoint: "Anchor-1" 1620 1200 basechar 0
AnchorPoint: "Anchor-0" 935 1300 basechar 0
LayerCount: 2
Fore
SplineSet
1024 0 m 1,0,-1
 862 0 l 1,1,-1
 803 727 l 2,2,3
 802 736 802 736 802 750 c 256,4,5
 802 764 802 764 802.5 778 c 128,-1,6
 803 792 803 792 804.5 805.5 c 128,-1,7
 806 819 806 819 807 827 c 1,8,-1
 803 827 l 1,9,10
 800 817 800 817 795 804 c 128,-1,11
 790 791 790 791 784 776.5 c 128,-1,12
 778 762 778 762 771.5 748.5 c 128,-1,13
 765 735 765 735 760 725 c 2,14,-1
 377 0 l 1,15,-1
 215 0 l 1,16,-1
 125 1024 l 1,17,-1
 283 1024 l 1,18,-1
 332 258 l 2,19,20
 334 236 334 236 332.5 210.5 c 128,-1,21
 331 185 331 185 328 162 c 1,22,-1
 334 162 l 1,23,24
 342 185 342 185 352.5 213.5 c 128,-1,25
 363 242 363 242 373 262 c 2,26,-1
 772 1024 l 1,27,-1
 918 1024 l 1,28,-1
 975 256 l 2,29,30
 977 233 977 233 974.5 206.5 c 128,-1,31
 972 180 972 180 969 160 c 1,32,-1
 977 160 l 1,33,34
 979 170 979 170 983.5 182.5 c 128,-1,35
 988 195 988 195 993 208.5 c 128,-1,36
 998 222 998 222 1003.5 235 c 128,-1,37
 1009 248 1009 248 1014 258 c 2,38,-1
 1382 1024 l 1,39,-1
 1548 1024 l 1,40,-1
 1024 0 l 1,0,-1
EndSplineSet
Substitution2: "SegoeUI-Italic-'smcp' Lowercase to Small Capitals lookup 27 subtable" W.c2sc
EndChar

StartChar: x
Encoding: 120 120 91
Width: 932
GlyphClass: 2
Flags: W
AnchorPoint: "Anchor-15" 180 2100 basechar 0
AnchorPoint: "Anchor-14" 1112 2100 basechar 0
AnchorPoint: "Anchor-11" 570 0 basechar 0
AnchorPoint: "Anchor-9" 980 1024 basechar 0
AnchorPoint: "Anchor-8" 868 -420 basechar 0
AnchorPoint: "Anchor-7" 1198 1900 basechar 0
AnchorPoint: "Anchor-6" 470 512 basechar 0
AnchorPoint: "Anchor-5" 940 1024 basechar 0
AnchorPoint: "Anchor-2" 320 -15 basechar 0
AnchorPoint: "Anchor-1" 1080 1200 basechar 0
AnchorPoint: "Anchor-0" 610 1300 basechar 0
LayerCount: 2
Fore
SplineSet
559 500 m 1,0,-1
 795 0 l 1,1,-1
 614 -2 l 1,2,-1
 485 319 l 2,3,4
 479 335 479 335 468.5 362 c 128,-1,5
 458 389 458 389 449 412 c 1,6,-1
 444 412 l 1,7,8
 437 402 437 402 427.5 389.5 c 128,-1,9
 418 377 418 377 409 365 c 128,-1,10
 400 353 400 353 391.5 342.5 c 128,-1,11
 383 332 383 332 377 324 c 2,12,-1
 109 0 l 1,13,-1
 -86 0 l 1,14,-1
 375 510 l 1,15,-1
 145 1024 l 1,16,-1
 326 1024 l 1,17,-1
 449 698 l 2,18,19
 458 674 458 674 467 646 c 128,-1,20
 476 618 476 618 481 602 c 1,21,-1
 485 602 l 1,22,23
 491 609 491 609 499 619.5 c 128,-1,24
 507 630 507 630 516 642 c 128,-1,25
 525 654 525 654 534.5 666 c 128,-1,26
 544 678 544 678 553 688 c 2,27,-1
 831 1024 l 1,28,-1
 1018 1024 l 1,29,-1
 559 500 l 1,0,-1
EndSplineSet
Substitution2: "SegoeUI-Italic-'smcp' Lowercase to Small Capitals lookup 27 subtable" X.c2sc
EndChar

StartChar: y
Encoding: 121 121 92
Width: 991
GlyphClass: 2
Flags: W
AnchorPoint: "Anchor-15" 180 2100 basechar 0
AnchorPoint: "Anchor-14" 1171 2100 basechar 0
AnchorPoint: "Anchor-11" -10 -440 basechar 0
AnchorPoint: "Anchor-9" 1080 1036 basechar 0
AnchorPoint: "Anchor-8" 944 -420 basechar 0
AnchorPoint: "Anchor-7" 1274 1900 basechar 0
AnchorPoint: "Anchor-6" 495 602 basechar 0
AnchorPoint: "Anchor-5" 1040 1020 basechar 0
AnchorPoint: "Anchor-2" 355 -470 basechar 0
AnchorPoint: "Anchor-1" 1160 1200 basechar 0
AnchorPoint: "Anchor-0" 625 1300 basechar 0
LayerCount: 2
Fore
SplineSet
367 -170 m 2,0,1
 321 -245 321 -245 274 -302.5 c 128,-1,2
 227 -360 227 -360 175.5 -400 c 128,-1,3
 124 -440 124 -440 65.5 -460.5 c 128,-1,4
 7 -481 7 -481 -63 -481 c 0,5,6
 -86 -481 -86 -481 -114.5 -476.5 c 128,-1,7
 -143 -472 -143 -472 -160 -467 c 1,8,-1
 -129 -322 l 1,9,10
 -114 -330 -114 -330 -90 -335 c 128,-1,11
 -66 -340 -66 -340 -43 -340 c 0,12,13
 26 -340 26 -340 81.5 -302 c 128,-1,14
 137 -264 137 -264 186 -186 c 2,15,-1
 309 4 l 1,16,-1
 123 1024 l 1,17,-1
 293 1024 l 1,18,-1
 412 238 l 2,19,20
 415 216 415 216 415.5 195.5 c 128,-1,21
 416 175 416 175 414 160 c 1,22,-1
 420 160 l 1,23,24
 425 172 425 172 435.5 194 c 128,-1,25
 446 216 446 216 459 236 c 2,26,-1
 913 1024 l 1,27,-1
 1094 1024 l 1,28,-1
 367 -170 l 2,0,1
EndSplineSet
Substitution2: "SegoeUI-Italic-'smcp' Lowercase to Small Capitals lookup 27 subtable" Y.c2sc
EndChar

StartChar: z
Encoding: 122 122 93
Width: 926
GlyphClass: 2
Flags: W
AnchorPoint: "Anchor-15" 180 2100 basechar 0
AnchorPoint: "Anchor-14" 1106 2100 basechar 0
AnchorPoint: "Anchor-13" 680 0 basechar 0
AnchorPoint: "Anchor-12" 680 0 basechar 0
AnchorPoint: "Anchor-11" 520 0 basechar 0
AnchorPoint: "Anchor-9" 980 1024 basechar 0
AnchorPoint: "Anchor-8" 841 -420 basechar 0
AnchorPoint: "Anchor-7" 1171 1900 basechar 0
AnchorPoint: "Anchor-6" 463 512 basechar 0
AnchorPoint: "Anchor-5" 940 1024 basechar 0
AnchorPoint: "Anchor-2" 300 -15 basechar 0
AnchorPoint: "Anchor-1" 1050 1200 basechar 0
AnchorPoint: "Anchor-0" 660 1300 basechar 0
LayerCount: 2
Fore
SplineSet
981 975 m 1,0,-1
 213 139 l 1,1,-1
 795 139 l 1,2,-1
 764 0 l 1,3,-1
 -78 0 l 1,4,-1
 -66 53 l 1,5,-1
 702 885 l 1,6,-1
 168 885 l 1,7,-1
 199 1024 l 1,8,-1
 991 1024 l 1,9,-1
 981 975 l 1,0,-1
EndSplineSet
Substitution2: "SegoeUI-Italic-'smcp' Lowercase to Small Capitals lookup 27 subtable" Z.c2sc
EndChar

StartChar: braceleft
Encoding: 123 123 94
Width: 623
GlyphClass: 2
Flags: W
LayerCount: 2
Fore
SplineSet
709 1309 m 1,0,1
 632 1309 632 1309 581.5 1264 c 128,-1,2
 531 1219 531 1219 508 1112 c 2,3,-1
 446 829 l 2,4,5
 422 717 422 717 373 647.5 c 128,-1,6
 324 578 324 578 250 555 c 1,7,-1
 250 551 l 1,8,9
 288 532 288 532 314 489.5 c 128,-1,10
 340 447 340 447 340 373 c 0,11,12
 340 351 340 351 338 328 c 128,-1,13
 336 305 336 305 330 279 c 2,14,-1
 274 20 l 2,15,16
 269 -6 269 -6 265.5 -29 c 128,-1,17
 262 -52 262 -52 262 -72 c 0,18,19
 262 -132 262 -132 293.5 -159.5 c 128,-1,20
 325 -187 325 -187 391 -190 c 1,21,-1
 365 -311 l 1,22,23
 299 -310 299 -310 251.5 -293 c 128,-1,24
 204 -276 204 -276 173.5 -246.5 c 128,-1,25
 143 -217 143 -217 129 -177.5 c 128,-1,26
 115 -138 115 -138 115 -90 c 0,27,28
 115 -68 115 -68 117.5 -46.5 c 128,-1,29
 120 -25 120 -25 125 -2 c 2,30,-1
 186 283 l 2,31,32
 191 304 191 304 193 324 c 128,-1,33
 195 344 195 344 195 362 c 0,34,35
 195 425 195 425 165 462 c 128,-1,36
 135 499 135 499 72 504 c 1,37,-1
 98 618 l 1,38,39
 181 623 181 623 229.5 672.5 c 128,-1,40
 278 722 278 722 301 829 c 2,41,-1
 362 1118 l 2,42,43
 382 1213 382 1213 418 1273.5 c 128,-1,44
 454 1334 454 1334 502.5 1369.5 c 128,-1,45
 551 1405 551 1405 610 1419 c 128,-1,46
 669 1433 669 1433 735 1434 c 1,47,-1
 709 1309 l 1,0,1
EndSplineSet
Position2: "SegoeUI-Italic-'case' Case-Sensitive Forms lookup 15 subtable" dx=30 dy=140 dh=0 dv=0
EndChar

StartChar: bar
Encoding: 124 124 95
Width: 492
GlyphClass: 2
Flags: W
LayerCount: 2
Fore
SplineSet
174 -481 m 1,0,-1
 174 1567 l 1,1,-1
 319 1567 l 1,2,-1
 319 -481 l 1,3,-1
 174 -481 l 1,0,-1
EndSplineSet
EndChar

StartChar: braceright
Encoding: 125 125 96
Width: 623
GlyphClass: 2
Flags: W
LayerCount: 2
Fore
SplineSet
524 504 m 1,0,1
 483 502 483 502 450.5 489 c 128,-1,2
 418 476 418 476 393 450.5 c 128,-1,3
 368 425 368 425 350.5 386 c 128,-1,4
 333 347 333 347 322 293 c 2,5,-1
 260 6 l 2,6,7
 240 -89 240 -89 204.5 -150 c 128,-1,8
 169 -211 169 -211 121 -246 c 128,-1,9
 73 -281 73 -281 14 -295 c 128,-1,10
 -45 -309 -45 -309 -111 -309 c 1,11,-1
 -86 -186 l 1,12,13
 -8 -185 -8 -185 43 -140 c 128,-1,14
 94 -95 94 -95 117 12 c 2,15,-1
 176 293 l 2,16,17
 201 405 201 405 250 475.5 c 128,-1,18
 299 546 299 546 375 569 c 1,19,-1
 375 573 l 1,20,21
 337 592 337 592 310 634.5 c 128,-1,22
 283 677 283 677 283 752 c 0,23,24
 283 772 283 772 285.5 796 c 128,-1,25
 288 820 288 820 293 846 c 2,26,-1
 348 1104 l 2,27,28
 360 1154 360 1154 360 1194 c 0,29,30
 360 1254 360 1254 330 1282.5 c 128,-1,31
 300 1311 300 1311 233 1313 c 1,32,-1
 258 1434 l 1,33,34
 325 1433 325 1433 372.5 1416.5 c 128,-1,35
 420 1400 420 1400 450 1371 c 128,-1,36
 480 1342 480 1342 494 1302 c 128,-1,37
 508 1262 508 1262 508 1214 c 0,38,39
 508 1193 508 1193 505.5 1171 c 128,-1,40
 503 1149 503 1149 498 1126 c 2,41,-1
 438 842 l 2,42,43
 433 819 433 819 430.5 799.5 c 128,-1,44
 428 780 428 780 428 762 c 0,45,46
 428 697 428 697 458.5 660.5 c 128,-1,47
 489 624 489 624 551 621 c 1,48,-1
 524 504 l 1,0,1
EndSplineSet
Position2: "SegoeUI-Italic-'case' Case-Sensitive Forms lookup 15 subtable" dx=30 dy=140 dh=0 dv=0
EndChar

StartChar: asciitilde
Encoding: 126 126 97
Width: 1403
GlyphClass: 2
Flags: W
LayerCount: 2
Fore
SplineSet
1210 750 m 1,0,1
 1207 683 1207 683 1188.5 626 c 128,-1,2
 1170 569 1170 569 1135.5 528 c 128,-1,3
 1101 487 1101 487 1049.5 463.5 c 128,-1,4
 998 440 998 440 930 440 c 0,5,6
 891 440 891 440 857 448.5 c 128,-1,7
 823 457 823 457 791.5 472 c 128,-1,8
 760 487 760 487 730 507 c 128,-1,9
 700 527 700 527 668 549 c 0,10,11
 650 561 650 561 630.5 572.5 c 128,-1,12
 611 584 611 584 590.5 594 c 128,-1,13
 570 604 570 604 548.5 610 c 128,-1,14
 527 616 527 616 506 616 c 0,15,16
 437 616 437 616 400.5 570.5 c 128,-1,17
 364 525 364 525 360 440 c 1,18,-1
 225 440 l 1,19,20
 228 508 228 508 247 565 c 128,-1,21
 266 622 266 622 301 663 c 128,-1,22
 336 704 336 704 387.5 727 c 128,-1,23
 439 750 439 750 506 750 c 0,24,25
 544 750 544 750 577 742.5 c 128,-1,26
 610 735 610 735 638.5 722.5 c 128,-1,27
 667 710 667 710 692 694 c 128,-1,28
 717 678 717 678 741 662 c 0,29,30
 774 640 774 640 799.5 622.5 c 128,-1,31
 825 605 825 605 847 594 c 128,-1,32
 869 583 869 583 891 577 c 128,-1,33
 913 571 913 571 938 571 c 0,34,35
 969 571 969 571 994 584 c 128,-1,36
 1019 597 1019 597 1036.5 621 c 128,-1,37
 1054 645 1054 645 1064 678 c 128,-1,38
 1074 711 1074 711 1075 750 c 1,39,-1
 1210 750 l 1,0,1
EndSplineSet
EndChar

StartChar: Aring
Encoding: 197 197 99
Width: 1294
GlyphClass: 2
Flags: W
AnchorPoint: "Anchor-15" 180 2100 basechar 0
AnchorPoint: "Anchor-14" 1474 2100 basechar 0
AnchorPoint: "Anchor-11" 975 0 basechar 0
AnchorPoint: "Anchor-8" 1026 -420 basechar 0
AnchorPoint: "Anchor-7" 1356 2100 basechar 0
AnchorPoint: "Anchor-2" 500 -15 basechar 0
AnchorPoint: "Anchor-1" 1255 1660 basechar 0
AnchorPoint: "Anchor-0" 850 1920 basechar 0
LayerCount: 2
Fore
SplineSet
999 0 m 1,0,-1
 934 401 l 1,1,-1
 326 401 l 1,2,-1
 94 0 l 1,3,-1
 -104 0 l 1,4,-1
 721 1384 l 1,5,6
 683 1407 683 1407 659 1447.5 c 128,-1,7
 635 1488 635 1488 635 1542 c 0,8,9
 635 1587 635 1587 651.5 1624 c 128,-1,10
 668 1661 668 1661 696.5 1687 c 128,-1,11
 725 1713 725 1713 763 1727 c 128,-1,12
 801 1741 801 1741 844 1741 c 0,13,14
 889 1741 889 1741 926 1726.5 c 128,-1,15
 963 1712 963 1712 990 1686.5 c 128,-1,16
 1017 1661 1017 1661 1032 1625.5 c 128,-1,17
 1047 1590 1047 1590 1047 1548 c 0,18,19
 1047 1489 1047 1489 1016 1444 c 128,-1,20
 985 1399 985 1399 936 1376 c 1,21,-1
 1176 0 l 1,22,-1
 999 0 l 1,0,-1
954 1548 m 0,23,24
 954 1573 954 1573 945 1593.5 c 128,-1,25
 936 1614 936 1614 920.5 1628.5 c 128,-1,26
 905 1643 905 1643 884.5 1651 c 128,-1,27
 864 1659 864 1659 840 1659 c 0,28,29
 789 1659 789 1659 758 1627.5 c 128,-1,30
 727 1596 727 1596 727 1548 c 0,31,32
 727 1493 727 1493 758.5 1463.5 c 128,-1,33
 790 1434 790 1434 840 1434 c 0,34,35
 889 1434 889 1434 921.5 1466.5 c 128,-1,36
 954 1499 954 1499 954 1548 c 0,23,24
815 1163 m 2,37,38
 814 1173 814 1173 813.5 1186 c 128,-1,39
 813 1199 813 1199 813 1212 c 0,40,41
 813 1226 813 1226 813 1238 c 0,42,43
 813 1251 813 1251 813 1260 c 1,44,-1
 809 1260 l 1,45,46
 806 1251 806 1251 801 1238.5 c 128,-1,47
 796 1226 796 1226 790 1212.5 c 128,-1,48
 784 1199 784 1199 777.5 1186 c 128,-1,49
 771 1173 771 1173 766 1163 c 2,50,-1
 412 553 l 1,51,-1
 907 553 l 1,52,-1
 815 1163 l 2,37,38
EndSplineSet
Substitution2: "SegoeUI-Italic-'c2sc' Capitals to Small Capitals lookup 26 subtable" Aring.c2sc
Position2: "SegoeUI-Italic-'cpsp' Capital Spacing lookup 12 subtable" dx=36 dy=0 dh=72 dv=0
EndChar

StartChar: Ccedilla
Encoding: 199 199 100
Width: 1309
GlyphClass: 2
Flags: W
AnchorPoint: "Anchor-15" 180 2100 basechar 0
AnchorPoint: "Anchor-14" 1489 2100 basechar 0
AnchorPoint: "Anchor-11" 690 -400 basechar 0
AnchorPoint: "Anchor-8" 1208 -420 basechar 0
AnchorPoint: "Anchor-7" 1538 1900 basechar 0
AnchorPoint: "Anchor-2" 650 -440 basechar 0
AnchorPoint: "Anchor-1" 1400 1500 basechar 0
AnchorPoint: "Anchor-0" 900 1600 basechar 0
LayerCount: 2
Fore
SplineSet
1116 51 m 1,0,1
 1029 13 1029 13 940.5 -6 c 128,-1,2
 852 -25 852 -25 750 -25 c 1,3,-1
 733 -104 l 1,4,5
 769 -104 769 -104 801.5 -112.5 c 128,-1,6
 834 -121 834 -121 858 -138 c 128,-1,7
 882 -155 882 -155 896.5 -180 c 128,-1,8
 911 -205 911 -205 911 -238 c 0,9,10
 911 -327 911 -327 836.5 -380.5 c 128,-1,11
 762 -434 762 -434 618 -434 c 0,12,13
 598 -434 598 -434 575 -432.5 c 128,-1,14
 552 -431 552 -431 530 -428 c 1,15,-1
 549 -340 l 1,16,17
 588 -346 588 -346 625 -346 c 0,18,19
 711 -346 711 -346 753 -321 c 128,-1,20
 795 -296 795 -296 795 -254 c 0,21,22
 795 -219 795 -219 766.5 -198.5 c 128,-1,23
 738 -178 738 -178 676 -178 c 0,24,25
 663 -178 663 -178 649 -179 c 128,-1,26
 635 -180 635 -180 621 -182 c 1,27,-1
 655 -20 l 1,28,29
 536 -7 536 -7 439.5 43 c 128,-1,30
 343 93 343 93 275 174 c 128,-1,31
 207 255 207 255 170 364 c 128,-1,32
 133 473 133 473 133 604 c 0,33,34
 133 792 133 792 192.5 949 c 128,-1,35
 252 1106 252 1106 361.5 1219 c 128,-1,36
 471 1332 471 1332 624.5 1395 c 128,-1,37
 778 1458 778 1458 965 1458 c 0,38,39
 1093 1458 1093 1458 1191.5 1430.5 c 128,-1,40
 1290 1403 1290 1403 1358 1368 c 1,41,-1
 1321 1196 l 1,42,43
 1292 1215 1292 1215 1255 1235 c 128,-1,44
 1218 1255 1218 1255 1172.5 1271 c 128,-1,45
 1127 1287 1127 1287 1073.5 1297 c 128,-1,46
 1020 1307 1020 1307 958 1307 c 0,47,48
 808 1307 808 1307 688.5 1254 c 128,-1,49
 569 1201 569 1201 485 1108 c 128,-1,50
 401 1015 401 1015 356 889.5 c 128,-1,51
 311 764 311 764 311 618 c 0,52,53
 311 499 311 499 344 407.5 c 128,-1,54
 377 316 377 316 437.5 253.5 c 128,-1,55
 498 191 498 191 582.5 159 c 128,-1,56
 667 127 667 127 770 127 c 0,57,58
 836 127 836 127 890 134.5 c 128,-1,59
 944 142 944 142 990 155.5 c 128,-1,60
 1036 169 1036 169 1076.5 187.5 c 128,-1,61
 1117 206 1117 206 1155 227 c 1,62,-1
 1116 51 l 1,0,1
EndSplineSet
Substitution2: "SegoeUI-Italic-'c2sc' Capitals to Small Capitals lookup 26 subtable" Ccedilla.c2sc
Position2: "SegoeUI-Italic-'cpsp' Capital Spacing lookup 12 subtable" dx=36 dy=0 dh=72 dv=0
EndChar

StartChar: ccedilla
Encoding: 231 231 111
Width: 893
GlyphClass: 2
Flags: W
AnchorPoint: "Anchor-15" 180 2100 basechar 0
AnchorPoint: "Anchor-14" 1073 2100 basechar 0
AnchorPoint: "Anchor-11" 390 -400 basechar 0
AnchorPoint: "Anchor-8" 751 -420 basechar 0
AnchorPoint: "Anchor-7" 1081 1900 basechar 0
AnchorPoint: "Anchor-2" 350 -440 basechar 0
AnchorPoint: "Anchor-1" 970 1200 basechar 0
AnchorPoint: "Anchor-0" 650 1300 basechar 0
LayerCount: 2
Fore
SplineSet
715 49 m 1,0,1
 652 15 652 15 587.5 -5 c 128,-1,2
 523 -25 523 -25 449 -25 c 1,3,-1
 432 -104 l 1,4,5
 468 -104 468 -104 500.5 -112.5 c 128,-1,6
 533 -121 533 -121 557 -138 c 128,-1,7
 581 -155 581 -155 595.5 -180 c 128,-1,8
 610 -205 610 -205 610 -238 c 0,9,10
 610 -327 610 -327 535.5 -380.5 c 128,-1,11
 461 -434 461 -434 317 -434 c 0,12,13
 297 -434 297 -434 274 -432.5 c 128,-1,14
 251 -431 251 -431 229 -428 c 1,15,-1
 248 -340 l 1,16,17
 287 -346 287 -346 324 -346 c 0,18,19
 410 -346 410 -346 452 -321 c 128,-1,20
 494 -296 494 -296 494 -254 c 0,21,22
 494 -219 494 -219 465.5 -198.5 c 128,-1,23
 437 -178 437 -178 375 -178 c 0,24,25
 362 -178 362 -178 347.5 -179 c 128,-1,26
 333 -180 333 -180 319 -182 c 1,27,-1
 356 -14 l 1,28,29
 286 1 286 1 233.5 37 c 128,-1,30
 181 73 181 73 146.5 126.5 c 128,-1,31
 112 180 112 180 95 247.5 c 128,-1,32
 78 315 78 315 78 393 c 0,33,34
 78 477 78 477 95 558.5 c 128,-1,35
 112 640 112 640 145.5 712.5 c 128,-1,36
 179 785 179 785 228 847 c 128,-1,37
 277 909 277 909 340.5 953.5 c 128,-1,38
 404 998 404 998 482 1023.5 c 128,-1,39
 560 1049 560 1049 651 1049 c 0,40,41
 694 1049 694 1049 733 1043 c 128,-1,42
 772 1037 772 1037 804 1027 c 128,-1,43
 836 1017 836 1017 861 1005.5 c 128,-1,44
 886 994 886 994 901 983 c 1,45,-1
 864 821 l 1,46,47
 822 858 822 858 762.5 883.5 c 128,-1,48
 703 909 703 909 631 909 c 0,49,50
 562 909 562 909 506.5 885 c 128,-1,51
 451 861 451 861 408 821 c 128,-1,52
 365 781 365 781 334 729 c 128,-1,53
 303 677 303 677 283 621 c 128,-1,54
 263 565 263 565 253.5 509.5 c 128,-1,55
 244 454 244 454 244 406 c 0,56,57
 244 263 244 263 307 189 c 128,-1,58
 370 115 370 115 479 115 c 0,59,60
 545 115 545 115 616 142.5 c 128,-1,61
 687 170 687 170 750 213 c 1,62,-1
 715 49 l 1,0,1
EndSplineSet
Substitution2: "SegoeUI-Italic-'smcp' Lowercase to Small Capitals lookup 27 subtable" Ccedilla.c2sc
EndChar

StartChar: dagger
Encoding: 8224 8224 130
Width: 770
GlyphClass: 2
Flags: W
LayerCount: 2
Fore
SplineSet
806 893 m 1,0,-1
 550 923 l 1,1,-1
 363 229 l 1,2,-1
 287 229 l 1,3,-1
 394 923 l 1,4,-1
 126 893 l 1,5,-1
 158 1043 l 1,6,-1
 455 1023 l 1,7,-1
 502 1433 l 1,8,-1
 658 1433 l 1,9,-1
 531 1023 l 1,10,-1
 838 1043 l 1,11,-1
 806 893 l 1,0,-1
EndSplineSet
EndChar

StartChar: degree
Encoding: 176 176 131
Width: 772
GlyphClass: 2
Flags: W
LayerCount: 2
Fore
SplineSet
801 1176 m 0,0,1
 801 1118 801 1118 779 1067.5 c 128,-1,2
 757 1017 757 1017 719 979 c 128,-1,3
 681 941 681 941 630.5 919 c 128,-1,4
 580 897 580 897 522 897 c 0,5,6
 465 897 465 897 414.5 919 c 128,-1,7
 364 941 364 941 326.5 979 c 128,-1,8
 289 1017 289 1017 267.5 1067.5 c 128,-1,9
 246 1118 246 1118 246 1176 c 0,10,11
 246 1233 246 1233 267.5 1283 c 128,-1,12
 289 1333 289 1333 326.5 1370 c 128,-1,13
 364 1407 364 1407 414.5 1428.5 c 128,-1,14
 465 1450 465 1450 522 1450 c 0,15,16
 580 1450 580 1450 630.5 1428.5 c 128,-1,17
 681 1407 681 1407 719 1370 c 128,-1,18
 757 1333 757 1333 779 1283 c 128,-1,19
 801 1233 801 1233 801 1176 c 0,0,1
682 1176 m 256,20,21
 682 1209 682 1209 669.5 1237.5 c 128,-1,22
 657 1266 657 1266 635 1287.5 c 128,-1,23
 613 1309 613 1309 584 1321 c 128,-1,24
 555 1333 555 1333 522 1333 c 0,25,26
 490 1333 490 1333 461.5 1321 c 128,-1,27
 433 1309 433 1309 411.5 1287.5 c 128,-1,28
 390 1266 390 1266 377.5 1237.5 c 128,-1,29
 365 1209 365 1209 365 1176 c 256,30,31
 365 1143 365 1143 377.5 1113.5 c 128,-1,32
 390 1084 390 1084 411.5 1062 c 128,-1,33
 433 1040 433 1040 461.5 1027 c 128,-1,34
 490 1014 490 1014 522 1014 c 256,35,36
 554 1014 554 1014 583 1027 c 128,-1,37
 612 1040 612 1040 634 1062 c 128,-1,38
 656 1084 656 1084 669 1113.5 c 128,-1,39
 682 1143 682 1143 682 1176 c 256,20,21
EndSplineSet
EndChar

StartChar: cent
Encoding: 162 162 132
Width: 1104
GlyphClass: 2
Flags: W
LayerCount: 2
Fore
SplineSet
999 993 m 1,0,1
 970 1025 970 1025 925 1049.5 c 128,-1,2
 880 1074 880 1074 823 1083 c 1,3,-1
 657 303 l 1,4,5
 717 309 717 309 772.5 333 c 128,-1,6
 828 357 828 357 885 399 c 1,7,-1
 852 231 l 1,8,9
 809 204 809 204 752.5 183.5 c 128,-1,10
 696 163 696 163 627 158 c 1,11,-1
 584 -49 l 1,12,-1
 457 -49 l 1,13,-1
 500 162 l 1,14,15
 425 175 425 175 367.5 211.5 c 128,-1,16
 310 248 310 248 270.5 302 c 128,-1,17
 231 356 231 356 210.5 425 c 128,-1,18
 190 494 190 494 190 573 c 0,19,20
 190 659 190 659 204.5 732.5 c 128,-1,21
 219 806 219 806 245 869 c 128,-1,22
 271 932 271 932 307 985 c 128,-1,23
 343 1038 343 1038 385 1081 c 0,24,25
 419 1115 419 1115 459.5 1141 c 128,-1,26
 500 1167 500 1167 544.5 1185 c 128,-1,27
 589 1203 589 1203 635.5 1213.5 c 128,-1,28
 682 1224 682 1224 727 1227 c 1,29,-1
 766 1413 l 1,30,-1
 893 1413 l 1,31,-1
 854 1223 l 1,32,33
 916 1215 916 1215 965 1199.5 c 128,-1,34
 1014 1184 1014 1184 1038 1165 c 1,35,-1
 999 993 l 1,0,1
696 1079 m 1,36,37
 636 1067 636 1067 585 1037.5 c 128,-1,38
 534 1008 534 1008 494 963 c 0,39,40
 463 928 463 928 438 884.5 c 128,-1,41
 413 841 413 841 396.5 792 c 128,-1,42
 380 743 380 743 371 690.5 c 128,-1,43
 362 638 362 638 362 586 c 0,44,45
 362 473 362 473 408.5 405 c 128,-1,46
 455 337 455 337 532 315 c 1,47,-1
 696 1079 l 1,36,37
EndSplineSet
EndChar

StartChar: sterling
Encoding: 163 163 133
Width: 1104
GlyphClass: 2
Flags: W
LayerCount: 2
Fore
SplineSet
1100 1262 m 1,0,1
 1058 1289 1058 1289 1008.5 1304 c 128,-1,2
 959 1319 959 1319 905 1319 c 0,3,4
 795 1319 795 1319 719 1244.5 c 128,-1,5
 643 1170 643 1170 608 1004 c 2,6,-1
 559 776 l 1,7,-1
 856 776 l 1,8,-1
 825 635 l 1,9,-1
 530 635 l 1,10,-1
 489 451 l 2,11,12
 466 338 466 338 406 260.5 c 128,-1,13
 346 183 346 183 252 139 c 1,14,-1
 940 139 l 1,15,-1
 911 0 l 1,16,-1
 10 0 l 1,17,-1
 41 135 l 1,18,19
 160 169 160 169 230.5 250 c 128,-1,20
 301 331 301 331 326 449 c 2,21,-1
 365 635 l 1,22,-1
 168 635 l 1,23,-1
 197 776 l 1,24,-1
 395 776 l 1,25,-1
 451 1036 l 2,26,27
 474 1142 474 1142 517.5 1221.5 c 128,-1,28
 561 1301 561 1301 620.5 1353.5 c 128,-1,29
 680 1406 680 1406 754.5 1432 c 128,-1,30
 829 1458 829 1458 913 1458 c 0,31,32
 983 1458 983 1458 1040 1446 c 128,-1,33
 1097 1434 1097 1434 1133 1417 c 1,34,-1
 1100 1262 l 1,0,1
EndSplineSet
EndChar

StartChar: section
Encoding: 167 167 134
Width: 918
GlyphClass: 2
Flags: W
LayerCount: 2
Fore
SplineSet
893 1305 m 1,0,1
 856 1328 856 1328 803.5 1345 c 128,-1,2
 751 1362 751 1362 698 1362 c 0,3,4
 652 1362 652 1362 613 1352 c 128,-1,5
 574 1342 574 1342 546 1321.5 c 128,-1,6
 518 1301 518 1301 502.5 1271 c 128,-1,7
 487 1241 487 1241 487 1202 c 0,8,9
 487 1165 487 1165 500.5 1136 c 128,-1,10
 514 1107 514 1107 536.5 1083 c 128,-1,11
 559 1059 559 1059 589 1038.5 c 128,-1,12
 619 1018 619 1018 651 997 c 0,13,14
 709 960 709 960 746 925 c 128,-1,15
 783 890 783 890 804.5 855 c 128,-1,16
 826 820 826 820 834 784.5 c 128,-1,17
 842 749 842 749 842 711 c 0,18,19
 842 661 842 661 824.5 615 c 128,-1,20
 807 569 807 569 776.5 530 c 128,-1,21
 746 491 746 491 705 461.5 c 128,-1,22
 664 432 664 432 616 414 c 1,23,24
 645 373 645 373 659.5 335.5 c 128,-1,25
 674 298 674 298 674 250 c 0,26,27
 674 189 674 189 653 132 c 128,-1,28
 632 75 632 75 586 31 c 128,-1,29
 540 -13 540 -13 466.5 -39.5 c 128,-1,30
 393 -66 393 -66 289 -66 c 0,31,32
 253 -66 253 -66 216.5 -61.5 c 128,-1,33
 180 -57 180 -57 147 -50 c 128,-1,34
 114 -43 114 -43 87 -34 c 128,-1,35
 60 -25 60 -25 43 -16 c 1,36,-1
 74 135 l 1,37,38
 97 120 97 120 125.5 106.5 c 128,-1,39
 154 93 154 93 184.5 83.5 c 128,-1,40
 215 74 215 74 246 68.5 c 128,-1,41
 277 63 277 63 305 63 c 0,42,43
 408 63 408 63 463 104 c 128,-1,44
 518 145 518 145 518 219 c 0,45,46
 518 252 518 252 506.5 279.5 c 128,-1,47
 495 307 495 307 473 331.5 c 128,-1,48
 451 356 451 356 418 380.5 c 128,-1,49
 385 405 385 405 342 432 c 0,50,51
 307 455 307 455 276 482.5 c 128,-1,52
 245 510 245 510 222 543 c 128,-1,53
 199 576 199 576 185.5 615 c 128,-1,54
 172 654 172 654 172 700 c 0,55,56
 172 756 172 756 191 802 c 128,-1,57
 210 848 210 848 241.5 884.5 c 128,-1,58
 273 921 273 921 314.5 948 c 128,-1,59
 356 975 356 975 401 993 c 1,60,61
 374 1028 374 1028 353 1073 c 128,-1,62
 332 1118 332 1118 332 1167 c 0,63,64
 332 1255 332 1255 364.5 1316.5 c 128,-1,65
 397 1378 397 1378 449.5 1417 c 128,-1,66
 502 1456 502 1456 568.5 1473.5 c 128,-1,67
 635 1491 635 1491 702 1491 c 0,68,69
 728 1491 728 1491 757.5 1488 c 128,-1,70
 787 1485 787 1485 817 1480 c 128,-1,71
 847 1475 847 1475 874.5 1467 c 128,-1,72
 902 1459 902 1459 924 1450 c 1,73,-1
 893 1305 l 1,0,1
684 688 m 0,74,75
 684 709 684 709 679 730.5 c 128,-1,76
 674 752 674 752 660 775 c 128,-1,77
 646 798 646 798 622 821 c 128,-1,78
 598 844 598 844 559 868 c 0,79,80
 537 882 537 882 519.5 894.5 c 128,-1,81
 502 907 502 907 479 924 c 1,82,83
 411 896 411 896 370.5 847.5 c 128,-1,84
 330 799 330 799 330 733 c 0,85,86
 330 705 330 705 334.5 682.5 c 128,-1,87
 339 660 339 660 353.5 638 c 128,-1,88
 368 616 368 616 394 593 c 128,-1,89
 420 570 420 570 463 541 c 0,90,91
 483 527 483 527 503.5 514.5 c 128,-1,92
 524 502 524 502 541 483 c 1,93,94
 615 517 615 517 649.5 573 c 128,-1,95
 684 629 684 629 684 688 c 0,74,75
EndSplineSet
EndChar

StartChar: bullet
Encoding: 8226 8226 135
Width: 829
GlyphClass: 2
Flags: W
LayerCount: 2
Fore
SplineSet
698 635 m 256,0,1
 698 582 698 582 677.5 535.5 c 128,-1,2
 657 489 657 489 622 454 c 128,-1,3
 587 419 587 419 540 399 c 128,-1,4
 493 379 493 379 440 379 c 256,5,6
 387 379 387 379 340.5 399 c 128,-1,7
 294 419 294 419 259 454 c 128,-1,8
 224 489 224 489 204 535.5 c 128,-1,9
 184 582 184 582 184 635 c 256,10,11
 184 688 184 688 204.5 735 c 128,-1,12
 225 782 225 782 260 817 c 128,-1,13
 295 852 295 852 342 872.5 c 128,-1,14
 389 893 389 893 442 893 c 256,15,16
 495 893 495 893 542 872.5 c 128,-1,17
 589 852 589 852 623.5 817 c 128,-1,18
 658 782 658 782 678 735 c 128,-1,19
 698 688 698 688 698 635 c 256,0,1
EndSplineSet
EndChar

StartChar: paragraph
Encoding: 182 182 136
Width: 938
GlyphClass: 2
Flags: W
LayerCount: 2
Fore
SplineSet
778 1331 m 1,0,-1
 778 0 l 1,1,-1
 672 0 l 1,2,-1
 672 1331 l 1,3,-1
 514 1331 l 1,4,-1
 514 0 l 1,5,-1
 406 0 l 1,6,-1
 406 903 l 1,7,8
 354 903 354 903 308.5 922.5 c 128,-1,9
 263 942 263 942 229 977 c 128,-1,10
 195 1012 195 1012 175.5 1061 c 128,-1,11
 156 1110 156 1110 156 1169 c 0,12,13
 156 1232 156 1232 177.5 1281.5 c 128,-1,14
 199 1331 199 1331 235 1364.5 c 128,-1,15
 271 1398 271 1398 317 1416 c 128,-1,16
 363 1434 363 1434 412 1434 c 2,17,-1
 905 1434 l 1,18,-1
 905 1331 l 1,19,-1
 778 1331 l 1,0,-1
EndSplineSet
EndChar

StartChar: germandbls
Encoding: 223 223 137
Width: 1106
GlyphClass: 2
Flags: W
AnchorPoint: "Anchor-15" 180 2100 basechar 0
AnchorPoint: "Anchor-14" 1286 2100 basechar 0
AnchorPoint: "Anchor-11" 559 0 basechar 0
AnchorPoint: "Anchor-8" 927 -420 basechar 0
AnchorPoint: "Anchor-7" 1257 1900 basechar 0
AnchorPoint: "Anchor-2" 407 -25 basechar 0
AnchorPoint: "Anchor-1" 1254 1538 basechar 0
AnchorPoint: "Anchor-0" 737 1698 basechar 0
LayerCount: 2
Fore
SplineSet
1077 1221 m 0,0,1
 1077 1133 1077 1133 1046 1063.5 c 128,-1,2
 1015 994 1015 994 966.5 942 c 128,-1,3
 918 890 918 890 858 857 c 128,-1,4
 798 824 798 824 739 809 c 1,5,-1
 739 805 l 1,6,7
 811 790 811 790 864 756 c 128,-1,8
 917 722 917 722 952 673.5 c 128,-1,9
 987 625 987 625 1004.5 565 c 128,-1,10
 1022 505 1022 505 1022 440 c 0,11,12
 1022 352 1022 352 993.5 268.5 c 128,-1,13
 965 185 965 185 906.5 119.5 c 128,-1,14
 848 54 848 54 758 14.5 c 128,-1,15
 668 -25 668 -25 545 -25 c 0,16,17
 522 -25 522 -25 495 -22.5 c 128,-1,18
 468 -20 468 -20 442.5 -15.5 c 128,-1,19
 417 -11 417 -11 395 -5.5 c 128,-1,20
 373 0 373 0 360 6 c 1,21,-1
 395 162 l 1,22,23
 411 151 411 151 432 142.5 c 128,-1,24
 453 134 453 134 475 128 c 128,-1,25
 497 122 497 122 518 118.5 c 128,-1,26
 539 115 539 115 555 115 c 0,27,28
 639 115 639 115 695.5 145 c 128,-1,29
 752 175 752 175 787 222 c 128,-1,30
 822 269 822 269 837 326.5 c 128,-1,31
 852 384 852 384 852 438 c 0,32,33
 852 501 852 501 834.5 554 c 128,-1,34
 817 607 817 607 780.5 646.5 c 128,-1,35
 744 686 744 686 687.5 710 c 128,-1,36
 631 734 631 734 553 739 c 1,37,-1
 580 872 l 1,38,39
 657 884 657 884 718 913 c 128,-1,40
 779 942 779 942 821.5 985.5 c 128,-1,41
 864 1029 864 1029 886.5 1086 c 128,-1,42
 909 1143 909 1143 909 1210 c 0,43,44
 909 1249 909 1249 897.5 1284 c 128,-1,45
 886 1319 886 1319 863.5 1345 c 128,-1,46
 841 1371 841 1371 809 1386 c 128,-1,47
 777 1401 777 1401 735 1401 c 0,48,49
 683 1401 683 1401 639.5 1384 c 128,-1,50
 596 1367 596 1367 561 1329.5 c 128,-1,51
 526 1292 526 1292 499.5 1231.5 c 128,-1,52
 473 1171 473 1171 455 1085 c 2,53,-1
 223 0 l 1,54,-1
 57 0 l 1,55,-1
 299 1137 l 2,56,57
 319 1230 319 1230 355 1304.5 c 128,-1,58
 391 1379 391 1379 446 1431.5 c 128,-1,59
 501 1484 501 1484 576 1512 c 128,-1,60
 651 1540 651 1540 748 1540 c 0,61,62
 827 1540 827 1540 888 1515 c 128,-1,63
 949 1490 949 1490 991 1447 c 128,-1,64
 1033 1404 1033 1404 1055 1346 c 128,-1,65
 1077 1288 1077 1288 1077 1221 c 0,0,1
EndSplineSet
Substitution2: "SegoeUI-Italic-'smcp' Lowercase to Small Capitals lookup 27 subtable" uni1E9E.c2sc
EndChar

StartChar: registered
Encoding: 174 174 139
Width: 1823
GlyphClass: 2
Flags: W
LayerCount: 2
Fore
SplineSet
912 255 m 0,0,1
 663 255 663 255 487.5 430 c 128,-1,2
 312 605 312 605 312 854 c 256,3,4
 312 1103 312 1103 487.5 1278.5 c 128,-1,5
 663 1454 663 1454 912 1454 c 0,6,7
 1160 1454 1160 1454 1335.5 1278.5 c 128,-1,8
 1511 1103 1511 1103 1511 854 c 256,9,10
 1511 605 1511 605 1335.5 430 c 128,-1,11
 1160 255 1160 255 912 255 c 0,0,1
913 1360 m 0,12,13
 703 1360 703 1360 554.5 1212 c 128,-1,14
 406 1064 406 1064 406 854 c 0,15,16
 406 645 406 645 554.5 497 c 128,-1,17
 703 349 703 349 913 349 c 0,18,19
 1122 349 1122 349 1269.5 497 c 128,-1,20
 1417 645 1417 645 1417 854 c 0,21,22
 1417 1064 1417 1064 1269.5 1212 c 128,-1,23
 1122 1360 1122 1360 913 1360 c 0,12,13
1203 479 m 1,24,-1
 1065 479 l 1,25,-1
 982 662 l 2,26,27
 919 800 919 800 846 800 c 2,28,-1
 794 800 l 1,29,-1
 794 479 l 1,30,-1
 677 479 l 1,31,-1
 677 1242 l 1,32,-1
 892 1242 l 2,33,34
 1025 1242 1025 1242 1097.5 1186 c 128,-1,35
 1170 1130 1170 1130 1170 1034 c 0,36,37
 1170 956 1170 956 1119 900.5 c 128,-1,38
 1068 845 1068 845 977 826 c 1,39,-1
 977 823 l 1,40,41
 1040 809 1040 809 1103 682 c 2,42,-1
 1203 479 l 1,24,-1
794 1143 m 1,43,-1
 794 898 l 1,44,-1
 888 898 l 2,45,46
 1046 898 1046 898 1046 1021 c 0,47,48
 1046 1092 1046 1092 1003.5 1117.5 c 128,-1,49
 961 1143 961 1143 869 1143 c 2,50,-1
 794 1143 l 1,43,-1
EndSplineSet
EndChar

StartChar: copyright
Encoding: 169 169 140
Width: 1862
GlyphClass: 2
Flags: W
LayerCount: 2
Fore
SplineSet
1720 719 m 0,0,1
 1720 614 1720 614 1694 517.5 c 128,-1,2
 1668 421 1668 421 1619.5 338.5 c 128,-1,3
 1571 256 1571 256 1503.5 189 c 128,-1,4
 1436 122 1436 122 1352.5 74.5 c 128,-1,5
 1269 27 1269 27 1172 1 c 128,-1,6
 1075 -25 1075 -25 969 -25 c 0,7,8
 808 -25 808 -25 670.5 30.5 c 128,-1,9
 533 86 533 86 432.5 184.5 c 128,-1,10
 332 283 332 283 275.5 418 c 128,-1,11
 219 553 219 553 219 713 c 0,12,13
 219 817 219 817 245 913 c 128,-1,14
 271 1009 271 1009 319 1091.5 c 128,-1,15
 367 1174 367 1174 435 1241.5 c 128,-1,16
 503 1309 503 1309 586.5 1357.5 c 128,-1,17
 670 1406 670 1406 768 1432 c 128,-1,18
 866 1458 866 1458 973 1458 c 0,19,20
 1128 1458 1128 1458 1264 1404 c 128,-1,21
 1400 1350 1400 1350 1501.5 1252 c 128,-1,22
 1603 1154 1603 1154 1661.5 1018.5 c 128,-1,23
 1720 883 1720 883 1720 719 c 0,0,1
1630 715 m 256,24,25
 1630 858 1630 858 1578 979 c 128,-1,26
 1526 1100 1526 1100 1437 1188.5 c 128,-1,27
 1348 1277 1348 1277 1228 1326.5 c 128,-1,28
 1108 1376 1108 1376 971 1376 c 0,29,30
 827 1376 827 1376 705 1325 c 128,-1,31
 583 1274 583 1274 494.5 1184.5 c 128,-1,32
 406 1095 406 1095 356.5 974.5 c 128,-1,33
 307 854 307 854 307 715 c 0,34,35
 307 619 307 619 330.5 532.5 c 128,-1,36
 354 446 354 446 397.5 372 c 128,-1,37
 441 298 441 298 501.5 238.5 c 128,-1,38
 562 179 562 179 636 137.5 c 128,-1,39
 710 96 710 96 794.5 73.5 c 128,-1,40
 879 51 879 51 971 51 c 0,41,42
 1106 51 1106 51 1226 101 c 128,-1,43
 1346 151 1346 151 1435.5 240 c 128,-1,44
 1525 329 1525 329 1577.5 450.5 c 128,-1,45
 1630 572 1630 572 1630 715 c 256,24,25
1270 266 m 1,46,47
 1252 256 1252 256 1225.5 243.5 c 128,-1,48
 1199 231 1199 231 1164.5 221 c 128,-1,49
 1130 211 1130 211 1089 204 c 128,-1,50
 1048 197 1048 197 1001 197 c 0,51,52
 898 197 898 197 808 234 c 128,-1,53
 718 271 718 271 652 337 c 128,-1,54
 586 403 586 403 548 494 c 128,-1,55
 510 585 510 585 510 692 c 0,56,57
 510 822 510 822 550.5 922.5 c 128,-1,58
 591 1023 591 1023 661.5 1092 c 128,-1,59
 732 1161 732 1161 827 1197 c 128,-1,60
 922 1233 922 1233 1030 1233 c 0,61,62
 1066 1233 1066 1233 1101 1228 c 128,-1,63
 1136 1223 1136 1223 1167 1215.5 c 128,-1,64
 1198 1208 1198 1208 1223.5 1198.5 c 128,-1,65
 1249 1189 1249 1189 1266 1180 c 1,66,-1
 1266 1030 l 1,67,68
 1245 1046 1245 1046 1216.5 1059.5 c 128,-1,69
 1188 1073 1188 1073 1155 1082.5 c 128,-1,70
 1122 1092 1122 1092 1085.5 1097 c 128,-1,71
 1049 1102 1049 1102 1012 1102 c 0,72,73
 943 1102 943 1102 878.5 1078 c 128,-1,74
 814 1054 814 1054 764 1005.5 c 128,-1,75
 714 957 714 957 683.5 883 c 128,-1,76
 653 809 653 809 653 709 c 0,77,78
 653 617 653 617 682.5 545 c 128,-1,79
 712 473 712 473 762.5 424 c 128,-1,80
 813 375 813 375 879.5 349.5 c 128,-1,81
 946 324 946 324 1020 324 c 0,82,83
 1052 324 1052 324 1087 330 c 128,-1,84
 1122 336 1122 336 1155.5 346.5 c 128,-1,85
 1189 357 1189 357 1218.5 371 c 128,-1,86
 1248 385 1248 385 1270 401 c 1,87,-1
 1270 266 l 1,46,47
EndSplineSet
EndChar

StartChar: trademark
Encoding: 8482 8482 141
Width: 1583
GlyphClass: 2
Flags: W
LayerCount: 2
Fore
SplineSet
1368 772 m 1,0,-1
 1368 1249 l 1,1,-1
 1364 1249 l 1,2,-1
 1143 772 l 1,3,-1
 1085 772 l 1,4,-1
 872 1249 l 1,5,-1
 868 1249 l 1,6,-1
 868 772 l 1,7,-1
 766 772 l 1,8,-1
 766 1434 l 1,9,-1
 893 1434 l 1,10,-1
 1118 938 l 1,11,-1
 1122 938 l 1,12,-1
 1352 1434 l 1,13,-1
 1475 1434 l 1,14,-1
 1475 772 l 1,15,-1
 1368 772 l 1,0,-1
473 1335 m 1,16,-1
 473 772 l 1,17,-1
 360 772 l 1,18,-1
 360 1333 l 1,19,-1
 156 1333 l 1,20,-1
 156 1434 l 1,21,-1
 680 1434 l 1,22,-1
 680 1335 l 1,23,-1
 473 1335 l 1,16,-1
EndSplineSet
EndChar

StartChar: acute
Encoding: 180 180 142
Width: 715
GlyphClass: 2
Flags: W
LayerCount: 2
Fore
SplineSet
455 1219 m 1,0,-1
 332 1219 l 1,1,-1
 621 1546 l 1,2,-1
 782 1546 l 1,3,-1
 455 1219 l 1,0,-1
EndSplineSet
EndChar

StartChar: dieresis
Encoding: 168 168 143
Width: 715
GlyphClass: 2
Flags: W
LayerCount: 2
Fore
SplineSet
799 1317 m 0,0,1
 799 1275 799 1275 770 1247 c 128,-1,2
 741 1219 741 1219 700 1219 c 0,3,4
 660 1219 660 1219 631 1246.5 c 128,-1,5
 602 1274 602 1274 602 1317 c 0,6,7
 602 1338 602 1338 610 1356 c 128,-1,8
 618 1374 618 1374 631 1387 c 128,-1,9
 644 1400 644 1400 661.5 1407.5 c 128,-1,10
 679 1415 679 1415 698 1415 c 0,11,12
 719 1415 719 1415 737.5 1407.5 c 128,-1,13
 756 1400 756 1400 769.5 1386.5 c 128,-1,14
 783 1373 783 1373 791 1355.5 c 128,-1,15
 799 1338 799 1338 799 1317 c 0,0,1
414 1317 m 256,16,17
 414 1296 414 1296 406 1278.5 c 128,-1,18
 398 1261 398 1261 384.5 1247.5 c 128,-1,19
 371 1234 371 1234 352.5 1226.5 c 128,-1,20
 334 1219 334 1219 313 1219 c 0,21,22
 294 1219 294 1219 276 1226.5 c 128,-1,23
 258 1234 258 1234 244.5 1247 c 128,-1,24
 231 1260 231 1260 223 1278 c 128,-1,25
 215 1296 215 1296 215 1317 c 256,26,27
 215 1338 215 1338 223 1356 c 128,-1,28
 231 1374 231 1374 244.5 1387 c 128,-1,29
 258 1400 258 1400 276 1407.5 c 128,-1,30
 294 1415 294 1415 313 1415 c 0,31,32
 334 1415 334 1415 352.5 1407.5 c 128,-1,33
 371 1400 371 1400 384.5 1386.5 c 128,-1,34
 398 1373 398 1373 406 1355.5 c 128,-1,35
 414 1338 414 1338 414 1317 c 256,16,17
EndSplineSet
EndChar

StartChar: notequal
Encoding: 8800 8800 144
Width: 1403
GlyphClass: 2
Flags: W
LayerCount: 2
Fore
SplineSet
651 317 m 1,0,-1
 489 0 l 1,1,-1
 348 0 l 1,2,-1
 512 317 l 1,3,-1
 262 317 l 1,4,-1
 262 451 l 1,5,-1
 582 451 l 1,6,-1
 731 743 l 1,7,-1
 262 743 l 1,8,-1
 262 877 l 1,9,-1
 801 877 l 1,10,-1
 958 1188 l 1,11,-1
 1100 1188 l 1,12,-1
 940 877 l 1,13,-1
 1202 877 l 1,14,-1
 1202 743 l 1,15,-1
 872 743 l 1,16,-1
 721 451 l 1,17,-1
 1202 451 l 1,18,-1
 1202 317 l 1,19,-1
 651 317 l 1,0,-1
EndSplineSet
EndChar

StartChar: AE
Encoding: 198 198 145
Width: 1751
GlyphClass: 2
Flags: W
AnchorPoint: "Anchor-15" 180 2100 basechar 0
AnchorPoint: "Anchor-14" 1931 2100 basechar 0
AnchorPoint: "Anchor-11" 1300 0 basechar 0
AnchorPoint: "Anchor-8" 1683 -420 basechar 0
AnchorPoint: "Anchor-7" 2013 1900 basechar 0
AnchorPoint: "Anchor-2" 850 -15 basechar 0
AnchorPoint: "Anchor-1" 1942 1500 basechar 0
AnchorPoint: "Anchor-0" 1220 1600 basechar 0
LayerCount: 2
Fore
SplineSet
1800 1280 m 1,0,-1
 1245 1280 l 1,1,-1
 1141 793 l 1,2,-1
 1655 793 l 1,3,-1
 1622 641 l 1,4,-1
 1108 641 l 1,5,-1
 1004 152 l 1,6,-1
 1591 152 l 1,7,-1
 1561 0 l 1,8,-1
 801 0 l 1,9,-1
 887 401 l 1,10,-1
 379 401 l 1,11,-1
 86 0 l 1,12,-1
 -121 0 l 1,13,-1
 946 1434 l 1,14,-1
 1833 1434 l 1,15,-1
 1800 1280 l 1,0,-1
1016 1280 m 1,16,-1
 494 557 l 1,17,-1
 920 557 l 1,18,-1
 1071 1280 l 1,19,-1
 1016 1280 l 1,16,-1
EndSplineSet
Substitution2: "SegoeUI-Italic-'c2sc' Capitals to Small Capitals lookup 26 subtable" AE.c2sc
Position2: "SegoeUI-Italic-'cpsp' Capital Spacing lookup 12 subtable" dx=36 dy=0 dh=72 dv=0
EndChar

StartChar: Oslash
Encoding: 216 216 146
Width: 1544
GlyphClass: 2
Flags: W
AnchorPoint: "Anchor-15" 180 2100 basechar 0
AnchorPoint: "Anchor-14" 1724 2100 basechar 0
AnchorPoint: "Anchor-11" 680 -15 basechar 0
AnchorPoint: "Anchor-8" 1400 -420 basechar 0
AnchorPoint: "Anchor-7" 1730 1900 basechar 0
AnchorPoint: "Anchor-2" 620 -25 basechar 0
AnchorPoint: "Anchor-1" 1600 1660 basechar 0
AnchorPoint: "Anchor-0" 950 1600 basechar 0
LayerCount: 2
Fore
SplineSet
1384 1219 m 1,0,1
 1435 1140 1435 1140 1461 1046.5 c 128,-1,2
 1487 953 1487 953 1487 848 c 0,3,4
 1487 754 1487 754 1469.5 660 c 128,-1,5
 1452 566 1452 566 1417 477.5 c 128,-1,6
 1382 389 1382 389 1329.5 309 c 128,-1,7
 1277 229 1277 229 1208 164 c 0,8,9
 1114 74 1114 74 993 24.5 c 128,-1,10
 872 -25 872 -25 713 -25 c 0,11,12
 645 -25 645 -25 585 -12.5 c 128,-1,13
 525 0 525 0 473 22 c 128,-1,14
 421 44 421 44 378 74 c 128,-1,15
 335 104 335 104 301 139 c 1,16,-1
 131 -29 l 1,17,-1
 49 49 l 1,18,-1
 229 229 l 1,19,20
 186 305 186 305 161.5 394 c 128,-1,21
 137 483 137 483 137 586 c 0,22,23
 137 794 137 794 206 958 c 128,-1,24
 275 1122 275 1122 393 1241 c 0,25,26
 493 1341 493 1341 619.5 1397.5 c 128,-1,27
 746 1454 746 1454 913 1454 c 0,28,29
 1043 1454 1043 1454 1142.5 1412.5 c 128,-1,30
 1242 1371 1242 1371 1311 1305 c 1,31,-1
 1470 1466 l 1,32,-1
 1550 1386 l 1,33,-1
 1384 1219 l 1,0,1
1190 1186 m 1,34,35
 1139 1238 1139 1238 1066 1270.5 c 128,-1,36
 993 1303 993 1303 903 1303 c 0,37,38
 842 1303 842 1303 785.5 1290 c 128,-1,39
 729 1277 729 1277 679 1254 c 128,-1,40
 629 1231 629 1231 585 1199.5 c 128,-1,41
 541 1168 541 1168 506 1130 c 0,42,43
 460 1079 460 1079 424 1016.5 c 128,-1,44
 388 954 388 954 363.5 883.5 c 128,-1,45
 339 813 339 813 326 736 c 128,-1,46
 313 659 313 659 313 578 c 0,47,48
 313 516 313 516 325 460 c 128,-1,49
 337 404 337 404 358 354 c 1,50,-1
 1190 1186 l 1,34,35
1309 850 m 0,51,52
 1309 921 1309 921 1294.5 982.5 c 128,-1,53
 1280 1044 1280 1044 1255 1094 c 1,54,-1
 422 256 l 1,55,56
 473 193 473 193 549 160 c 128,-1,57
 625 127 625 127 727 127 c 0,58,59
 833 127 833 127 925.5 164 c 128,-1,60
 1018 201 1018 201 1090 272 c 0,61,62
 1142 323 1142 323 1183 389 c 128,-1,63
 1224 455 1224 455 1252 530 c 128,-1,64
 1280 605 1280 605 1294.5 686.5 c 128,-1,65
 1309 768 1309 768 1309 850 c 0,51,52
EndSplineSet
Substitution2: "SegoeUI-Italic-'c2sc' Capitals to Small Capitals lookup 26 subtable" Oslash.c2sc
Position2: "SegoeUI-Italic-'cpsp' Capital Spacing lookup 12 subtable" dx=36 dy=0 dh=72 dv=0
EndChar

StartChar: infinity
Encoding: 8734 8734 147
Width: 1673
GlyphClass: 2
Flags: W
LayerCount: 2
Fore
SplineSet
1624 600 m 0,0,1
 1624 522 1624 522 1596 450.5 c 128,-1,2
 1568 379 1568 379 1518 325 c 128,-1,3
 1468 271 1468 271 1400 239 c 128,-1,4
 1332 207 1332 207 1251 207 c 0,5,6
 1140 207 1140 207 1044 274 c 128,-1,7
 948 341 948 341 866 481 c 1,8,9
 781 342 781 342 682.5 274.5 c 128,-1,10
 584 207 584 207 485 207 c 0,11,12
 403 207 403 207 334.5 234.5 c 128,-1,13
 266 262 266 262 217 312.5 c 128,-1,14
 168 363 168 363 140.5 434 c 128,-1,15
 113 505 113 505 113 592 c 0,16,17
 113 670 113 670 141 741.5 c 128,-1,18
 169 813 169 813 218.5 867 c 128,-1,19
 268 921 268 921 336 953 c 128,-1,20
 404 985 404 985 485 985 c 0,21,22
 603 985 603 985 698 918.5 c 128,-1,23
 793 852 793 852 870 713 c 1,24,25
 949 846 949 846 1045 915.5 c 128,-1,26
 1141 985 1141 985 1249 985 c 0,27,28
 1332 985 1332 985 1401 957.5 c 128,-1,29
 1470 930 1470 930 1519.5 879.5 c 128,-1,30
 1569 829 1569 829 1596.5 758 c 128,-1,31
 1624 687 1624 687 1624 600 c 0,0,1
1491 600 m 0,32,33
 1491 654 1491 654 1473.5 701.5 c 128,-1,34
 1456 749 1456 749 1424.5 784.5 c 128,-1,35
 1393 820 1393 820 1348.5 840 c 128,-1,36
 1304 860 1304 860 1251 860 c 0,37,38
 1162 860 1162 860 1084 796 c 128,-1,39
 1006 732 1006 732 932 596 c 1,40,41
 1000 459 1000 459 1078 397.5 c 128,-1,42
 1156 336 1156 336 1249 336 c 0,43,44
 1308 336 1308 336 1353 356.5 c 128,-1,45
 1398 377 1398 377 1428.5 412.5 c 128,-1,46
 1459 448 1459 448 1475 496 c 128,-1,47
 1491 544 1491 544 1491 600 c 0,32,33
805 598 m 1,48,49
 737 735 737 735 657.5 797.5 c 128,-1,50
 578 860 578 860 485 860 c 0,51,52
 428 860 428 860 383 839 c 128,-1,53
 338 818 338 818 307 782 c 128,-1,54
 276 746 276 746 260 697 c 128,-1,55
 244 648 244 648 244 592 c 0,56,57
 244 537 244 537 262 490.5 c 128,-1,58
 280 444 280 444 312 409.5 c 128,-1,59
 344 375 344 375 388 355.5 c 128,-1,60
 432 336 432 336 485 336 c 0,61,62
 575 336 575 336 653 399 c 128,-1,63
 731 462 731 462 805 598 c 1,48,49
EndSplineSet
EndChar

StartChar: plusminus
Encoding: 177 177 148
Width: 1403
GlyphClass: 2
Flags: W
LayerCount: 2
Fore
SplineSet
793 651 m 1,0,-1
 793 248 l 1,1,-1
 662 248 l 1,2,-1
 662 651 l 1,3,-1
 256 651 l 1,4,-1
 256 784 l 1,5,-1
 662 784 l 1,6,-1
 662 1188 l 1,7,-1
 793 1188 l 1,8,-1
 793 784 l 1,9,-1
 1196 784 l 1,10,-1
 1196 651 l 1,11,-1
 793 651 l 1,0,-1
256 0 m 1,12,-1
 256 133 l 1,13,-1
 1196 133 l 1,14,-1
 1196 0 l 1,15,-1
 256 0 l 1,12,-1
EndSplineSet
EndChar

StartChar: lessequal
Encoding: 8804 8804 149
Width: 1403
GlyphClass: 2
Flags: W
LayerCount: 2
Fore
SplineSet
303 659 m 1,0,-1
 303 717 l 1,1,-1
 1163 1198 l 1,2,-1
 1163 1049 l 1,3,-1
 520 694 l 1,4,-1
 520 690 l 1,5,-1
 1163 377 l 1,6,-1
 1163 225 l 1,7,-1
 303 659 l 1,0,-1
262 18 m 1,8,-1
 262 152 l 1,9,-1
 1202 152 l 1,10,-1
 1202 18 l 1,11,-1
 262 18 l 1,8,-1
EndSplineSet
EndChar

StartChar: greaterequal
Encoding: 8805 8805 150
Width: 1403
GlyphClass: 2
Flags: W
LayerCount: 2
Fore
SplineSet
303 225 m 1,0,-1
 303 377 l 1,1,-1
 946 686 l 1,2,-1
 946 692 l 1,3,-1
 303 1049 l 1,4,-1
 303 1198 l 1,5,-1
 1163 717 l 1,6,-1
 1163 659 l 1,7,-1
 303 225 l 1,0,-1
262 18 m 1,8,-1
 262 152 l 1,9,-1
 1202 152 l 1,10,-1
 1202 18 l 1,11,-1
 262 18 l 1,8,-1
EndSplineSet
EndChar

StartChar: yen
Encoding: 165 165 151
Width: 1104
GlyphClass: 2
Flags: W
LayerCount: 2
Fore
SplineSet
741 778 m 1,0,-1
 1026 778 l 1,1,-1
 997 639 l 1,2,-1
 662 639 l 1,3,-1
 618 432 l 1,4,-1
 952 432 l 1,5,-1
 924 293 l 1,6,-1
 590 293 l 1,7,-1
 526 0 l 1,8,-1
 362 0 l 1,9,-1
 426 293 l 1,10,-1
 84 293 l 1,11,-1
 113 432 l 1,12,-1
 455 432 l 1,13,-1
 498 639 l 1,14,-1
 156 639 l 1,15,-1
 186 778 l 1,16,-1
 477 778 l 1,17,-1
 264 1434 l 1,18,-1
 438 1434 l 1,19,-1
 584 909 l 2,20,21
 595 871 595 871 601 845.5 c 128,-1,22
 607 820 607 820 610 799 c 1,23,-1
 616 799 l 1,24,25
 630 827 630 827 648.5 855 c 128,-1,26
 667 883 667 883 690 915 c 2,27,-1
 1049 1434 l 1,28,-1
 1239 1434 l 1,29,-1
 741 778 l 1,0,-1
EndSplineSet
EndChar

StartChar: mu
Encoding: 181 181 152
Width: 1175
GlyphClass: 2
Flags: W
LayerCount: 2
Fore
SplineSet
114 -395 m 1,0,-1
 -48 -395 l 1,1,-1
 252 1024 l 1,2,-1
 418 1024 l 1,3,-1
 291 424 l 2,4,5
 287 408 287 408 283 387 c 128,-1,6
 279 366 279 366 275.5 345 c 128,-1,7
 272 324 272 324 270 306.5 c 128,-1,8
 268 289 268 289 268 279 c 0,9,10
 268 204 268 204 304.5 159.5 c 128,-1,11
 341 115 341 115 414 115 c 0,12,13
 458 115 458 115 502 133 c 128,-1,14
 546 151 546 151 587.5 181.5 c 128,-1,15
 629 212 629 212 665.5 252.5 c 128,-1,16
 702 293 702 293 732 338.5 c 128,-1,17
 762 384 762 384 783.5 432 c 128,-1,18
 805 480 805 480 815 524 c 2,19,-1
 922 1024 l 1,20,-1
 1087 1024 l 1,21,-1
 934 311 l 2,22,23
 927 280 927 280 922 246 c 128,-1,24
 917 212 917 212 917 192 c 0,25,26
 917 170 917 170 925 155 c 128,-1,27
 933 140 933 140 945 131 c 128,-1,28
 957 122 957 122 972 118.5 c 128,-1,29
 987 115 987 115 1002 115 c 0,30,31
 1020 115 1020 115 1038.5 118 c 128,-1,32
 1057 121 1057 121 1074 127 c 1,33,-1
 1048 -4 l 1,34,35
 1023 -12 1023 -12 991 -17 c 128,-1,36
 959 -22 959 -22 928 -22 c 0,37,38
 832 -22 832 -22 790 23.5 c 128,-1,39
 748 69 748 69 748 144 c 0,40,41
 748 153 748 153 748.5 166.5 c 128,-1,42
 749 180 749 180 750.5 194 c 128,-1,43
 752 208 752 208 753.5 221 c 128,-1,44
 755 234 755 234 756 242 c 1,45,-1
 752 242 l 1,46,47
 721 186 721 186 681.5 137.5 c 128,-1,48
 642 89 642 89 595.5 53 c 128,-1,49
 549 17 549 17 495 -4 c 128,-1,50
 441 -25 441 -25 381 -25 c 256,51,52
 321 -25 321 -25 276 2 c 128,-1,53
 231 29 231 29 214 73 c 1,54,-1
 114 -395 l 1,0,-1
EndSplineSet
EndChar

StartChar: partialdiff
Encoding: 8706 8706 153
Width: 1096
GlyphClass: 2
Flags: W
LayerCount: 2
Fore
SplineSet
1051 934 m 0,0,1
 1051 879 1051 879 1046.5 819.5 c 128,-1,2
 1042 760 1042 760 1034 701.5 c 128,-1,3
 1026 643 1026 643 1015.5 589.5 c 128,-1,4
 1005 536 1005 536 993 492 c 0,5,6
 963 377 963 377 915 282 c 128,-1,7
 867 187 867 187 801 119 c 128,-1,8
 735 51 735 51 652 13 c 128,-1,9
 569 -25 569 -25 469 -25 c 0,10,11
 385 -25 385 -25 317 2.5 c 128,-1,12
 249 30 249 30 201 81.5 c 128,-1,13
 153 133 153 133 126.5 206.5 c 128,-1,14
 100 280 100 280 100 371 c 0,15,16
 100 452 100 452 116 533.5 c 128,-1,17
 132 615 132 615 162.5 689 c 128,-1,18
 193 763 193 763 238.5 827.5 c 128,-1,19
 284 892 284 892 342 939 c 128,-1,20
 400 986 400 986 470.5 1013 c 128,-1,21
 541 1040 541 1040 623 1040 c 0,22,23
 715 1040 715 1040 779 997 c 128,-1,24
 843 954 843 954 885 872 c 1,25,-1
 889 872 l 1,26,27
 891 891 891 891 891 906 c 0,28,29
 891 922 891 922 891 942 c 0,30,31
 891 1036 891 1036 877 1111 c 128,-1,32
 863 1186 863 1186 831.5 1238.5 c 128,-1,33
 800 1291 800 1291 748.5 1319.5 c 128,-1,34
 697 1348 697 1348 623 1348 c 0,35,36
 592 1348 592 1348 557.5 1340.5 c 128,-1,37
 523 1333 523 1333 490 1321.5 c 128,-1,38
 457 1310 457 1310 428.5 1296 c 128,-1,39
 400 1282 400 1282 379 1268 c 1,40,-1
 416 1423 l 1,41,42
 442 1438 442 1438 473 1450 c 128,-1,43
 504 1462 504 1462 537 1470.5 c 128,-1,44
 570 1479 570 1479 603 1484 c 128,-1,45
 636 1489 636 1489 666 1489 c 0,46,47
 745 1489 745 1489 804.5 1468.5 c 128,-1,48
 864 1448 864 1448 906.5 1411 c 128,-1,49
 949 1374 949 1374 977 1322.5 c 128,-1,50
 1005 1271 1005 1271 1021.5 1209 c 128,-1,51
 1038 1147 1038 1147 1044.5 1077.5 c 128,-1,52
 1051 1008 1051 1008 1051 934 c 0,0,1
874 692 m 1,53,54
 861 737 861 737 840 775 c 128,-1,55
 819 813 819 813 789.5 841 c 128,-1,56
 760 869 760 869 723.5 885 c 128,-1,57
 687 901 687 901 643 901 c 0,58,59
 584 901 584 901 533.5 879.5 c 128,-1,60
 483 858 483 858 441.5 820 c 128,-1,61
 400 782 400 782 367.5 731 c 128,-1,62
 335 680 335 680 313 622 c 128,-1,63
 291 564 291 564 279.5 501.5 c 128,-1,64
 268 439 268 439 268 377 c 0,65,66
 268 319 268 319 282.5 270.5 c 128,-1,67
 297 222 297 222 324 187.5 c 128,-1,68
 351 153 351 153 390.5 134 c 128,-1,69
 430 115 430 115 481 115 c 0,70,71
 559 115 559 115 625.5 159 c 128,-1,72
 692 203 692 203 742.5 280 c 128,-1,73
 793 357 793 357 827 462.5 c 128,-1,74
 861 568 861 568 874 692 c 1,53,54
EndSplineSet
EndChar

StartChar: summation
Encoding: 8721 8721 154
Width: 1262
GlyphClass: 2
Flags: W
LayerCount: 2
Fore
SplineSet
82 -469 m 1,0,-1
 82 -391 l 1,1,-1
 758 492 l 1,2,-1
 119 1343 l 1,3,-1
 119 1434 l 1,4,-1
 1200 1434 l 1,5,-1
 1200 1280 l 1,6,-1
 365 1280 l 1,7,-1
 958 496 l 1,8,-1
 330 -322 l 1,9,-1
 1241 -322 l 1,10,-1
 1241 -469 l 1,11,-1
 82 -469 l 1,0,-1
EndSplineSet
EndChar

StartChar: product
Encoding: 8719 8719 155
Width: 1544
GlyphClass: 2
Flags: W
LayerCount: 2
Fore
SplineSet
1227 -469 m 1,0,-1
 1227 1278 l 1,1,-1
 389 1278 l 1,2,-1
 389 -469 l 1,3,-1
 221 -469 l 1,4,-1
 221 1434 l 1,5,-1
 1397 1434 l 1,6,-1
 1397 -469 l 1,7,-1
 1227 -469 l 1,0,-1
EndSplineSet
EndChar

StartChar: integral
Encoding: 8747 8747 156
Width: 1104
GlyphClass: 2
Flags: W
LayerCount: 2
Fore
SplineSet
946 1372 m 1,0,1
 926 1383 926 1383 898 1391 c 128,-1,2
 870 1399 870 1399 836 1399 c 0,3,4
 792 1399 792 1399 759.5 1383 c 128,-1,5
 727 1367 727 1367 706 1338.5 c 128,-1,6
 685 1310 685 1310 674.5 1270 c 128,-1,7
 664 1230 664 1230 664 1182 c 2,8,-1
 664 -139 l 2,9,10
 664 -230 664 -230 635.5 -295.5 c 128,-1,11
 607 -361 607 -361 560.5 -403 c 128,-1,12
 514 -445 514 -445 456.5 -465 c 128,-1,13
 399 -485 399 -485 340 -485 c 0,14,15
 305 -485 305 -485 272.5 -480 c 128,-1,16
 240 -475 240 -475 221 -467 c 1,17,-1
 221 -319 l 1,18,19
 240 -330 240 -330 269 -338 c 128,-1,20
 298 -346 298 -346 330 -346 c 0,21,22
 374 -346 374 -346 406 -330.5 c 128,-1,23
 438 -315 438 -315 459.5 -286.5 c 128,-1,24
 481 -258 481 -258 491.5 -218 c 128,-1,25
 502 -178 502 -178 502 -129 c 2,26,-1
 502 1190 l 2,27,28
 502 1282 502 1282 531 1347.5 c 128,-1,29
 560 1413 560 1413 606.5 1455.5 c 128,-1,30
 653 1498 653 1498 711 1518 c 128,-1,31
 769 1538 769 1538 827 1538 c 0,32,33
 861 1538 861 1538 894.5 1533 c 128,-1,34
 928 1528 928 1528 946 1520 c 1,35,-1
 946 1372 l 1,0,1
EndSplineSet
EndChar

StartChar: ordfeminine
Encoding: 170 170 157
Width: 893
GlyphClass: 2
Flags: W
LayerCount: 2
Fore
SplineSet
817 942 m 2,0,1
 812 916 812 916 806.5 883 c 128,-1,2
 801 850 801 850 796.5 817.5 c 128,-1,3
 792 785 792 785 789 757.5 c 128,-1,4
 786 730 786 730 786 715 c 1,5,-1
 649 715 l 1,6,7
 650 728 650 728 651.5 747 c 128,-1,8
 653 766 653 766 655.5 785.5 c 128,-1,9
 658 805 658 805 660 824 c 128,-1,10
 662 843 662 843 664 856 c 1,11,-1
 662 856 l 1,12,13
 615 787 615 787 551 741.5 c 128,-1,14
 487 696 487 696 406 696 c 0,15,16
 306 696 306 696 251.5 767 c 128,-1,17
 197 838 197 838 197 969 c 0,18,19
 197 1008 197 1008 205.5 1059 c 128,-1,20
 214 1110 214 1110 234 1164 c 128,-1,21
 254 1218 254 1218 287 1270.5 c 128,-1,22
 320 1323 320 1323 370 1364 c 128,-1,23
 420 1405 420 1405 488 1430.5 c 128,-1,24
 556 1456 556 1456 645 1456 c 0,25,26
 674 1456 674 1456 709 1453.5 c 128,-1,27
 744 1451 744 1451 780 1447 c 128,-1,28
 816 1443 816 1443 850.5 1437 c 128,-1,29
 885 1431 885 1431 915 1425 c 1,30,-1
 817 942 l 2,0,1
764 1331 m 1,31,32
 738 1337 738 1337 702.5 1341.5 c 128,-1,33
 667 1346 667 1346 639 1346 c 0,34,35
 582 1346 582 1346 537 1328 c 128,-1,36
 492 1310 492 1310 458 1279.5 c 128,-1,37
 424 1249 424 1249 400.5 1210.5 c 128,-1,38
 377 1172 377 1172 362 1131 c 128,-1,39
 347 1090 347 1090 340.5 1050 c 128,-1,40
 334 1010 334 1010 334 977 c 0,41,42
 334 940 334 940 340.5 908 c 128,-1,43
 347 876 347 876 361.5 853.5 c 128,-1,44
 376 831 376 831 399.5 818 c 128,-1,45
 423 805 423 805 457 805 c 0,46,47
 508 805 508 805 552 837.5 c 128,-1,48
 596 870 596 870 630 918 c 128,-1,49
 664 966 664 966 687.5 1021.5 c 128,-1,50
 711 1077 711 1077 721 1122 c 2,51,-1
 764 1331 l 1,31,32
EndSplineSet
EndChar

StartChar: ordmasculine
Encoding: 186 186 158
Width: 915
GlyphClass: 2
Flags: W
LayerCount: 2
Fore
SplineSet
938 1151 m 0,0,1
 938 1069 938 1069 915 987.5 c 128,-1,2
 892 906 892 906 842.5 841.5 c 128,-1,3
 793 777 793 777 715.5 736.5 c 128,-1,4
 638 696 638 696 530 696 c 0,5,6
 457 696 457 696 399 719.5 c 128,-1,7
 341 743 341 743 300 785 c 128,-1,8
 259 827 259 827 237 885.5 c 128,-1,9
 215 944 215 944 215 1014 c 0,10,11
 215 1105 215 1105 243 1185 c 128,-1,12
 271 1265 271 1265 323.5 1325 c 128,-1,13
 376 1385 376 1385 452 1419.5 c 128,-1,14
 528 1454 528 1454 625 1454 c 0,15,16
 701 1454 701 1454 759.5 1431 c 128,-1,17
 818 1408 818 1408 857.5 1367 c 128,-1,18
 897 1326 897 1326 917.5 1271 c 128,-1,19
 938 1216 938 1216 938 1151 c 0,0,1
803 1141 m 0,20,21
 803 1182 803 1182 792 1219 c 128,-1,22
 781 1256 781 1256 758 1283.5 c 128,-1,23
 735 1311 735 1311 699.5 1327 c 128,-1,24
 664 1343 664 1343 616 1343 c 0,25,26
 550 1343 550 1343 500 1316 c 128,-1,27
 450 1289 450 1289 417 1243.5 c 128,-1,28
 384 1198 384 1198 367 1139.5 c 128,-1,29
 350 1081 350 1081 350 1018 c 0,30,31
 350 970 350 970 363 931.5 c 128,-1,32
 376 893 376 893 400 865 c 128,-1,33
 424 837 424 837 458.5 822 c 128,-1,34
 493 807 493 807 535 807 c 0,35,36
 610 807 610 807 661.5 838 c 128,-1,37
 713 869 713 869 744.5 917 c 128,-1,38
 776 965 776 965 789.5 1024.5 c 128,-1,39
 803 1084 803 1084 803 1141 c 0,20,21
EndSplineSet
EndChar

StartChar: Omega
Encoding: 8486 8486 159
Width: 1578
GlyphClass: 2
Flags: W
LayerCount: 2
Fore
SplineSet
1542 893 m 0,0,1
 1542 757 1542 757 1501 642 c 128,-1,2
 1460 527 1460 527 1392 433 c 128,-1,3
 1324 339 1324 339 1234.5 267.5 c 128,-1,4
 1145 196 1145 196 1047 147 c 1,5,-1
 1386 147 l 1,6,-1
 1356 0 l 1,7,-1
 840 0 l 1,8,-1
 872 162 l 1,9,10
 971 213 971 213 1058.5 282 c 128,-1,11
 1146 351 1146 351 1210.5 439.5 c 128,-1,12
 1275 528 1275 528 1312.5 637 c 128,-1,13
 1350 746 1350 746 1350 877 c 0,14,15
 1350 973 1350 973 1320.5 1052 c 128,-1,16
 1291 1131 1291 1131 1235.5 1187.5 c 128,-1,17
 1180 1244 1180 1244 1100.5 1275.5 c 128,-1,18
 1021 1307 1021 1307 922 1307 c 0,19,20
 792 1307 792 1307 682.5 1258 c 128,-1,21
 573 1209 573 1209 493.5 1121 c 128,-1,22
 414 1033 414 1033 369.5 910.5 c 128,-1,23
 325 788 325 788 325 641 c 0,24,25
 325 553 325 553 341 484 c 128,-1,26
 357 415 357 415 386 358 c 128,-1,27
 415 301 415 301 455 254 c 128,-1,28
 495 207 495 207 543 162 c 1,29,-1
 510 0 l 1,30,-1
 -6 0 l 1,31,-1
 23 147 l 1,32,-1
 379 147 l 1,33,34
 337 182 337 182 293.5 231 c 128,-1,35
 250 280 250 280 215.5 344 c 128,-1,36
 181 408 181 408 159 485.5 c 128,-1,37
 137 563 137 563 137 655 c 0,38,39
 137 836 137 836 198 984 c 128,-1,40
 259 1132 259 1132 366 1237.5 c 128,-1,41
 473 1343 473 1343 617.5 1400.5 c 128,-1,42
 762 1458 762 1458 930 1458 c 0,43,44
 1076 1458 1076 1458 1189.5 1414 c 128,-1,45
 1303 1370 1303 1370 1381.5 1294 c 128,-1,46
 1460 1218 1460 1218 1501 1115 c 128,-1,47
 1542 1012 1542 1012 1542 893 c 0,0,1
EndSplineSet
EndChar

StartChar: ae
Encoding: 230 230 160
Width: 1692
GlyphClass: 2
Flags: W
AnchorPoint: "Anchor-15" 180 2100 basechar 0
AnchorPoint: "Anchor-14" 1872 2100 basechar 0
AnchorPoint: "Anchor-11" 1300 39 basechar 0
AnchorPoint: "Anchor-8" 1505 -420 basechar 0
AnchorPoint: "Anchor-7" 1835 1900 basechar 0
AnchorPoint: "Anchor-5" 1670 910 basechar 0
AnchorPoint: "Anchor-2" 720 -25 basechar 0
AnchorPoint: "Anchor-1" 1800 1200 basechar 0
AnchorPoint: "Anchor-0" 1040 1300 basechar 0
LayerCount: 2
Fore
SplineSet
1655 784 m 0,0,1
 1655 703 1655 703 1619 636.5 c 128,-1,2
 1583 570 1583 570 1500 522.5 c 128,-1,3
 1417 475 1417 475 1280 449 c 128,-1,4
 1143 423 1143 423 942 422 c 1,5,6
 942 411 942 411 941 401.5 c 128,-1,7
 940 392 940 392 940 383 c 0,8,9
 940 329 940 329 954.5 280.5 c 128,-1,10
 969 232 969 232 1000.5 195.5 c 128,-1,11
 1032 159 1032 159 1082 137 c 128,-1,12
 1132 115 1132 115 1202 115 c 0,13,14
 1271 115 1271 115 1353.5 141.5 c 128,-1,15
 1436 168 1436 168 1511 217 c 1,16,-1
 1481 55 l 1,17,18
 1425 23 1425 23 1349.5 -1 c 128,-1,19
 1274 -25 1274 -25 1180 -25 c 0,20,21
 1090 -25 1090 -25 1021 0.5 c 128,-1,22
 952 26 952 26 904 71 c 128,-1,23
 856 116 856 116 829 178.5 c 128,-1,24
 802 241 802 241 795 315 c 1,25,-1
 791 315 l 1,26,27
 755 251 755 251 711 190 c 128,-1,28
 667 129 667 129 613.5 81 c 128,-1,29
 560 33 560 33 497 4 c 128,-1,30
 434 -25 434 -25 360 -25 c 0,31,32
 284 -25 284 -25 230.5 2.5 c 128,-1,33
 177 30 177 30 143 79 c 128,-1,34
 109 128 109 128 93.5 195.5 c 128,-1,35
 78 263 78 263 78 342 c 0,36,37
 78 413 78 413 94.5 493 c 128,-1,38
 111 573 111 573 145.5 651.5 c 128,-1,39
 180 730 180 730 234 802 c 128,-1,40
 288 874 288 874 363.5 929 c 128,-1,41
 439 984 439 984 537.5 1016.5 c 128,-1,42
 636 1049 636 1049 758 1049 c 0,43,44
 854 1049 854 1049 930.5 1026.5 c 128,-1,45
 1007 1004 1007 1004 1067 975 c 1,46,47
 1123 1010 1123 1010 1189.5 1029.5 c 128,-1,48
 1256 1049 1256 1049 1337 1049 c 0,49,50
 1401 1049 1401 1049 1458.5 1031 c 128,-1,51
 1516 1013 1516 1013 1559.5 979 c 128,-1,52
 1603 945 1603 945 1629 895.5 c 128,-1,53
 1655 846 1655 846 1655 784 c 0,0,1
1487 774 m 0,54,55
 1487 807 1487 807 1474 832 c 128,-1,56
 1461 857 1461 857 1437.5 874.5 c 128,-1,57
 1414 892 1414 892 1382.5 900.5 c 128,-1,58
 1351 909 1351 909 1313 909 c 0,59,60
 1252 909 1252 909 1195.5 885 c 128,-1,61
 1139 861 1139 861 1092 816 c 128,-1,62
 1045 771 1045 771 1010 706.5 c 128,-1,63
 975 642 975 642 958 561 c 1,64,65
 1102 561 1102 561 1203 576 c 128,-1,66
 1304 591 1304 591 1367 618.5 c 128,-1,67
 1430 646 1430 646 1458.5 685.5 c 128,-1,68
 1487 725 1487 725 1487 774 c 0,54,55
942 868 m 1,69,70
 925 876 925 876 902 883.5 c 128,-1,71
 879 891 879 891 853 896.5 c 128,-1,72
 827 902 827 902 799 905.5 c 128,-1,73
 771 909 771 909 745 909 c 0,74,75
 656 909 656 909 584 882 c 128,-1,76
 512 855 512 855 456 810.5 c 128,-1,77
 400 766 400 766 360 707.5 c 128,-1,78
 320 649 320 649 294.5 586.5 c 128,-1,79
 269 524 269 524 256.5 461.5 c 128,-1,80
 244 399 244 399 244 346 c 0,81,82
 244 295 244 295 252.5 252.5 c 128,-1,83
 261 210 261 210 278 179.5 c 128,-1,84
 295 149 295 149 321.5 132 c 128,-1,85
 348 115 348 115 385 115 c 0,86,87
 427 115 427 115 473 135.5 c 128,-1,88
 519 156 519 156 567.5 203.5 c 128,-1,89
 616 251 616 251 666.5 329 c 128,-1,90
 717 407 717 407 768 522 c 0,91,92
 780 549 780 549 798 591 c 128,-1,93
 816 633 816 633 838 681 c 128,-1,94
 860 729 860 729 886.5 778 c 128,-1,95
 913 827 913 827 942 868 c 1,69,70
EndSplineSet
Substitution2: "SegoeUI-Italic-'smcp' Lowercase to Small Capitals lookup 27 subtable" AE.c2sc
EndChar

StartChar: oslash
Encoding: 248 248 161
Width: 1096
GlyphClass: 2
Flags: W
AnchorPoint: "Anchor-15" 180 2100 basechar 0
AnchorPoint: "Anchor-14" 1276 2100 basechar 0
AnchorPoint: "Anchor-11" 510 0 basechar 0
AnchorPoint: "Anchor-8" 1026 -420 basechar 0
AnchorPoint: "Anchor-7" 1356 1900 basechar 0
AnchorPoint: "Anchor-5" 1020 760 basechar 0
AnchorPoint: "Anchor-2" 450 -25 basechar 0
AnchorPoint: "Anchor-1" 1200 1360 basechar 0
AnchorPoint: "Anchor-0" 700 1300 basechar 0
LayerCount: 2
Fore
SplineSet
979 838 m 1,0,1
 998 799 998 799 1008 750 c 128,-1,2
 1018 701 1018 701 1018 645 c 0,3,4
 1018 503 1018 503 977.5 380.5 c 128,-1,5
 937 258 937 258 863.5 168 c 128,-1,6
 790 78 790 78 687 26.5 c 128,-1,7
 584 -25 584 -25 459 -25 c 0,8,9
 369 -25 369 -25 297.5 4.5 c 128,-1,10
 226 34 226 34 176 90 c 1,11,-1
 20 -55 l 1,12,-1
 -55 27 l 1,13,-1
 115 184 l 1,14,15
 98 228 98 228 88 275.5 c 128,-1,16
 78 323 78 323 78 379 c 0,17,18
 78 519 78 519 118.5 641 c 128,-1,19
 159 763 159 763 232.5 854 c 128,-1,20
 306 945 306 945 409 997 c 128,-1,21
 512 1049 512 1049 637 1049 c 0,22,23
 728 1049 728 1049 797.5 1019 c 128,-1,24
 867 989 867 989 918 936 c 1,25,-1
 1098 1104 l 1,26,-1
 1176 1022 l 1,27,-1
 979 838 l 1,0,1
799 823 m 1,28,29
 770 867 770 867 726 888 c 128,-1,30
 682 909 682 909 627 909 c 0,31,32
 539 909 539 909 468 864 c 128,-1,33
 397 819 397 819 348 745.5 c 128,-1,34
 299 672 299 672 272.5 577.5 c 128,-1,35
 246 483 246 483 246 383 c 0,36,37
 246 345 246 345 252 313 c 1,38,-1
 799 823 l 1,28,29
850 643 m 0,39,40
 850 682 850 682 844 713 c 1,41,-1
 295 201 l 1,42,43
 321 163 321 163 366.5 139 c 128,-1,44
 412 115 412 115 469 115 c 0,45,46
 558 115 558 115 629 160 c 128,-1,47
 700 205 700 205 749 278.5 c 128,-1,48
 798 352 798 352 824 447.5 c 128,-1,49
 850 543 850 543 850 643 c 0,39,40
EndSplineSet
Substitution2: "SegoeUI-Italic-'smcp' Lowercase to Small Capitals lookup 27 subtable" Oslash.c2sc
EndChar

StartChar: questiondown
Encoding: 191 191 162
Width: 881
GlyphClass: 2
Flags: W
LayerCount: 2
Fore
SplineSet
698 942 m 256,0,1
 698 919 698 919 689.5 898.5 c 128,-1,2
 681 878 681 878 666 862.5 c 128,-1,3
 651 847 651 847 631 838 c 128,-1,4
 611 829 611 829 588 829 c 0,5,6
 566 829 566 829 545.5 838 c 128,-1,7
 525 847 525 847 510 862.5 c 128,-1,8
 495 878 495 878 486 898.5 c 128,-1,9
 477 919 477 919 477 942 c 256,10,11
 477 965 477 965 486 985.5 c 128,-1,12
 495 1006 495 1006 510 1021 c 128,-1,13
 525 1036 525 1036 545.5 1044.5 c 128,-1,14
 566 1053 566 1053 588 1053 c 0,15,16
 611 1053 611 1053 631 1044.5 c 128,-1,17
 651 1036 651 1036 666 1021 c 128,-1,18
 681 1006 681 1006 689.5 985.5 c 128,-1,19
 698 965 698 965 698 942 c 256,0,1
598 -367 m 1,20,21
 536 -394 536 -394 462 -411 c 128,-1,22
 388 -428 388 -428 313 -428 c 0,23,24
 235 -428 235 -428 171.5 -404 c 128,-1,25
 108 -380 108 -380 63 -337 c 128,-1,26
 18 -294 18 -294 -6.5 -236.5 c 128,-1,27
 -31 -179 -31 -179 -31 -111 c 0,28,29
 -31 -49 -31 -49 -15.5 5 c 128,-1,30
 0 59 0 59 33 108.5 c 128,-1,31
 66 158 66 158 116.5 205.5 c 128,-1,32
 167 253 167 253 236 301 c 0,33,34
 289 338 289 338 326 371.5 c 128,-1,35
 363 405 363 405 388.5 442.5 c 128,-1,36
 414 480 414 480 430.5 525.5 c 128,-1,37
 447 571 447 571 459 631 c 1,38,-1
 608 631 l 1,39,40
 594 559 594 559 576.5 501 c 128,-1,41
 559 443 559 443 531 394.5 c 128,-1,42
 503 346 503 346 462 304.5 c 128,-1,43
 421 263 421 263 360 223 c 0,44,45
 297 182 297 182 253.5 143 c 128,-1,46
 210 104 210 104 182 66 c 128,-1,47
 154 28 154 28 141.5 -11.5 c 128,-1,48
 129 -51 129 -51 129 -94 c 0,49,50
 129 -139 129 -139 144 -175 c 128,-1,51
 159 -211 159 -211 186 -237 c 128,-1,52
 213 -263 213 -263 251 -277 c 128,-1,53
 289 -291 289 -291 334 -291 c 0,54,55
 402 -291 402 -291 475 -269 c 128,-1,56
 548 -247 548 -247 616 -199 c 1,57,-1
 598 -367 l 1,20,21
EndSplineSet
Position2: "SegoeUI-Italic-'case' Case-Sensitive Forms lookup 15 subtable" dx=86 dy=406 dh=0 dv=0
EndChar

StartChar: exclamdown
Encoding: 161 161 164
Width: 653
GlyphClass: 2
Flags: W
LayerCount: 2
Fore
SplineSet
520 942 m 256,0,1
 520 919 520 919 511.5 898.5 c 128,-1,2
 503 878 503 878 488 862.5 c 128,-1,3
 473 847 473 847 453.5 838 c 128,-1,4
 434 829 434 829 412 829 c 0,5,6
 389 829 389 829 368.5 838 c 128,-1,7
 348 847 348 847 333 862.5 c 128,-1,8
 318 878 318 878 309.5 898.5 c 128,-1,9
 301 919 301 919 301 942 c 256,10,11
 301 965 301 965 309.5 985.5 c 128,-1,12
 318 1006 318 1006 333 1021 c 128,-1,13
 348 1036 348 1036 368.5 1044.5 c 128,-1,14
 389 1053 389 1053 412 1053 c 0,15,16
 434 1053 434 1053 453.5 1044.5 c 128,-1,17
 473 1036 473 1036 488 1021 c 128,-1,18
 503 1006 503 1006 511.5 985.5 c 128,-1,19
 520 965 520 965 520 942 c 256,0,1
221 -399 m 1,20,-1
 49 -399 l 1,21,-1
 287 631 l 1,22,-1
 422 631 l 1,23,-1
 221 -399 l 1,20,-1
EndSplineSet
Position2: "SegoeUI-Italic-'case' Case-Sensitive Forms lookup 15 subtable" dx=86 dy=406 dh=0 dv=0
EndChar

StartChar: logicalnot
Encoding: 172 172 165
Width: 1403
GlyphClass: 2
Flags: W
LayerCount: 2
Fore
SplineSet
1055 254 m 1,0,-1
 1055 686 l 1,1,-1
 246 686 l 1,2,-1
 246 817 l 1,3,-1
 1186 817 l 1,4,-1
 1186 254 l 1,5,-1
 1055 254 l 1,0,-1
EndSplineSet
EndChar

StartChar: radical
Encoding: 8730 8730 166
Width: 1331
GlyphClass: 2
Flags: W
LayerCount: 2
Fore
SplineSet
756 -2 m 1,0,-1
 643 -2 l 1,1,-1
 324 760 l 1,2,-1
 154 760 l 1,3,-1
 154 870 l 1,4,-1
 418 870 l 1,5,-1
 692 207 l 1,6,-1
 1026 1516 l 1,7,-1
 1145 1516 l 1,8,-1
 756 -2 l 1,0,-1
EndSplineSet
EndChar

StartChar: florin
Encoding: 402 402 167
Width: 1104
GlyphClass: 2
Flags: W
AnchorPoint: "Anchor-15" 180 2100 basechar 0
AnchorPoint: "Anchor-14" 1284 2100 basechar 0
AnchorPoint: "Anchor-11" 180 -242 basechar 0
AnchorPoint: "Anchor-8" 892 -420 basechar 0
AnchorPoint: "Anchor-7" 1222 1900 basechar 0
AnchorPoint: "Anchor-2" 181 -300 basechar 0
AnchorPoint: "Anchor-1" 1130 1434 basechar 0
AnchorPoint: "Anchor-0" 830 1650 basechar 0
LayerCount: 2
Fore
SplineSet
1014 1260 m 1,0,1
 994 1272 994 1272 962 1283 c 128,-1,2
 930 1294 930 1294 901 1294 c 0,3,4
 839 1294 839 1294 793.5 1255 c 128,-1,5
 748 1216 748 1216 729 1135 c 2,6,-1
 684 926 l 1,7,-1
 858 926 l 1,8,-1
 827 788 l 1,9,-1
 655 788 l 1,10,-1
 516 139 l 2,11,12
 490 16 490 16 454.5 -64.5 c 128,-1,13
 419 -145 419 -145 375.5 -192 c 128,-1,14
 332 -239 332 -239 281 -257.5 c 128,-1,15
 230 -276 230 -276 172 -276 c 0,16,17
 162 -276 162 -276 147 -275 c 128,-1,18
 132 -274 132 -274 115.5 -271.5 c 128,-1,19
 99 -269 99 -269 83.5 -265 c 128,-1,20
 68 -261 68 -261 57 -256 c 1,21,-1
 74 -111 l 1,22,23
 95 -125 95 -125 119 -131 c 128,-1,24
 143 -137 143 -137 160 -137 c 0,25,26
 192 -137 192 -137 220 -124 c 128,-1,27
 248 -111 248 -111 272 -78 c 128,-1,28
 296 -45 296 -45 317 12.5 c 128,-1,29
 338 70 338 70 356 158 c 2,30,-1
 492 786 l 1,31,-1
 373 786 l 1,32,-1
 403 926 l 1,33,-1
 518 926 l 1,34,-1
 565 1145 l 2,35,36
 579 1211 579 1211 607.5 1264.5 c 128,-1,37
 636 1318 636 1318 677.5 1355.5 c 128,-1,38
 719 1393 719 1393 773 1413.5 c 128,-1,39
 827 1434 827 1434 891 1434 c 0,40,41
 931 1434 931 1434 973.5 1426 c 128,-1,42
 1016 1418 1016 1418 1042 1409 c 1,43,-1
 1014 1260 l 1,0,1
EndSplineSet
EndChar

StartChar: approxequal
Encoding: 8776 8776 168
Width: 1403
GlyphClass: 2
Flags: W
LayerCount: 2
Fore
SplineSet
1225 961 m 1,0,1
 1222 894 1222 894 1203.5 837 c 128,-1,2
 1185 780 1185 780 1150 739 c 128,-1,3
 1115 698 1115 698 1063.5 674.5 c 128,-1,4
 1012 651 1012 651 944 651 c 0,5,6
 906 651 906 651 872 659.5 c 128,-1,7
 838 668 838 668 806.5 683 c 128,-1,8
 775 698 775 698 744.5 718 c 128,-1,9
 714 738 714 738 682 760 c 0,10,11
 664 772 664 772 645 783.5 c 128,-1,12
 626 795 626 795 605.5 805 c 128,-1,13
 585 815 585 815 563.5 821 c 128,-1,14
 542 827 542 827 520 827 c 0,15,16
 451 827 451 827 414.5 781.5 c 128,-1,17
 378 736 378 736 375 651 c 1,18,-1
 240 651 l 1,19,20
 243 719 243 719 262 775.5 c 128,-1,21
 281 832 281 832 316 873.5 c 128,-1,22
 351 915 351 915 402 938 c 128,-1,23
 453 961 453 961 520 961 c 0,24,25
 559 961 559 961 591.5 953 c 128,-1,26
 624 945 624 945 652.5 932.5 c 128,-1,27
 681 920 681 920 706.5 904 c 128,-1,28
 732 888 732 888 756 872 c 0,29,30
 789 850 789 850 814.5 833 c 128,-1,31
 840 816 840 816 862.5 805 c 128,-1,32
 885 794 885 794 906.5 788 c 128,-1,33
 928 782 928 782 952 782 c 0,34,35
 983 782 983 782 1008 795 c 128,-1,36
 1033 808 1033 808 1051 832 c 128,-1,37
 1069 856 1069 856 1079 889 c 128,-1,38
 1089 922 1089 922 1090 961 c 1,39,-1
 1225 961 l 1,0,1
1225 549 m 1,40,41
 1222 482 1222 482 1203.5 425.5 c 128,-1,42
 1185 369 1185 369 1150 328 c 128,-1,43
 1115 287 1115 287 1063.5 263.5 c 128,-1,44
 1012 240 1012 240 944 240 c 0,45,46
 906 240 906 240 872 248.5 c 128,-1,47
 838 257 838 257 806.5 272 c 128,-1,48
 775 287 775 287 744.5 306.5 c 128,-1,49
 714 326 714 326 682 348 c 0,50,51
 664 360 664 360 645 371.5 c 128,-1,52
 626 383 626 383 605.5 392.5 c 128,-1,53
 585 402 585 402 563.5 408 c 128,-1,54
 542 414 542 414 520 414 c 0,55,56
 451 414 451 414 414.5 369.5 c 128,-1,57
 378 325 378 325 375 240 c 1,58,-1
 240 240 l 1,59,60
 243 308 243 308 262 364.5 c 128,-1,61
 281 421 281 421 316 462 c 128,-1,62
 351 503 351 503 402 526 c 128,-1,63
 453 549 453 549 520 549 c 0,64,65
 559 549 559 549 591.5 541.5 c 128,-1,66
 624 534 624 534 652.5 521.5 c 128,-1,67
 681 509 681 509 706.5 493 c 128,-1,68
 732 477 732 477 756 461 c 0,69,70
 789 438 789 438 814.5 421 c 128,-1,71
 840 404 840 404 862.5 393 c 128,-1,72
 885 382 885 382 906.5 376.5 c 128,-1,73
 928 371 928 371 952 371 c 0,74,75
 1014 371 1014 371 1051 419.5 c 128,-1,76
 1088 468 1088 468 1090 549 c 1,77,-1
 1225 549 l 1,40,41
EndSplineSet
EndChar

